<mxfile host="Electron" modified="2024-10-06T16:24:45.551Z" agent="Mozilla/5.0 (Windows NT 10.0; Win64; x64) AppleWebKit/537.36 (KHTML, like Gecko) draw.io/24.6.4 Chrome/124.0.6367.207 Electron/30.0.6 Safari/537.36" etag="CCVewNpPTWYwk3g1PIBm" version="24.6.4" type="device" pages="2">
  <diagram name="split_and_partition" id="hC-V68r_91VxpbBGeO3e">
    <mxGraphModel dx="1434" dy="844" grid="1" gridSize="10" guides="1" tooltips="1" connect="1" arrows="1" fold="1" page="1" pageScale="1" pageWidth="827" pageHeight="1169" math="0" shadow="0">
      <root>
        <mxCell id="0" />
        <mxCell id="1" parent="0" />
        <mxCell id="NQvpLb1irxG-lKRuX6CE-46" value="" style="rounded=0;whiteSpace=wrap;html=1;fillColor=#dae8fc;strokeColor=#6c8ebf;" vertex="1" parent="1">
          <mxGeometry x="707" y="120" width="120" height="200" as="geometry" />
        </mxCell>
        <mxCell id="NQvpLb1irxG-lKRuX6CE-34" value="" style="rounded=0;whiteSpace=wrap;html=1;fillColor=#ffe6cc;strokeColor=#d79b00;" vertex="1" parent="1">
          <mxGeometry x="540" y="120" width="120" height="200" as="geometry" />
        </mxCell>
        <mxCell id="NQvpLb1irxG-lKRuX6CE-23" value="" style="rounded=0;whiteSpace=wrap;html=1;fillColor=#e1d5e7;strokeColor=#9673a6;" vertex="1" parent="1">
          <mxGeometry x="360" y="120" width="120" height="200" as="geometry" />
        </mxCell>
        <mxCell id="NQvpLb1irxG-lKRuX6CE-8" value="" style="rounded=0;whiteSpace=wrap;html=1;fillColor=#ffe6cc;strokeColor=#d79b00;" vertex="1" parent="1">
          <mxGeometry x="180" y="120" width="120" height="200" as="geometry" />
        </mxCell>
        <mxCell id="NQvpLb1irxG-lKRuX6CE-2" value="" style="rounded=0;whiteSpace=wrap;html=1;fillColor=#dae8fc;strokeColor=#6c8ebf;" vertex="1" parent="1">
          <mxGeometry y="120" width="120" height="200" as="geometry" />
        </mxCell>
        <mxCell id="NQvpLb1irxG-lKRuX6CE-13" style="edgeStyle=orthogonalEdgeStyle;rounded=0;orthogonalLoop=1;jettySize=auto;html=1;exitX=1;exitY=0.5;exitDx=0;exitDy=0;" edge="1" parent="1" source="NQvpLb1irxG-lKRuX6CE-1" target="NQvpLb1irxG-lKRuX6CE-9">
          <mxGeometry relative="1" as="geometry" />
        </mxCell>
        <mxCell id="NQvpLb1irxG-lKRuX6CE-1" value="block 1" style="rounded=0;whiteSpace=wrap;html=1;fillColor=#fff2cc;strokeColor=#d6b656;" vertex="1" parent="1">
          <mxGeometry x="20" y="140" width="80" height="40" as="geometry" />
        </mxCell>
        <mxCell id="NQvpLb1irxG-lKRuX6CE-14" style="edgeStyle=orthogonalEdgeStyle;rounded=0;orthogonalLoop=1;jettySize=auto;html=1;exitX=1;exitY=0.5;exitDx=0;exitDy=0;" edge="1" parent="1" source="NQvpLb1irxG-lKRuX6CE-3" target="NQvpLb1irxG-lKRuX6CE-10">
          <mxGeometry relative="1" as="geometry" />
        </mxCell>
        <mxCell id="NQvpLb1irxG-lKRuX6CE-16" style="rounded=0;orthogonalLoop=1;jettySize=auto;html=1;exitX=1;exitY=0.5;exitDx=0;exitDy=0;entryX=0;entryY=0.5;entryDx=0;entryDy=0;" edge="1" parent="1" source="NQvpLb1irxG-lKRuX6CE-3" target="NQvpLb1irxG-lKRuX6CE-9">
          <mxGeometry relative="1" as="geometry" />
        </mxCell>
        <mxCell id="NQvpLb1irxG-lKRuX6CE-3" value="block 2" style="rounded=0;whiteSpace=wrap;html=1;fillColor=#fff2cc;strokeColor=#d6b656;" vertex="1" parent="1">
          <mxGeometry x="20" y="200" width="80" height="40" as="geometry" />
        </mxCell>
        <mxCell id="NQvpLb1irxG-lKRuX6CE-15" style="edgeStyle=orthogonalEdgeStyle;rounded=0;orthogonalLoop=1;jettySize=auto;html=1;exitX=1;exitY=0.5;exitDx=0;exitDy=0;entryX=0;entryY=0.5;entryDx=0;entryDy=0;" edge="1" parent="1" source="NQvpLb1irxG-lKRuX6CE-4" target="NQvpLb1irxG-lKRuX6CE-11">
          <mxGeometry relative="1" as="geometry" />
        </mxCell>
        <mxCell id="NQvpLb1irxG-lKRuX6CE-22" style="rounded=0;orthogonalLoop=1;jettySize=auto;html=1;exitX=1;exitY=0.5;exitDx=0;exitDy=0;entryX=0;entryY=0.5;entryDx=0;entryDy=0;" edge="1" parent="1" source="NQvpLb1irxG-lKRuX6CE-4" target="NQvpLb1irxG-lKRuX6CE-10">
          <mxGeometry relative="1" as="geometry" />
        </mxCell>
        <mxCell id="NQvpLb1irxG-lKRuX6CE-4" value="block 3" style="rounded=0;whiteSpace=wrap;html=1;fillColor=#fff2cc;strokeColor=#d6b656;" vertex="1" parent="1">
          <mxGeometry x="20" y="260" width="80" height="40" as="geometry" />
        </mxCell>
        <mxCell id="NQvpLb1irxG-lKRuX6CE-5" value="HDFS 文件" style="text;html=1;align=center;verticalAlign=middle;whiteSpace=wrap;rounded=0;" vertex="1" parent="1">
          <mxGeometry y="320" width="120" height="40" as="geometry" />
        </mxCell>
        <mxCell id="NQvpLb1irxG-lKRuX6CE-28" style="edgeStyle=orthogonalEdgeStyle;rounded=0;orthogonalLoop=1;jettySize=auto;html=1;exitX=1;exitY=0.5;exitDx=0;exitDy=0;" edge="1" parent="1" source="NQvpLb1irxG-lKRuX6CE-9" target="NQvpLb1irxG-lKRuX6CE-24">
          <mxGeometry relative="1" as="geometry" />
        </mxCell>
        <mxCell id="NQvpLb1irxG-lKRuX6CE-9" value="split 1" style="rounded=0;whiteSpace=wrap;html=1;fillColor=#d5e8d4;strokeColor=#82b366;" vertex="1" parent="1">
          <mxGeometry x="200" y="140" width="80" height="40" as="geometry" />
        </mxCell>
        <mxCell id="NQvpLb1irxG-lKRuX6CE-29" style="edgeStyle=orthogonalEdgeStyle;rounded=0;orthogonalLoop=1;jettySize=auto;html=1;exitX=1;exitY=0.5;exitDx=0;exitDy=0;entryX=0;entryY=0.5;entryDx=0;entryDy=0;" edge="1" parent="1" source="NQvpLb1irxG-lKRuX6CE-10" target="NQvpLb1irxG-lKRuX6CE-25">
          <mxGeometry relative="1" as="geometry" />
        </mxCell>
        <mxCell id="NQvpLb1irxG-lKRuX6CE-10" value="split 2" style="rounded=0;whiteSpace=wrap;html=1;fillColor=#d5e8d4;strokeColor=#82b366;" vertex="1" parent="1">
          <mxGeometry x="200" y="200" width="80" height="40" as="geometry" />
        </mxCell>
        <mxCell id="NQvpLb1irxG-lKRuX6CE-30" style="edgeStyle=orthogonalEdgeStyle;rounded=0;orthogonalLoop=1;jettySize=auto;html=1;exitX=1;exitY=0.5;exitDx=0;exitDy=0;entryX=0;entryY=0.5;entryDx=0;entryDy=0;" edge="1" parent="1" source="NQvpLb1irxG-lKRuX6CE-11" target="NQvpLb1irxG-lKRuX6CE-26">
          <mxGeometry relative="1" as="geometry" />
        </mxCell>
        <mxCell id="NQvpLb1irxG-lKRuX6CE-11" value="split 3" style="rounded=0;whiteSpace=wrap;html=1;fillColor=#d5e8d4;strokeColor=#82b366;" vertex="1" parent="1">
          <mxGeometry x="200" y="260" width="80" height="40" as="geometry" />
        </mxCell>
        <mxCell id="NQvpLb1irxG-lKRuX6CE-12" value="InputFormat 分片" style="text;html=1;align=center;verticalAlign=middle;whiteSpace=wrap;rounded=0;" vertex="1" parent="1">
          <mxGeometry x="180" y="320" width="120" height="40" as="geometry" />
        </mxCell>
        <mxCell id="NQvpLb1irxG-lKRuX6CE-18" value="首行" style="text;html=1;align=center;verticalAlign=middle;whiteSpace=wrap;rounded=0;" vertex="1" parent="1">
          <mxGeometry x="110" y="170" width="60" height="30" as="geometry" />
        </mxCell>
        <mxCell id="NQvpLb1irxG-lKRuX6CE-19" value="首行" style="text;html=1;align=center;verticalAlign=middle;whiteSpace=wrap;rounded=0;" vertex="1" parent="1">
          <mxGeometry x="110" y="230" width="60" height="30" as="geometry" />
        </mxCell>
        <mxCell id="NQvpLb1irxG-lKRuX6CE-39" style="rounded=0;orthogonalLoop=1;jettySize=auto;html=1;exitX=1;exitY=0.5;exitDx=0;exitDy=0;entryX=0;entryY=0.5;entryDx=0;entryDy=0;" edge="1" parent="1" source="NQvpLb1irxG-lKRuX6CE-24" target="NQvpLb1irxG-lKRuX6CE-35">
          <mxGeometry relative="1" as="geometry" />
        </mxCell>
        <mxCell id="NQvpLb1irxG-lKRuX6CE-43" style="rounded=0;orthogonalLoop=1;jettySize=auto;html=1;exitX=1;exitY=0.5;exitDx=0;exitDy=0;entryX=0;entryY=0.5;entryDx=0;entryDy=0;" edge="1" parent="1" source="NQvpLb1irxG-lKRuX6CE-24" target="NQvpLb1irxG-lKRuX6CE-37">
          <mxGeometry relative="1" as="geometry" />
        </mxCell>
        <mxCell id="NQvpLb1irxG-lKRuX6CE-24" value="output 1" style="rounded=0;whiteSpace=wrap;html=1;fillColor=#f8cecc;strokeColor=#b85450;" vertex="1" parent="1">
          <mxGeometry x="380" y="140" width="80" height="40" as="geometry" />
        </mxCell>
        <mxCell id="NQvpLb1irxG-lKRuX6CE-42" style="rounded=0;orthogonalLoop=1;jettySize=auto;html=1;exitX=1;exitY=0.5;exitDx=0;exitDy=0;entryX=0;entryY=0.5;entryDx=0;entryDy=0;" edge="1" parent="1" source="NQvpLb1irxG-lKRuX6CE-25" target="NQvpLb1irxG-lKRuX6CE-35">
          <mxGeometry relative="1" as="geometry" />
        </mxCell>
        <mxCell id="NQvpLb1irxG-lKRuX6CE-44" style="rounded=0;orthogonalLoop=1;jettySize=auto;html=1;exitX=1;exitY=0.5;exitDx=0;exitDy=0;entryX=0;entryY=0.5;entryDx=0;entryDy=0;" edge="1" parent="1" source="NQvpLb1irxG-lKRuX6CE-25" target="NQvpLb1irxG-lKRuX6CE-37">
          <mxGeometry relative="1" as="geometry" />
        </mxCell>
        <mxCell id="NQvpLb1irxG-lKRuX6CE-25" value="output 2" style="rounded=0;whiteSpace=wrap;html=1;fillColor=#f8cecc;strokeColor=#b85450;" vertex="1" parent="1">
          <mxGeometry x="380" y="200" width="80" height="40" as="geometry" />
        </mxCell>
        <mxCell id="NQvpLb1irxG-lKRuX6CE-41" style="rounded=0;orthogonalLoop=1;jettySize=auto;html=1;exitX=1;exitY=0.5;exitDx=0;exitDy=0;entryX=0;entryY=0.5;entryDx=0;entryDy=0;" edge="1" parent="1" source="NQvpLb1irxG-lKRuX6CE-26" target="NQvpLb1irxG-lKRuX6CE-35">
          <mxGeometry relative="1" as="geometry" />
        </mxCell>
        <mxCell id="NQvpLb1irxG-lKRuX6CE-45" style="rounded=0;orthogonalLoop=1;jettySize=auto;html=1;exitX=1;exitY=0.5;exitDx=0;exitDy=0;entryX=0;entryY=0.5;entryDx=0;entryDy=0;" edge="1" parent="1" source="NQvpLb1irxG-lKRuX6CE-26" target="NQvpLb1irxG-lKRuX6CE-37">
          <mxGeometry relative="1" as="geometry" />
        </mxCell>
        <mxCell id="NQvpLb1irxG-lKRuX6CE-26" value="output 3" style="rounded=0;whiteSpace=wrap;html=1;fillColor=#f8cecc;strokeColor=#b85450;" vertex="1" parent="1">
          <mxGeometry x="380" y="260" width="80" height="40" as="geometry" />
        </mxCell>
        <mxCell id="NQvpLb1irxG-lKRuX6CE-27" value="输出文件" style="text;html=1;align=center;verticalAlign=middle;whiteSpace=wrap;rounded=0;" vertex="1" parent="1">
          <mxGeometry x="360" y="320" width="120" height="40" as="geometry" />
        </mxCell>
        <mxCell id="NQvpLb1irxG-lKRuX6CE-31" value="MapTask" style="text;html=1;align=center;verticalAlign=middle;whiteSpace=wrap;rounded=0;" vertex="1" parent="1">
          <mxGeometry x="300" y="138" width="60" height="30" as="geometry" />
        </mxCell>
        <mxCell id="NQvpLb1irxG-lKRuX6CE-32" value="MapTask" style="text;html=1;align=center;verticalAlign=middle;whiteSpace=wrap;rounded=0;" vertex="1" parent="1">
          <mxGeometry x="300" y="198" width="60" height="30" as="geometry" />
        </mxCell>
        <mxCell id="NQvpLb1irxG-lKRuX6CE-33" value="MapTask" style="text;html=1;align=center;verticalAlign=middle;whiteSpace=wrap;rounded=0;" vertex="1" parent="1">
          <mxGeometry x="300" y="258" width="60" height="30" as="geometry" />
        </mxCell>
        <mxCell id="NQvpLb1irxG-lKRuX6CE-51" style="edgeStyle=orthogonalEdgeStyle;rounded=0;orthogonalLoop=1;jettySize=auto;html=1;exitX=1;exitY=0.5;exitDx=0;exitDy=0;entryX=0;entryY=0.5;entryDx=0;entryDy=0;" edge="1" parent="1" source="NQvpLb1irxG-lKRuX6CE-35" target="NQvpLb1irxG-lKRuX6CE-47">
          <mxGeometry relative="1" as="geometry" />
        </mxCell>
        <mxCell id="NQvpLb1irxG-lKRuX6CE-35" value="partition 1" style="rounded=0;whiteSpace=wrap;html=1;fillColor=#d5e8d4;strokeColor=#82b366;" vertex="1" parent="1">
          <mxGeometry x="560" y="158" width="80" height="40" as="geometry" />
        </mxCell>
        <mxCell id="NQvpLb1irxG-lKRuX6CE-52" style="edgeStyle=orthogonalEdgeStyle;rounded=0;orthogonalLoop=1;jettySize=auto;html=1;exitX=1;exitY=0.5;exitDx=0;exitDy=0;entryX=0;entryY=0.5;entryDx=0;entryDy=0;" edge="1" parent="1" source="NQvpLb1irxG-lKRuX6CE-37" target="NQvpLb1irxG-lKRuX6CE-49">
          <mxGeometry relative="1" as="geometry" />
        </mxCell>
        <mxCell id="NQvpLb1irxG-lKRuX6CE-37" value="partition 2" style="rounded=0;whiteSpace=wrap;html=1;fillColor=#d5e8d4;strokeColor=#82b366;" vertex="1" parent="1">
          <mxGeometry x="560" y="240" width="80" height="40" as="geometry" />
        </mxCell>
        <mxCell id="NQvpLb1irxG-lKRuX6CE-38" value="Partitioner 分区" style="text;html=1;align=center;verticalAlign=middle;whiteSpace=wrap;rounded=0;" vertex="1" parent="1">
          <mxGeometry x="540" y="320" width="120" height="40" as="geometry" />
        </mxCell>
        <mxCell id="NQvpLb1irxG-lKRuX6CE-47" value="output 1" style="rounded=0;whiteSpace=wrap;html=1;fillColor=#fff2cc;strokeColor=#d6b656;" vertex="1" parent="1">
          <mxGeometry x="727" y="158" width="80" height="40" as="geometry" />
        </mxCell>
        <mxCell id="NQvpLb1irxG-lKRuX6CE-49" value="output 2" style="rounded=0;whiteSpace=wrap;html=1;fillColor=#fff2cc;strokeColor=#d6b656;" vertex="1" parent="1">
          <mxGeometry x="727" y="240" width="80" height="40" as="geometry" />
        </mxCell>
        <mxCell id="NQvpLb1irxG-lKRuX6CE-50" value="HDFS 文件" style="text;html=1;align=center;verticalAlign=middle;whiteSpace=wrap;rounded=0;" vertex="1" parent="1">
          <mxGeometry x="707" y="320" width="120" height="40" as="geometry" />
        </mxCell>
        <mxCell id="NQvpLb1irxG-lKRuX6CE-53" value="ReduceTask" style="text;html=1;align=center;verticalAlign=middle;whiteSpace=wrap;rounded=0;" vertex="1" parent="1">
          <mxGeometry x="620" y="150" width="120" height="41" as="geometry" />
        </mxCell>
        <mxCell id="NQvpLb1irxG-lKRuX6CE-55" value="ReduceTask" style="text;html=1;align=center;verticalAlign=middle;whiteSpace=wrap;rounded=0;" vertex="1" parent="1">
          <mxGeometry x="620" y="232" width="120" height="41" as="geometry" />
        </mxCell>
      </root>
    </mxGraphModel>
  </diagram>
  <diagram id="3rOceR_w7g6ZRJv06jZr" name="buffer">
    <mxGraphModel dx="1434" dy="844" grid="1" gridSize="10" guides="1" tooltips="1" connect="1" arrows="1" fold="1" page="1" pageScale="1" pageWidth="827" pageHeight="1169" math="0" shadow="0">
      <root>
        <mxCell id="0" />
        <mxCell id="1" parent="0" />
        <mxCell id="F-WN9qBcaST1U_JZLYBf-2" value="" style="endArrow=none;html=1;rounded=0;" edge="1" parent="1">
          <mxGeometry width="50" height="50" relative="1" as="geometry">
            <mxPoint x="21" y="200" as="sourcePoint" />
            <mxPoint x="21" y="80" as="targetPoint" />
          </mxGeometry>
        </mxCell>
        <mxCell id="F-WN9qBcaST1U_JZLYBf-3" value="" style="endArrow=none;html=1;rounded=0;exitX=0.733;exitY=0.767;exitDx=0;exitDy=0;exitPerimeter=0;" edge="1" parent="1" source="F-WN9qBcaST1U_JZLYBf-5">
          <mxGeometry width="50" height="50" relative="1" as="geometry">
            <mxPoint x="341" y="240" as="sourcePoint" />
            <mxPoint x="341" y="80" as="targetPoint" />
          </mxGeometry>
        </mxCell>
        <mxCell id="F-WN9qBcaST1U_JZLYBf-5" value="结束" style="text;html=1;align=center;verticalAlign=middle;whiteSpace=wrap;rounded=0;" vertex="1" parent="1">
          <mxGeometry x="297" y="177" width="60" height="30" as="geometry" />
        </mxCell>
        <mxCell id="F-WN9qBcaST1U_JZLYBf-8" value="开始" style="text;html=1;align=center;verticalAlign=middle;whiteSpace=wrap;rounded=0;" vertex="1" parent="1">
          <mxGeometry x="6" y="177" width="60" height="30" as="geometry" />
        </mxCell>
        <mxCell id="F-WN9qBcaST1U_JZLYBf-11" value="写入&lt;span style=&quot;background-color: initial;&quot;&gt;记录&lt;/span&gt;" style="text;html=1;align=center;verticalAlign=middle;whiteSpace=wrap;rounded=0;" vertex="1" parent="1">
          <mxGeometry x="40.5" y="80" width="60" height="30" as="geometry" />
        </mxCell>
        <mxCell id="F-WN9qBcaST1U_JZLYBf-12" value="写入&lt;span style=&quot;background-color: initial;&quot;&gt;元数据&lt;/span&gt;" style="text;html=1;align=center;verticalAlign=middle;whiteSpace=wrap;rounded=0;" vertex="1" parent="1">
          <mxGeometry x="260" y="75" width="90.5" height="40" as="geometry" />
        </mxCell>
        <mxCell id="F-WN9qBcaST1U_JZLYBf-14" value="" style="rounded=0;whiteSpace=wrap;html=1;fillColor=#dae8fc;strokeColor=#6c8ebf;" vertex="1" parent="1">
          <mxGeometry x="21" y="120" width="99" height="60" as="geometry" />
        </mxCell>
        <mxCell id="F-WN9qBcaST1U_JZLYBf-15" value="" style="rounded=0;whiteSpace=wrap;html=1;fillColor=#dae8fc;strokeColor=#6c8ebf;" vertex="1" parent="1">
          <mxGeometry x="280" y="120" width="61" height="60" as="geometry" />
        </mxCell>
        <mxCell id="F-WN9qBcaST1U_JZLYBf-16" value="" style="rounded=0;whiteSpace=wrap;html=1;" vertex="1" parent="1">
          <mxGeometry x="120" y="120" width="160" height="60" as="geometry" />
        </mxCell>
        <mxCell id="F-WN9qBcaST1U_JZLYBf-24" value="" style="verticalLabelPosition=bottom;verticalAlign=top;html=1;shape=mxgraph.basic.donut;dx=25;" vertex="1" parent="1">
          <mxGeometry x="510" y="80" width="140" height="140" as="geometry" />
        </mxCell>
        <mxCell id="F-WN9qBcaST1U_JZLYBf-26" value="开始结束标识位" style="text;html=1;align=center;verticalAlign=middle;whiteSpace=wrap;rounded=0;" vertex="1" parent="1">
          <mxGeometry x="535" y="22" width="90" height="30" as="geometry" />
        </mxCell>
        <mxCell id="F-WN9qBcaST1U_JZLYBf-27" value="" style="endArrow=none;html=1;rounded=0;entryX=0.5;entryY=1;entryDx=0;entryDy=0;" edge="1" parent="1" target="F-WN9qBcaST1U_JZLYBf-26">
          <mxGeometry width="50" height="50" relative="1" as="geometry">
            <mxPoint x="579.5" y="105" as="sourcePoint" />
            <mxPoint x="580" y="65" as="targetPoint" />
          </mxGeometry>
        </mxCell>
        <mxCell id="F-WN9qBcaST1U_JZLYBf-39" value="" style="endArrow=classic;html=1;rounded=0;edgeStyle=orthogonalEdgeStyle;curved=1;strokeWidth=4;fillColor=#d5e8d4;strokeColor=#82b366;" edge="1" parent="1">
          <mxGeometry width="50" height="50" relative="1" as="geometry">
            <mxPoint x="590" y="60" as="sourcePoint" />
            <mxPoint x="670" y="120" as="targetPoint" />
          </mxGeometry>
        </mxCell>
        <mxCell id="F-WN9qBcaST1U_JZLYBf-40" value="" style="endArrow=classic;html=1;rounded=0;fillColor=#d5e8d4;strokeColor=#82b366;strokeWidth=4;" edge="1" parent="1">
          <mxGeometry width="50" height="50" relative="1" as="geometry">
            <mxPoint x="20" y="110" as="sourcePoint" />
            <mxPoint x="120" y="110" as="targetPoint" />
          </mxGeometry>
        </mxCell>
        <mxCell id="F-WN9qBcaST1U_JZLYBf-41" value="" style="endArrow=classic;html=1;rounded=0;fillColor=#d5e8d4;strokeColor=#82b366;strokeWidth=4;" edge="1" parent="1">
          <mxGeometry width="50" height="50" relative="1" as="geometry">
            <mxPoint x="341" y="110" as="sourcePoint" />
            <mxPoint x="280" y="110" as="targetPoint" />
          </mxGeometry>
        </mxCell>
        <mxCell id="F-WN9qBcaST1U_JZLYBf-42" value="写入&lt;span style=&quot;background-color: initial;&quot;&gt;元数据&lt;/span&gt;" style="text;html=1;align=center;verticalAlign=middle;whiteSpace=wrap;rounded=0;" vertex="1" parent="1">
          <mxGeometry x="640" y="50" width="90.5" height="40" as="geometry" />
        </mxCell>
        <mxCell id="F-WN9qBcaST1U_JZLYBf-43" value="" style="endArrow=classic;html=1;rounded=0;edgeStyle=orthogonalEdgeStyle;curved=1;strokeWidth=4;fillColor=#d5e8d4;strokeColor=#82b366;" edge="1" parent="1">
          <mxGeometry width="50" height="50" relative="1" as="geometry">
            <mxPoint x="570" y="60" as="sourcePoint" />
            <mxPoint x="490" y="120" as="targetPoint" />
          </mxGeometry>
        </mxCell>
        <mxCell id="F-WN9qBcaST1U_JZLYBf-44" value="写入&lt;span style=&quot;background-color: initial;&quot;&gt;记录&lt;/span&gt;" style="text;html=1;align=center;verticalAlign=middle;whiteSpace=wrap;rounded=0;" vertex="1" parent="1">
          <mxGeometry x="440" y="55" width="60" height="30" as="geometry" />
        </mxCell>
        <mxCell id="F-WN9qBcaST1U_JZLYBf-55" value="" style="endArrow=none;html=1;rounded=0;fontFamily=Helvetica;fontSize=12;fontColor=default;entryX=0.206;entryY=0.36;entryDx=0;entryDy=0;entryPerimeter=0;exitX=0.046;exitY=0.277;exitDx=0;exitDy=0;exitPerimeter=0;" edge="1" parent="1" source="F-WN9qBcaST1U_JZLYBf-24" target="F-WN9qBcaST1U_JZLYBf-24">
          <mxGeometry width="50" height="50" relative="1" as="geometry">
            <mxPoint x="490" y="160" as="sourcePoint" />
            <mxPoint x="540" y="110" as="targetPoint" />
          </mxGeometry>
        </mxCell>
        <mxCell id="F-WN9qBcaST1U_JZLYBf-57" value="" style="endArrow=none;html=1;rounded=0;fontFamily=Helvetica;fontSize=12;fontColor=default;entryX=0.87;entryY=0.165;entryDx=0;entryDy=0;entryPerimeter=0;" edge="1" parent="1" target="F-WN9qBcaST1U_JZLYBf-24">
          <mxGeometry width="50" height="50" relative="1" as="geometry">
            <mxPoint x="613" y="120" as="sourcePoint" />
            <mxPoint x="663" y="70" as="targetPoint" />
          </mxGeometry>
        </mxCell>
        <mxCell id="F-WN9qBcaST1U_JZLYBf-60" value="" style="shape=stencil(lVfbcloxDPwaXjWWfNVzmv5HZkIKUxoyhN7+vjplfIJ8YANvB6O1pdVKllfx4X3z9LZeSXg/Hvbf17+3z8fNKn5ZiWxfN+vD9mhfq/i4ig8v+8P622H/8/X59PvtabKcvn7sf007/DnhYqWWJpSEv6eVRFL/L3w92e+2r94+R2fP3FeuAaI/gBsVfEIUB5BMqUFAyQ4QmQQBGrXgAUqcrgOSUKuepEwMTkhK1buUA2QpW9Ce1lwoh+uAkqh4lopQZgBoVH0MxXgr1wHVhFAcoEYqwKWqpM0DlJJcB2gbWVKhAKTBIVDwmdNEAURtRwxy1UyaASBRUg+oUK6tUWQP0O7kZUAYM2eAhngVkjQCVKE2wgKQgb5Na20IukExZat5GVlCQad5v7M8MFCfAdirTyMJOGEqsMEl7pm5DMhjyTWrWlRyQuzF1xos6hqIfdCtkiLAQq0TAKi1FUp1dKmgeogLl0x8qEYr1TTSmkDiJjH7LmBnRgwY+r1JIyKXypgHc5IBrWrS8CwpZqmZx8MJiltfpuA72Vmruiym0rV2dkQFNGVdRN1Ikb5j76VnNKEuYJeWLBKBGtMEWDRXBIiWuUGuRgNItWiX/wxgDEhjUVtqBLAkC21MFyWIgcs4bZTYo7oMYAqeVrvsGcSQx5q2bhtBuw+UfEmnRBnah7umHya+a7ziPq3dOL/N/eTGAZH7gHrjBBpI/f54wuU+d83h9uv3sqbHKhO4e+59ZHYejkit3xfdPFAFobINqmWwF3B/cO1j7Ic96lrm7TC7fGJvw1a6wx+r92HQxvHGeSa4jc6Y+3a3ZWt6i9wlhvtfU5/Y28fH0+1lu9udXn7n/49PPVs6PRPj4z8=);lineShape=1;strokeColor=#3399FF;align=center;verticalAlign=top;fontFamily=Helvetica;fontSize=12;fontColor=default;fillColor=#dae8fc;" vertex="1" parent="1">
          <mxGeometry x="523.9005405209498" y="109.52449922554541" width="2.5978140123084668" height="11.131087298221184" as="geometry" />
        </mxCell>
        <mxCell id="F-WN9qBcaST1U_JZLYBf-61" value="" style="shape=stencil(nVjLbhsxDPyavRJ6kZLOafofAeLURl07cJy2+fvQdbW2qN0p0NvGq1k+ZiiSmeLD2/bpdTMF93Y+Hb9vfu2ez9spfplC2B22m9PurE9TfJziw8vxtPl2Or4fnq9/vz5dTl6efhx/Xr7w+4rzmTxfUMF9/P2Fqvz54ev1/H536M8n152v5BI4X6iU/vtCMa4DgqOaOkBIFBkAIgXpANFTRha4vZ4BhSQDQKHkO0BKJGUdoA5w6AGVMshSZIp90JyIEaAS9zSw8lDXASlS6S1IbMwvAwoFAxAqYR3AgVyfpezIAQucqfbSyEweWFCPkwFU8iDo7MnnDlBic3IZMCdxBggFtw4oymsPqI4SCLqqhd6lypSA+LzTLJqKkyavNROpL+maiUGa9HUyQRRi4FPVijQu1SbgZYCjEC2gAEDRGu3FdJeHZYRvRN2bQFzrzVeGIICFnAbqNE3IQmjqvCcCMKd6zYY5gWpSC9nEwO1+Xgbw4FJqRbUMKJaIGpvkl3kItqoVgFwqmhO2gAhaUNUONQAEAQYxadAB6Vsv/GTT6pG+VWoDcR5ZUIBRa2737ZpLYajRgINOg7w9UKumVcQCMgCUbDuEAirQkkpD8gBABaQ8DNcG4xK14ist0WsFZIPOVABxeYwBA4QpDPWQcVu04nNwAGKdNvoYlBkPpJGkiXkGJAzQmaznoTg8z2iH6gFZYGuPAw+X3o2GOFVOz4PoOAGYDmK1JHqfg6BDsIMo457lq+WBGaZVJ2E7xLnWk5YB87U1z5VMDmTJa03395KOuhWodZjWlRjUdcVuDzqsM5qM21R7tw0w0LYfbj2oimFUCpBiZ0cGD513wyoDNT3Mww5ep9HuDFr1wBluW9TtOOpQmaL9OhqEdRKq9jiQgeos2Vg9Oj/sbK75tyZ8s704EqR7abzfqIJ1Ivb7Hk5F/7E1/+O8PtxW9Jfdfn/d8O/f25Vef7r+OyA+fgI=);lineShape=1;strokeColor=#3399FF;align=center;verticalAlign=top;fontFamily=Helvetica;fontSize=12;fontColor=default;fillColor=#dae8fc;" vertex="1" parent="1">
          <mxGeometry x="527.864969106458" y="106.49569554089584" width="4.196346532200469" height="17.812789832059167" as="geometry" />
        </mxCell>
        <mxCell id="F-WN9qBcaST1U_JZLYBf-62" value="" style="shape=stencil(lVjbUhsxDP2avGps2ZbtZ0r/gxlCyZQSJkAvf1+lqc1KuxyGt03Wx9bl6FjaXbp6vr952u84PL+cjt/3vw63L/e79GXHfHi8358OL/q0S9e7dHV3PO2/nY6vj7eX308355Xnpx/Hn+cdfl9wkan3M4rDn///UAn//vh6Wf9weFyuzxTZrBcKCayfr+f+kbgCQKPiAJUSvw9Qg1s1AE5UEKB4k7hTyQDQKEYDSHmcuQlIkVKwgE4Coqr7xWwAOVEDPiSh1iygUmwA0KjbKJUwMrkJyExVLCATg0yrAckyqTQY1qInWICkscU2oFK3YZU6yLIJkEzBOl3j8GoTUAMl63QtlECmq3i21jq82gS0RNGa1PRMkLhWKVundQsGieuaV2tSE2JwQo9eAlqHTvdCxZKvMzEIa+/EtoB0i45EIAQK1usu1CM8otgK6pUasmm+noBGFZBJTY7FAjpllIhI0j0AmaSpbtaHRRy2EUrwuDoCOKFkKyubEP2Uzj37MAmuiFRWiQA+1OKVSVPdgG7oCc2dUCA3avO6oYCAilSvFBelTBkVafEyoICI8jCpswAgk7rqhnhAQvxe5yHjCpp5XURJkG50f/HqmQX5MLm5oEYp0CRf1I0yAshGjTJymlfU6FQB+TRx7qZWQEdcKkMalwAgG0o+WQEKurRUt9hHqQPyaQHV4gERleinARrWFfkCyIP0FSAOwm8DVJdslFQ9GeRBxN9BKp6oFxC909zFG2EBaX/kTKoN3nJ5lbgPuo1zT2bJp/0M7Prq6LVnxyQkgN4pjSBOQBxebQPC6FNn19dhiXIlsXkoKsbgBG3Xs3VaO1dUD6xabWVGW1MkZMwklnxZW100EITh4gQEPAXVccnOgaDAjinO22AxoyDyxeDVW6cgBJAhQosxCzJj7LaY45DY65RnQyQwpKt+Txt1IDDBhyfCGTGMa2YsD0Nu3rHdTQEaXLA7U/bLE4xkC255RGOSnyXVd2CM+Lb2gw6ScvTLUevvO9QAZ0LlSGhufUa0Zwo+URXNCTxY8sYDNNR++mvHh+v14e3Tyt3h4eHyZWb53n+K0b8un3HS9V8=);lineShape=1;strokeColor=#3399FF;align=center;verticalAlign=top;fontFamily=Helvetica;fontSize=12;fontColor=default;fillColor=#dae8fc;" vertex="1" parent="1">
          <mxGeometry x="531.242268359261" y="102.90501930915622" width="5.437828635878473" height="22.07881285814095" as="geometry" />
        </mxCell>
        <mxCell id="F-WN9qBcaST1U_JZLYBf-63" value="" style="shape=stencil(lVjLctswDPwaXzEkQBLkOU3/IzNxGk9dO+Mkffx9obqURcjeTG62hCWJ13Khjdy9Pj+8bDccXt9Ox+/bX7vHt+eNfNkw7w7P29PuzX5t5H4jd0/H0/bb6fh+eDz/f3mYLKdfP44/pxV+n3ExUg4TisOf/08o878HX8/2+91hac/EPNhnSgXYC8U02DfiBuwTBRnPI5QCAGSqeQQoFXQipVYHADMl4LJFhHUEKHEFgEwaB4AwCXBaAsXxSKIkwAdJJOORUqQKoiTVhzVlynobkAK1MaypUkkAYE6Pic4M82DrtTICMhW5DciBdIxSriQIID2IHVAiReB0VopjM5REDThdAuXR6WJHArVUxDutEYbV1itjv2nqS1wF2HrqAHYkUK2aKY7VWiMFUEvT67GWaqIEwmqvYxsBhSrwoZrT7kitt9RVQLNqHXdoDFmjqae9lqHTbaatBQD5EEPoC84I8xqUq22Rx5azU1bk9YrJWiVFTsxcPQMaJbSDsX32gA8yp+46ucThOsLKb3WmClqoMgX2AAEtpI1K8GEqwGtrmLhKBIqrak/sItWoXm2HMvK3pUYzcNqIxqXaaADsUFfcZwB0aVlLOt5oxlWoXANJXAFQ9Ul3cXGkCI5kQSzNA1CULK81+rBmBLBSczuUTgw3AS7TSglc7W1FZfYEqQ07gLgjGfXgsEr1AAX9YFzaggc04IOVhs+0AVCLyor6jNtALdV1LVkqUbV+FmD3qL8hBGqBUjozzoBADHwoJnfG8q7au/y62qjEo3iY7lFQraZnHAnYVcwg03kl4ox4EBknpeAACcr1JJ7I1FQaiJLpVAcoszS9pVy9iEudnq8DZmE7AwIcUSYxPZZGLnAGMjVfnBAVeD/YzON8SPYE+GADhjj1XWAeOK12YEhkHDxrTCMC0jPZqxORrpZvCKDe8ouxqQIfSifSxVyGtIb0iWeWGuYB6LfYC3MxWWZwntA57jK5IpUbugi5DMYZENJKHeI5wCZEduYMYmOxH8shwKs5ejYNcDjktbkALWJh9uYRtFfyA72FCqxeOisvzJFW6zlfmKOLhmpy5ohxm6+ZANWB9Yh6XxXZRz+FRMiFn/6686G9/bh8Snra7ffnL1HL9/7Tkz06f7aS+78=);lineShape=1;strokeColor=#3399FF;align=center;verticalAlign=top;fontFamily=Helvetica;fontSize=12;fontColor=default;fillColor=#dae8fc;" vertex="1" parent="1">
          <mxGeometry x="535.2886244592654" y="99.98624980062783" width="6.116626306764966" height="22.165012543796006" as="geometry" />
        </mxCell>
        <mxCell id="F-WN9qBcaST1U_JZLYBf-64" value="" style="shape=stencil(lVjZUtwwEPyafZ3SPdIzIf9BFUvYCmGphVx/n3Y2cqyx3RRvi1Fbc3XPjA/x5vXx7uV4CO717XL+evx5un97PMRPhxBOz4/Hy+kNvw7x9hBvHs6X45fL+fvz/fXvl7vp5PTr2/nH9IZfV5wP0tKECu73vydS/N8Hn6/nn07Py/NJvBvOq2gk54s4Hd8f+43bgCptBAQnkQBCkOhHQJHkCCBLHF2IXlImgCqpjIAsWvYBeF8wgCa+EkCUOvqQvDTiQyxS6ghIksI+IAVxY55TE9cIoHQDOiAjcSTT0/vyCCiiug/I3pZGbqLEBxiQRqdLECU+wAAfR0CWym6olg2lSiZ0KL6X2kwH5J4Bsk2cpl7w24AmeawlVYmklvC+NIa1OnGklhRRH52uQRJhXE3WaTypxOlaxYURoJ20m4DmuwEd0Fwvlm0AgjgSqIVeLNuA2gk5AzINa2tSxvJupbN8D9DMDSqBEAgAb26Akczp+X0LQCN8QJRsWOEVKQ3kwXB68oqVhm7c0EhYa7RyD4ASkypM8hbgiXprlao2SpGEFfxSA1DaHwCoJg+FFh8YZ8QYxZeJSXA6mFpKVMhASNMUAQikNJC4ugI4kumJoiuAZ5xOotkCKEXVChmi5InTKAQbpSyNUNS7WRkXmWN9F1dk4wQCx1RAVypQ6cAEk9OKcqyzQ+hCsABmEtTYKNkiDtuI3EeF5RXECdRrW9kUiU1gRFqFqTDOfRgQViZFKvhovN447bqSbAOK5RxIxaQMw0M1bTF3vd2bZ+IoNAh0ZQA0wdEHxI3JQEIQDaD0aXkbkOzEpHM97g2idZxnEOhCSiO5TvoZUOi0EbXzZQbEPnRtA5ItjeK69OyN637MdFaq31gI4uh0hn6zpWbVUrLr5bgNiH0jmef7TEcs7Hl5VFdkJjOxbDbTWGro6oepb/QBW0sgUfJZwihMkW9B3ltxxepHdclegN1SSZCSbYpYfwNLm60Lpf1n1X04m3G8muNsTHeSoznOGjpKdCSBo6QJtv07qqbR7hgoZxKZbCdb12tpW0n7Grg4zvqZldF3lgs7DzpaBH41obquwrtVbK1ns50PUuwnm8BY8tFPPO+ex4//35MeTk9P189Ry//b7094dP12FW//AA==);lineShape=1;strokeColor=#3399FF;align=center;verticalAlign=top;fontFamily=Helvetica;fontSize=12;fontColor=default;fillColor=#dae8fc;" vertex="1" parent="1">
          <mxGeometry x="539.0773964737116" y="95.68363366741977" width="5.922710462944431" height="22.18094454710517" as="geometry" />
        </mxCell>
        <mxCell id="F-WN9qBcaST1U_JZLYBf-65" value="" style="shape=stencil(lVjbbtswDP2avBKSKOry3HX/UaDpGixLirTd5e9HL1Nm0vYZCvTBVXhMijw8orzju9fnh5f9LoXXt8v56/7H4fHtecefdikdTs/7y+FNn3Z8v+O7p/Nl/+Vyfj89Xv9/eZgsp6dv5+/TG35ecbGQQqa/8OvvCkn7s/D5an88nOb2bfw87DO1vm2fAvVu7BvlAOyZerXxJAogoFQpOkDBgE7VRqQxZt4GcKLIFqB7zgCQiaMFdMoIUCnYPegrQtkG5ECxWECjCjzkTNGGlJkSAmiZrIdcqcZtgETq1sO0IgCQqVsmiZCAOkilbqkqjRh4KIlEDEBXGKS11JHEG0CoAC7VRNlyqfSxsg6QkcQBqAzZWjs1Sz59BUpry5QcoFNAAPFpbUp40KKt+RZtuB96XAAa9NC1gWwdehhkWQd0SsECdFcgpBgCBYcog8BbLtiWuldqKKZK2ea1a4+CQvSFbHQsG5oUbh7QKqicKqPN6ywP64joO2JyAdJU68j7DMAJdkRgnyZBLcTjfbNCFARI/gjSUiMpq9nLsbKpAt2ohbIVGq0lol+91WkGYKB9jRd7yLhwKo3OA+MWWoilekiATJrEsAgJykCjwj6tBQH6GC1mhUPDiQKq20MlAYXTkNz0oysZeRB/LE7Sg7XPh9Qhl5pGHDygA3orNeKi45CSKfncPKMAwS3ams9SQ/3Ai003yNYPA/SYdUqm9Baw6VL8KafqCQHiDwitTAItWvSUs9TQyiCpLMHTu90EfWsActOGqm0GdRAe7J9NG4gaOrJ5DwEeQTomJutBE41ORR1E3TFaeCjVOiB6IZM+5Hl9mNaGtB6kDMKvAxbUkAQHUdYkWmpM0zIA6Pjv9pBvr1gHyJiPbvO97gpdaqKvtN4gBGQpLpQv4dkhivegQaKDXe9tTjUSHuKijiI2JL3JVaB8hYqNSF1WxAyqbtDFM6I3F3hzDX6OSZCmi/kzjtNxwzy7yW1MvBuxsw0mQClKVJIzR6dg9twJY2GjTkGcObrcNp8ZPKJ2L7sBXndiHJmYBY8yyX62w4oYM9Xm7BEpta8czSJFFP9HP9j8114f/n0dejocj9ePS/Pf/dckXbp+ieL73w==);lineShape=1;strokeColor=#3399FF;align=center;verticalAlign=top;fontFamily=Helvetica;fontSize=12;fontColor=default;fillColor=#dae8fc;" vertex="1" parent="1">
          <mxGeometry x="543.1163174715216" y="92.7546056320013" width="4.7925044531565915" height="21.42079456063068" as="geometry" />
        </mxCell>
        <mxCell id="F-WN9qBcaST1U_JZLYBf-66" value="" style="shape=stencil(lVjLctswDPwaXzEk+D6n6X9kJk7jqWtnnKSPv++qLm0TkjaTmyxzCXABLEBtwt3r88PLdqPu9e10/L79tXt8e96ELxvV3eF5e9q94WkT7jfh7ul42n47Hd8Pj+ffLw/Tyunpx/HntMPvM84HqX5Cqfvz/41E9+/F1/P6/e5wuz5LDcP6JM6vr1cnrgzrm7hE1gcpxp8gLRBAFe9GQJOY1wFB+98dgCMkcuRQ+wk7IHjRtg6IQdJoIWRpkQCqpDgAoooSlxIsjC7FLIXQmoq0kaXkpBCXspc2xi1FCcSlnKTWEVC6k8uAJj4NgOwk6DqgeEk6AgLNpZJs4HLhFqrENgBg0xGWqkoeIw2boRIAXDKAJpmwVIvoyNJkk1hozrJUMwdgv7Gia+OALH48A7aoJA4N+40uTVuQmgagGQtFPIlDqzZb8cYTWuFAiRbQiGq0YGmdTkXqYSIxWgATgXpRoVtAIQDUQ5q5RAKH9PbVAhwRMiRzmdGqxKUSZy6h4kgcADAFhMgwmSlZnDkDKo4EDofO5gxwktGqVpcAcCRbUV/eWEAT4yWqzQIqS75oexzeKAOUWaQj7aJIBFVLayWB8w6N3fiE0YBEDiaiKYjCAaUr4032FQZAMhleYZOpgJM2KwgWCITaNLkbHtayqc50gxGLfqDeAmjTyhKTpYklOGrOjHwT00SZPg1Aa7diqVRocu60X3pQ7Qm5Nm0U0xZTHzSXAZgiTVv0fSRaBqi00QKUREkJZWdbCnhTPpPpqBuZC35Kdq4EDY1ZCKJjumKsoy55W9Sp9uxanlxL72kXQKKdOkbbUmCTjYnRd6W7jLqFj+vZWsAwXQmtmOaNbASkN7ujpC7vFwDSm2QrbiRptKC5K/oyIFrpwz3KkzPM5Pu6w3Kgezleb2WFHEDtEJr6zLi43NndfdfZteXmBieJLg/mrJQa30PTlzvaddTeV51E4kzot+XrciYS0ZaL46pl8+aDZmNLxdHBpVnRdX3yWSbS27EFkWDE46JtqcykueKiPwss+7Tw6U8XH67Hw/U7ydNuvz9/Zrn9335XwavzN5lw/xc=);lineShape=1;strokeColor=#3399FF;align=center;verticalAlign=top;fontFamily=Helvetica;fontSize=12;fontColor=default;fillColor=#dae8fc;" vertex="1" parent="1">
          <mxGeometry x="548.1030022181536" y="90.3273404549364" width="4.987416334191683" height="20.481188825819466" as="geometry" />
        </mxCell>
        <mxCell id="F-WN9qBcaST1U_JZLYBf-67" value="" style="shape=stencil(lVjZctswDPwavWLAm3xO0//ITJza0zTOOO7194XqUjYgeaW+2RKXxLEAlhrCw8f+6X03eP44n45fdz8Pz+f9ED4N3h/e9rvT4Sy/hvA4hIeX42n35XT8/vZ8+f/+NK4cf307/hh3+HXBuUYhjSjPv/89oVz+Pvh8Wf96eNPro16fqTq4PlS9vycXAaBSaxpQiRMEFKcAPpJHJlXKQQMa9mEGCIkC8kGCVBQgMrV8HzAG3WtA7k+WAYm8DmvyFPg+IDAV7UMqlIEPoZDTJmVPCZgUAzl9Qs7UAgBUcjpxhXugFwHiYtLcK4EyoEYS8pkThEsg0zlR04DqKAKni6eYNSB2wi8DWg/iBCgU232A7Fc0oDF5EKVW7QktUQEmOWZi1ohMBZCptf56AgiZAL/H17ogRisRIFr2yZkehUlKzllAwXFlTdebOCynbjL55oiGAIFSsQCU69xmgEoV5HqssGoT0UCuBcDNAnjlBGOSbIFOEB+ipR/i6xglnQhJfgIjqMwJLmwBZKrBjhQBMAJI3ygW4DFdbVilbFcKItkoIWoslFymAABLVV36rL/bOEwiap8yy4BktYBYySBzzfXXNwDUN2qiOi85BGAKcwAiU+pqZKNJMqPK7ARYEFNr3BjWvNQsESClWbP01MBsT0xRU+PK+OVRLRVp5mKCfSY0cuYE37dYBkSq2ocybXFP0BhRVmKn47JkKlYnFgdVnMjIoH0YMwM62YI2Fk2EajRYaqSKO1mfgTeqDwkg8WAmK9E8cVSNbnVQe7NN2oownq1fUd5Sa7o4V6Q9WzW2cnfgPgY2Xk5mLRVfftgWAb5b8eyqRB5dxcjr3SW6gGzeTk2GCmwaeNflSH9lq7QZVu9MSmHp5SbXNq4Ptqtjc1zqdbrNWzfdbLYFU2jo07A9V67ZQblChf+/xa+slx/XTwYvh9fXyxeH2/f2E4M8unyeCI9/AA==);lineShape=1;strokeColor=#3399FF;align=center;verticalAlign=top;fontFamily=Helvetica;fontSize=12;fontColor=default;fillColor=#dae8fc;" vertex="1" parent="1">
          <mxGeometry x="554.1851539888448" y="87.42684358837363" width="3.410895942584891" height="19.49297777588082" as="geometry" />
        </mxCell>
        <mxCell id="F-WN9qBcaST1U_JZLYBf-68" value="" style="shape=stencil(lVjLchpBDPyavao0mvfZcf7DVcaBCgEXxnn8fbQhs97RQLu4waJGI6kl9ezkH962T6+bSfjtfDp+3/zaPZ+3k/8yiewO281pd9ZPk3+c/MPL8bT5djq+H54v31+fZsv504/jz/kffl9wrlIIM0r4z/8nVOK/B18v9vvdobcvqbNPxOG2vTBF3/+/IycA4KjGHpDJMQAE4twBxFPKAJDJlw7gmZy7DdCfU58jHymCoL0eiTtAWNJwHVDI9R5CJEm3AUEoSAeITB7EEDKFvm4xUgJpjd6mNWkaCgBoDIYZkTLIUvKtrg2QNQZQuFSIe2rkQAEcKQuJ8VAoAA85Uq0doDjKwEPhdoAFkKiCShdlTh9DZZilqg3qekBqLXu9Q5kt+6oyHpxJXbieTLWQADLpCcwQUEAFaaresk99RlCIUkmyBVQwNkpoWVwDKqyc9xaQETcSRbYAAR7yMoZWWYoIIEMdMmUwjBXABrBU5taRzOhTAIMpoEGblqs6mFDLaRJNpUN7cqtwzllABOQrhdLgAU3jKo05KwDacXODJRt0QP1QqFSbVgeCnrlpqJGJcYvGAYD6YWbO0KJwzmiZBnoHQI15bg0NVIAHnYzSH2k1qq4jXKP/2gViX6ZUhyBQUwc7v+dagiC05UYAEkB3A5K0jbMAPGSfLt5iCsFwuMbUkrgsLV0QgEwxtOm+AAR70MVrNrXuGFC4MKygjOdMCLaDsmuC5TqAbQelBNPqo90oyWEAWz0TExRxqlxzP/pUxCF6yxCDysQCjuRUjBhdyVCeuGEaaxoggFu7rMQ06jjlXl9oVesVaWk7x/Q64JH8ac21um8IsB/EEr7PsFVj+LrEdh5hCjkrMRhqGGnF/zBPoI11TYoxR12veicZc3RLKnZs4dmuZeG77FW62Nyg47ho9R2OVmlllA5OpivkrT2qlV6cXd+7n1Dh/ov5J/b64eMtwMtuv7+8RFj/bt8a6KPLGwf/+Bc=);lineShape=1;strokeColor=#3399FF;align=center;verticalAlign=top;fontFamily=Helvetica;fontSize=12;fontColor=default;fillColor=#dae8fc;" vertex="1" parent="1">
          <mxGeometry x="558.8606615660797" y="86.04749129760842" width="3.7799341935817536" height="19.2688443393692" as="geometry" />
        </mxCell>
        <mxCell id="F-WN9qBcaST1U_JZLYBf-69" value="" style="shape=stencil(nVjLctswDPwaXzHgmzyn6X9kJk7tqRtnHKePvy80Cm0BtDZNb7KMJQlgASy1CXevu4eX7cbz6/l0/L79tX887zbhy8b7/fNue9qf5WkT7jfh7ul42n47Hd+eH+ffLw+T5fT04/hzWuH3jPOROE0oz3/mN47q/OLrbH/YP2v7VJR9plCAfaJY9fqOCgOArOc1oFB1AFApRwWQMxYACJ5KUIAgRwI+hEwpa0AlX9cB0VHUO8RIzgNAJtY+xEYJ7JCYso5SihQbACQKTgNqX+I2oFLRicueKtghO8qGGZlaBoDQg9gBhakiQKTAGiBORwCQA+g8lEYeAEqwbK2BMmBryZQNIFMBYa3ig+ZSbVRAwUmUik5cS+QAvXPtf18Alz3XnC46cS1QBeSrTI4tAFWcxCTGYQdQcc2TC4MPIEptKFGJEgO2tmbJJ0sw8MExExuvCzFIdRsak7yBgNR9XAAaYF9jiiZzrcdhjX3JW0BDBTGQaRGH2whHzdkt3vvtWpGmagEOtQFva07ChMiRudfwInMBtTIejoSn3HSkoUgjiJI4bRqNEDyBI0lYywBAfC2lN99lkYI8TJ1paAMFtAFhn6VrhImTmPhsARVX0HtMFmHNuKqbAVwa9BrAqA2hBpIn03pDUaM5OgGGooaD11MawuoB+WKyekYyg/RMZFuitXRVd1sAidzRYZWxyAiQel4XgxflQQBmBpVLq1oDNCMeXNdQa4CsyZelCYB6CLE36wsgdP1xG+As+RJuZKJcq/ZBRBzqxpOY1omLF8LfBjgKegcRogm0SpfJ61YpuUcCSNR81fUg8hrKk+7hQq03lAY72OU60JAHdq5PJwTrD1Mdd3qZDLrW8HWJu8y5mkckMqw5w/QOapVxZ7FDinvzuz0Q+pXlao4S6wZfsVBwg7D9wF5GZv7MeUQ72fMgdyX43D4RTe/7oPi3ZPnBX8yF/7iZf2AvD9fPAE/7w2H+irD83342kFfzJ4dw/xc=);lineShape=1;strokeColor=#3399FF;align=center;verticalAlign=top;fontFamily=Helvetica;fontSize=12;fontColor=default;fillColor=#dae8fc;" vertex="1" parent="1">
          <mxGeometry x="564.940547290173" y="85.16083160222337" width="2.9528816966977205" height="18.59446180816525" as="geometry" />
        </mxCell>
        <mxCell id="F-WN9qBcaST1U_JZLYBf-70" value="" style="shape=stencil(rVjZctswDPwav2IIErye0/Q/MhOn8TSNM47T4+8L1aUiQMpm0umbbHFFHIsFyF26er6/edrvYng+n45f9z8Ot+f7Xfq0i/HweL8/Hc76tEvXu3R1dzztv5yOL4+3l99PN9PK6enb8fv0hZ8XXGwUZELF8OvvP8T1zx+fL+sfDo92PUezvlBsYH333+dAuUNALxaQKQOLEhMn60GgkgFAKHQLEGoIUKg2C2hUkEmdEhtAimPPTYAwZQfI1EBYJa4AnRraIVLPBiAJAxJFB6hUBQBk5HUAMlNEAGVOtQDBTitXbR5yo1zeBmQlgiVfiVQDACSqNqylUI8AUCkFA6iYfEXZaqNUNQ8gSmqAc7pqGIBJakCyYW3KLgQolGzFNU0lyIO+FhvWVge7NgFdhkYMQGeqIHEcAgUb116gE72P1zOgUkY2FV8QXckEuNHj4NoM6FD6WqHGHtDADi14Mi3isJ065WtcbQGUqWgNZw8QENeSBtkWYSpAN0pYAXRPYFLWDmH5qqlBQqM7ON3omWqCPoitOSVkQ043SisAoxLSinDcmJVkO9W8cjpRQYC64neCTUtfs3gfBPFbpUx8WCMwSZlTXFUXODsooK+oAXdoG+SLyAfx6qp7BhCl1ob4LgAFKFNbNd7JK+B0nRv5EoA6hBqQViYBp4uMCl5EqQMftIBa8AA0nmiJslON+p8BMkRlBujAAmpaNKyuaanTaHgI1G3iGmarTn3RAeLIzDYgDelddOoMhEwn1+Rau4yB5a3hO9iwVv0E0CUdbIvNtDYAQeO96pIln4ong7By9TWtM1kHbOUyLJ4BGe8ggwiLuRL5oAB35BDcgTYACZYoq7hbtiq7AqCGAthSY2IXAvBgzuIEIaCAOPjExXeUbwjpvF7VHs3SYzhanLLgocmPfHqMgyOfV271qILvrwZEfA4Nvt/iY24gcdbDwuRxHHxdzjA27qQUxhi3rdfE7JYn1GaJg1vOiGrRnxfwzDnlUT6yvvsmju3RzARvP3JXNS6nD0RTw+lOLzhZsfpDJObCP9yovLNeH16vb+4ODw+X25/le3/do39drorS9W8=);lineShape=1;strokeColor=#3399FF;align=center;verticalAlign=top;fontFamily=Helvetica;fontSize=12;fontColor=default;fillColor=#dae8fc;" vertex="1" parent="1">
          <mxGeometry x="571.165508482873" y="83.50789797053147" width="3.058785888092081" height="19.610688329580316" as="geometry" />
        </mxCell>
        <mxCell id="F-WN9qBcaST1U_JZLYBf-71" value="" style="shape=stencil(lVjZctswDPwav2JIggf4nKb/kZk4jadpnHHS6++7ritFhKzt5M0HVySA3QWond68Pt697HcpvL6djl/3Pw/3b487/bRL6fD8uD8d3vBpp7c7vXk4nvZfTsfvz/eX7y9355XnT9+OP85P+HXBJZPWzqgUfv/7RWL++8Pny/qnw/NivUYJNqwvUhtZn6fHTeu7xEDWm6TxPFEl6DYgJzEdAU0yA1TpYwQpSknbgBKkjyEg5kRiLlksjAATMwIwqSNAE42h4sTjkbRII2mtWUIcASg8OVKtkuoAyEqzVE1iHwFNWtwGtCS1jEyK0gsB2PS8GYCgSZYMSRxjKF0SicEQ4rhDBbuIGgBwXDrnjdTBwM2xcC2Ikhi6Shuz1FSMZKnbFOIMMAkMAEGOMViUTAoHgKuDQQ8khhiChJHf1kVJXhGEjWRCHtgWPUsaz9SbKIsaChqPhD21k8rBNsa8Ig/sSAbbUA9gkmuwSmd974m7rrk5xsUWjBzwDbcFACxNBXTuPk2lEoB6+qEQhe2QJI3065V6H3Yoo6p7EWX+XVeFyJR9EH1wacWezCxBneYBkcTQZsEsAIEZTVyxT0WJSGE0bQXoTNXroLM0Igj87awMdaDOlKU6wNyKt45UXZZgZYR8ZlcAbAebs77QQyV1aNW3FAA6mQVqn5izBDDygTnRA6iAUOnsg2Z1wHgSVhLtxGYgUV0VzjjA2zemRDYAfRiAPursO05RbQHKuAMMPXNAd11unjS3AHWkBhpvJQLC9OIqDVtgDSLbaniItNJ5pTh0DDYxAeDnmTxNadcBxTcUtJjEYpin+XkmgwkQTWvzzle4Vepq1EXeIjmS6tRvFqMuI5+uJKq8i+LS5ASklQLOl6SRS8rnH9xInN3jEexehmue69Op0jEx2uRCMwC2QEwgZi9RPIJRAzGPJ8LNz0gI2Ssa4xUhUvSXskpb9GpkTdN2W8u7W87sKHqOYuRm1fITd6BNp/jDBNpBzIcaJBGBxehnwsCZk6e6LNYz4pif5cP0zuF6cqLXb6DEBHFSdutZzwdR8hgvqseKZb6/Rkqdj76C+f96fHh/3/NweHq6vC5a/u/fD+Gny7slvf0D);lineShape=1;strokeColor=#3399FF;align=center;verticalAlign=top;fontFamily=Helvetica;fontSize=12;fontColor=default;fillColor=#dae8fc;" vertex="1" parent="1">
          <mxGeometry x="575.1882340649375" y="81.90544169183329" width="3.1437466201409885" height="19.184747904627113" as="geometry" />
        </mxCell>
        <mxCell id="F-WN9qBcaST1U_JZLYBf-74" value="" style="shape=stencil(nVddcxoxDPw196qxLX8+p+n/yExIYUohQ2ib/PvqejUgcbeEvh2H9yytVmt54Ie39dPragju7XjYf1/93jwf1wN/GULY7Narw+YoTwM/Dvzwsj+svh32P3fP0+/Xp3Hl+PRj/2v8wvuE40q+jKjgPqY3kWL6++LrtH672en1HNR67/qbeUAjdhpQKPIyIDpKXgEkpH+fmAcUqlkB2FEpy4DkyFcNyHCHxJSjJilQAztkT16zFBv5BgCFigakTCUuA4oEoEPKgQIoXCnkkwY0cqBwlamyApQEk66VoqZVPuHBDq1S0Ds0Twxy8M6R02JqTAxoakK7pqklYpCE/F1MTIUCSsJd7VCpeECTVE4XQoLMIKQSqZkOOvMwr6ZM9a4tUrMCH5MAWafYtXNJEyid9FyqthARdbWEZAAMK5c8Re0bo5oqACTKmtcqewJnkq6uBlChb0iHsTbXWiihri7W+yo2y5pmdkBN2gJ5tkl7IFepqzN1cL1FllqumB4NlDMGGC3F/omlkEwOLXf9LiUdjDTEekBIQmvUtEqQEbAkhcvBAhrYQaRhzFIAFQG8dYHR29ChlXrLX7RoAWfQ2EDJ0uoArSMg3wOQWcBoaSQaDQ+pu/vpDKqdhllAkA7WlZaDkoFaQ6KqQ8qJHAI4azNJ5g9Aq89WSyn02i+cclZL8WQL8+KjoJUh04lDw4YdTmT8KcC7Y2fwtN5TAGW+OqTHL4Aqe9udNybE0EepT46gwYoIj7jhapyEx4jkpqMJ8Ji6Opr9LTGYlhH3BTbh2dqEg07nazeR83o0Wkh2Rv431mfbkDgeGd0j35Evcz9bPsenSN2b2wUsF4ux63phNfzHferGenk4X95eNtvtdPe7/N9e9uTVdFHkxz8=);lineShape=1;strokeColor=#3399FF;align=center;verticalAlign=top;fontFamily=Helvetica;fontSize=12;fontColor=default;fillColor=#dae8fc;" vertex="1" parent="1">
          <mxGeometry x="580.7215371351376" y="81.23292174699844" width="5.002428665268836" height="19.998437001034343" as="geometry" />
        </mxCell>
        <mxCell id="F-WN9qBcaST1U_JZLYBf-75" value="" style="shape=stencil(lVfZctswDPwavWJIkODxnKb/kZk4taaunXGcHn9fqCplE5I3kzfZwgrXLggO4eFt//S6G9i9Xc6n77tf4/NlP4QvA/N43O/O40WfhvA4hIeX03n37Xx6Pz7Pv1+fJsvp6cfp5/SF3zOOmYJMKHZ/5n88Vffvj6+z/WE83tpXSqGzF0rAPhQqrv++eoz3ATG01wugUPQAUCj0HjgSl/sACVT7FIKnCEJKjlztAVoFAYBEuQ9Jg3TAQ2YbkiRKFQAKSV+lJORBlUqg2HvIgTLwUDLlnhjFk0/3AVWrzj0gEYOQqhaxB1QNCVRJAaZKVSiAHGqhVHpAoooA0l4vAGVXBgAm31dJg0QhaVklWcD/rLYBbLk0AQD5lBquWEAEHnIkv0o6Ig8qF9O43BSyDVABZds4AVNDAWxCClSwgFyvB+1MQB5k1ThPDlWprkJyUA8lkjN6qFhxOiqTBaBOa03WISWQg7K/rJLOSNOVfLZ9QJr2Tltt6Bph59QFG0EkimB8T1wzUyB/VCYxAE0LcEPL7qMFFDRcI4W+1Td1uMem9RhIoBPK12BUrXRhqAirah09YJSp5swmoI2Ah9ZnAXpEcc8NpbyApEWrZCTEkEwiq1NO4BgQR7X3kDIxkFBcTpzlpC5wYdJVQXoJqc8M+hC4HYLL8sBQc5za9rKsJwFSQ1c8k4N+AoXkl9cLwLVWbgOi7bSXth1sK8guG961ybPtgEqfQWry2DTXsej7HsARs5phEZ5Wrk2Tpf4koF/Oxs5tl9vu1mofbkvNNkEp9IPFweGYGlOu5mjZrm3Zv5qjg193fbGfR2NRWRKtvQfR69XAW3tYS9f6fi2mB2r/9O3oQ3t9uF7FXsbDYb7J3b63Vzf9a772hce/);lineShape=1;strokeColor=#3399FF;align=center;verticalAlign=top;fontFamily=Helvetica;fontSize=12;fontColor=default;fillColor=#dae8fc;" vertex="1" parent="1">
          <mxGeometry x="584.5030595709654" y="81.62248386590551" width="7.468149750980139" height="21.935484719389226" as="geometry" />
        </mxCell>
        <mxCell id="F-WN9qBcaST1U_JZLYBf-76" value="" style="shape=stencil(lVfbclsxCPwavzISSEh6TtP/yEycxlPXzjjp7e/LqefYBh+vJ28nMhsE7AJaycP769PbesXp/eOw/77+vXn+eF3JlxXzZve6Pmw+7Gsljyt5eNkf1t8O+5+75+Pfb0+T5fT1Y/9r+g9/jjhuVPOE4vT3eCLU6v+Dr0f77Wbn7Uty9oMKtldvnwulAQGdPaBTRR46yXAAVkoFAAY1D5AMPUihUTygUWIAGMQeUDKp3gYUpu6zVCyGDABKTR2gpjnRi4CaaVQPqHPllwHmwV+pDhrAgxYqPmhVYlBpHTHolmi024BmOfExtEostwGdSZsD9ESCAMZWT41e5ksuAkabmXOSAxN3ABikPktDqAO2GqD7Sg8rHLpSJ/aKtktmBLAQQwydCmDrSJS9RAduApbEWiJgAA+tx8JNAFC4JpRrBAiog1pTkRi0gBi0koS0KoxBra7BQ8UeSuwaRg1FAlIqnq1Gvgw8mL4kZClBTZu+CkdAAkH3TDkozrotUpwlcUQAqvRZXxdXUhC0lakELuV5xNxSXL6qg4As5WRJCUOxzO32lkZHELVSRW1Dr+7U4ZA7x3ghiAyaqxWiaAR0JGpLexjU5zwss8mSkqMLBZXQExUuom4g6mnihEI02JkmwFWzRACbo2HK9QrpZ5O6e76aRipeHsQDbO5VELTIFcAuCcjEVwTXBrlhO6F4bijP3XBZEcZvz43aqIGgbSmsYdsQuCZmY58vXLHFEcSgcVDbSlZBJ7PVwVNPTp1q0d5aa9gReT65YR9axp2tNVH1XezOWpyoeVLc2btT7MN4pKfIavxsyMSeQAx7C8dHBsPGUuYt8BQrMRJ9LG2ad7LlVhrnRyJGVGaqI9ijy+ca1+A79lfawvexZISnAg7Xspn1E9nkSsNTARfLHnhhe7zDhc+/UO/Y28f5Ofyy2W6Pr+nL3+Pz2Y6OT295/Ac=);lineShape=1;strokeColor=#3399FF;align=center;verticalAlign=top;fontFamily=Helvetica;fontSize=12;fontColor=default;fillColor=#dae8fc;" vertex="1" parent="1">
          <mxGeometry x="590.575839994119" y="81.64138748838258" width="6.726880215574983" height="23.699920224828798" as="geometry" />
        </mxCell>
        <mxCell id="F-WN9qBcaST1U_JZLYBf-77" value="" style="shape=stencil(lVjbchsxCP0avzKSEBJ6TtP/yEycxlM3zjjp7e+L6mptsfbp5G2zyzECzgGUDd+9PT+8bjcpvL0fD1+3P3eP788b/rRJaffyvD3u3u1pw/cbvns6HLdfjofvL4+nv18fumV/+nb40X/h1wmXAmnsqBR+/3tDKn9ffD7Z73cvl/ZMkSf7Qq0Ae6WUJ/vIVMJtAGcKaT5QoAo8cCVxEWTSdhuQI4U2AxrFCgDiY2CLgQGgUZpjYKUMsiqJWp0AmSmBoKVQ0RlQKcXbgJKoznUTiyEBQB2fF4CVEgRdE7FjRqICgq6FZI7BfAqghgYSmQA1UkMAI8LswXxGkFbVwZwB6D4BNVpcATJVBQChOsfQfSJAoxomQMuUQdAGaA4g1AA1mlKZBdQqMchS/70yA5QEKK4lLyA7ZAYAraTsAajNqLWltgJkQD71fa8fCQGEoqyCBgIyPZTg04o0bWTO7khCCiptgOoAmRgBmPLcZqwyiBpdos6D+QR66HJJHhCABxUKjkthEP46oFFZAaCAeAy0iyMJaGRWpqg+S4Ilyq7STA1QI4ZAYaXRjDRqE8UBChxy9rm5IBQOCDuy68bdJxCEFYLFA9Dq0DvjLOqLPNxiU1qJtCAJFUrVR62Ar6YIXvW+ihQRqWRfCKi5jwKKddc5TTYhMprUq+6qy7C/vjzo0PAyFs0DAohf+moexb8OiH49KZgbWUdrXACCdzJT2My+EmBac/D926JSwG9bRHVOq611DOrA1uncEmcxAC6l6tdEOyTqArZ8O3ozjiFapd0iGkcargNWlbb9HgkormaQXSAqYuvI4dIEZLTb6zH764DCnIbxdQl4bNY3zF0fZpieMPbT82WJUfrH7rjEiq8+Yzcd5gHuPOLHlJEH9UZ/dksVOLutT82Zo1Ydkx/8YQz26/Z5TMizPRJXrH5PwLdCY746nsGO1Y/rLoXw/B++N//X3h7Ol/Sn3X5/uuNffveXent1+ocA3/8B);lineShape=1;strokeColor=#3399FF;align=center;verticalAlign=top;fontFamily=Helvetica;fontSize=12;fontColor=default;fillColor=#dae8fc;" vertex="1" parent="1">
          <mxGeometry x="594.7429514472753" y="83.29227461807983" width="8.311476016558803" height="25.575222624950822" as="geometry" />
        </mxCell>
        <mxCell id="F-WN9qBcaST1U_JZLYBf-78" value="" style="shape=stencil(lVhbbhsxDDyNfwlJFCXxO23vESBOYzSNgyR93b7cGnJM7nqK/K3XHPExfGl3fPP6cPu835X0+vZy/Lb/dbh7e9jxp10ph6eH/cvhzZ52/HnHN/fHl/3Xl+OPp7vT7+fbRXJ5+n78uZzw+4TLjXQsqJL+nN4UqvXfiy8n+cfD06W8UmYn30n0urwdx14+Z9IEAI0keUCjKtcBnKip9yBTYgCoVLMHVFLgM3ca4gFjerUJqEytOgAzjFJVqt4HHlT6dYAwqTfJdGZgkjTq3QP6ZH4boCSeODEqAXGNqTQPaNSASa3NRJiAZsQBp3um7H2wIzIwqVcSb1JPpICHbkwXDxAaQMOwavGAkYhBLg3T4E0alTIwSTOJZ3oMyg0ABqlPb7VkKaCkU6LkiVCZXG6rUOreJjWqQY2aTSVo6LDkzAAJTug08lqYtEVAz5CIEKaLOGwjeKbChYqBuLbzVjYVECZLv+QTfAkcylehLDGuCTC3VESIq1ADbcA0ROYqMYir+ZCD00wJaLAoharWAluZ8aC+uy41Apy2gkkSARX4YAakEQEdlNASxBx9QGNUz+39IkqCTLJsHpEH1JkMoH6kWI3CRjNiZ7JcEsCDnSe+99kRKJfMxbIqagFhHTqz/wKgoIDGuh4U9pmRqdQIqHhCxD4z5rC/VkBtFVao4aOA1ldtBs8gm9TsnR6NEgDIiEwvcw9tGxLD2hVrKJHpjtvMsjH5XGr2BiwPtcXO1yp10DVsoRph28iwGVdbT7wGMeKABtvx1IdVKiXgNLe5gZ2XOAsrKKBl1fUaaoUlytYYg4Y09/Fr63rQwEIdpIYt5+zDags8WuLyqlWazoYA1hjDlaZQA6mR0/z7vAqMSeV2AUWiM8O5XuJ0GPBGk+IWwLAUVtubqQM5kWblno2HHTKv7m/E4PQy98Apnubc2q6Z6dm7OAOmWhwgCfI0Jivv4mjBszwI5ZXgMpXL+nzUICxLwkhOs9Vvy0ssxvMFaFt+VYt5XvquyX/s7v9feXt4/9Bwf3h8PH2nuPw/fpiwV6ePGvz5Lw==);lineShape=1;strokeColor=#3399FF;align=center;verticalAlign=top;fontFamily=Helvetica;fontSize=12;fontColor=default;fillColor=#dae8fc;" vertex="1" parent="1">
          <mxGeometry x="599.2512761543474" y="83.71771271259644" width="9.983850046311295" height="29.674444563700266" as="geometry" />
        </mxCell>
        <mxCell id="F-WN9qBcaST1U_JZLYBf-79" value="" style="shape=stencil(lVjbctpQDPwaXjXS0bk+p+l/ZCakYZqGDKG3v68oY4NkZ1vewNZat5XO2hu9e39+eNtuEr8fD/uv25+7x+PzRj9tUtq9Pm8Pu6P92uj9Ru+e9oftl8P+++vj+f/bw8ny9Ovb/sfpCb/OOGnUygmV+Pf5SqKc/l74fLZ/2b1e2SchTs6+UVdgn6l1Zy9CDTnopAFQSAFAlXL2GQhpA4BKuXpAJR4AMEiDh0EdeMiJ0nAAC7IBDzlTZw/oMOncKPsqmc8KPBSm7pPOlRLwUPLUpglQhDJIunRq6gGVtHwMqIlYHKCaBwSoNHwfaqECcmhMo3nAmOq2DsikvnF2pQgAVCq+ca3TAB46U/ZJd4Xk64NSABQaYOJGpuqpYY9QBgC77T0MpQ5CEmZin/UocOTGHMEMqNRBq0ej5JMYnQTU1bIWz+8xF24dwJQWgJ5BI8rU2HkxXeqwjpC4+8xFRfSzHDlmPYCHNq/GGTDv83WAxiG1RmiFgEBwq3RHAKNfqKtOlF8HNGI/pCORADLZCMWQhBIC2AyHPjBcx71TvwlgEY9yS0inqi+TRvzuCy4pPKiNaiNQI8ND68RNv/suQX4UEgeAkQ9Q47QklvRGMypUQw54gHqbavLfM6okObpAa6DZWlkAEprRSpJi1ojfNkERUHFINwN4sfETPqqtEb5zdqYIVg9B0NgQooVv4qL6str2FADIxgQ/QbZIChJldjuc7QoblxdHiqkHRsJyVoVX+gRJJjXt7BtnhS4gJDVR5qtU2sTfdYApIJ90wRrL5HxYG6YT0b43gS9Bicr0iHVAiqvPyoD0iYy4vlWm/bwOqPGktqyQmrY3DA4vQQmyVSTmILNgWV8z8WAXnVbbOveIw7aHVDUt4091hS9lC/mmkNcc32YSrmY8FgSmOm+eizla2BoJzVCgz1r5Yg61BXEO5igY4aktV/YgGknxBGTYV8nL5xcwjEbksHZlItK6fYuvYCZZUTw3fi34t739uHyaeNq9vJy/bFzfj58y7NL5M4je/wE=);lineShape=1;strokeColor=#3399FF;align=center;verticalAlign=top;fontFamily=Helvetica;fontSize=12;fontColor=default;fillColor=#dae8fc;" vertex="1" parent="1">
          <mxGeometry x="604.1120698169618" y="86.13735605067461" width="9.87999221019965" height="28.29473972967801" as="geometry" />
        </mxCell>
        <mxCell id="F-WN9qBcaST1U_JZLYBf-80" value="" style="shape=stencil(lVfZbttADPwavxLkcs/nNP2PAHFqo24cOOn196VqrOKlpAnyJssc8RpyZ3d693p4eNnvAr++Xc7f97+Pj2+HnX7ZhXB8Puwvxzd72un9Tu+ezpf9t8v55/Pj9ffLw2Q5Pf04/5q+8OeKk0IxTqjAf69vApX2/8XXq/3p+Hxr36jWwb5Qk237oJTaYC9KygBQicsIqFTTNkADtTRmoDAkLZTyCKgkIKQYKeoA0EipbgMSUxmLGoWSAkAmHT3EAtuQhWRsQwoUQJVy9mU1n1K2AYV7ih2QmXIGAKXIIyBSQx4y1TGk3KhFAGiUZORepAz6UGcizIBKigCF6tiHGkhBSM2qPuZgnxDQuNY8+ZpSAWwVZuKxri2RAoS54HHkWu5Duw7IvewzoFIArZ5Cdkk0ONTVGsseUEGZaqKSPACRqcoKAI3cxITgk84IkKg6QIHcMHI6urb5E5sA5yFSAJ2eQnJ9CJRBWd/pPwOEIvBgZXUD0bhntdW4JYDRyFlfqwcIYquueCgf0Lv5pFEfjDni+qAUAL3XZjRSAXSdyOlGzo4ABCg9xxv2VUBXC6C5JFoPch0gFKIHFMDvadONgJs6bO1jXrpAM9cWfK2dLltnStJFmUBINnOVF43AU/05QC7E42YyygsYoawkDhDhwk+1n+TzMdcoAzGQUj+jbg5SNELJ+D+SyeRBBEmbAgqjBxMDaOHHReNSg2d7nPXODEhwf5vsE+cBbyYTljJ2OpqYBTNqUthprMkn0rrz8p0BDBsneaF1c+/MOkA8WwNDLZC71p5nOnU1sZ4CJTcNfSmsmrPvQSQGzF6sVYXiiklH0gWo9qSLnDlXyiD20JvfzbmfK+sE9evUJgYW3gl67ltgfZV63Yk3r7BfpNy30rp98MxkKPAk+gVhZzLiZep/v9ceft94OcYTIHE+fa390N4e3u/QT8fT6XoFv/3f37nt1fW+rvf/AA==);lineShape=1;strokeColor=#3399FF;align=center;verticalAlign=top;fontFamily=Helvetica;fontSize=12;fontColor=default;fillColor=#dae8fc;" vertex="1" parent="1">
          <mxGeometry x="608.6326493821093" y="87.79576717311988" width="9.7583000706655" height="25.196742301701878" as="geometry" />
        </mxCell>
        <mxCell id="F-WN9qBcaST1U_JZLYBf-81" value="" style="shape=stencil(lVfLbhsxDPyavRKUqOc5Tf8jQJzaqGsHjtM2fx8am3WW3PUEua1ljaghhw8NcveyfXjeDJFfzqfj782/3eN5O8iPIcbdYbs57c76Ncj9IHdPx9Pm1+n4engcfz8/XHZevv4c/15O+D/iQqNWL6jIbx8r1MeFn+P+/e4w2x8r9WL2Vyp8e79k4mjPF0rAQGJqzQI65Q4AhbgbQMwU5TYgJyqWguhKvA0okbIYQBJqgHRlEsshRyoZACpFy6EwMbDQhIINW6kkgEMrlC2gCvV2G9CZqgU0XQkA0Kg4QKcOAtf172wAPVIAXlJAtV7qiRK+UgwWoG4AXuqZxFnQI4Bae6DiLHQo76aRdvLmL0IdqSVvAqqvUS2eRAOBqHm68hWgYioAICSO9dVx6wDNILYAFTC2EBxppg6SWjkES7o16kAb6iWxFjQ0AixoHMTKVXPq44hbKeczSEsVIK1icqQvWQsirV5n9hwK4KBxdSmnOYpIq9SKlateEqXcTM2zUBfE+irOmZgaKgOFkqsblSoIhJYVX2j65On1yGkGLQAd5Wgi4QUAcNBaygsLESXEGmmYEOL7qPqNQcH/NqBkn9QtT2pZByxau7JCkc7V99GikQH1OweK9kolTKFcHx6UtB1PshADaUihbnNUj0BtMfZJm7Npo4JIR56kdp1nEszREHxhCrgtaiFzdWkqVOvnE9tiX6dGv7qdFyGgBG6/KBcZpiZTsvHSAAJnhsn21Zfw7nGafT+HYVROk5+FVeCo5fjWzzDlF9MOnhPCoj8x7DYqkhbc/gRyK9TFJE+MZPPNl8XX+/Xj8xnztNvvx1fQ/H//7NGl8ckk9+8=);lineShape=1;strokeColor=#3399FF;align=center;verticalAlign=top;fontFamily=Helvetica;fontSize=12;fontColor=default;fillColor=#dae8fc;" vertex="1" parent="1">
          <mxGeometry x="613.0837249937804" y="91.02441653842243" width="8.437786390393144" height="16.649481580256715" as="geometry" />
        </mxCell>
        <mxCell id="F-WN9qBcaST1U_JZLYBf-82" value="" style="shape=stencil(lVfZctswDPwavWIIXiCf0/Q/MhOn1tS1M47T4+8LVqVt0NZm8ibTWOFaLKgpPLxtn143k3dvp+Ph++bX/HzaTuHL5P28326O80mfpvA4hYeXw3Hz7Xh43z8vv1+fmmV7+nH42d7we8FxpVQayrs//0+o8r+Dr4v9bt5f2Qcm5419oZDX7aMjb+05kQMOkidxBuCFPABk1wPogJAwQCNmA4hCLq4DJFGIBpAKcQWASrUaQM4kYR1QHTkLUJ/RA0AltjkUgQB26sLWVZ1+4MKLBQSKoExVbjxkYsCN9j7LjaqtceuAUqgOHiplkEMJVINl36UOa61zYXQRUK8jZds6rUMBWQv3950BiZIAvlaKluBVZyRBwEiOSgImQnSEbKuL8hXlEG48RDhzotxIFuApoM4xyRASY25oxGUEeFClypRuQuICANom27hGLwQoY+M0yIgAlcqQg/YelLXRf+CS7z7XZrTaxmlWAXmIXbiu6J0BW5uq2ByakICkS6LMIwCVtbg+81cAQTOdu7xf6UwEOYhy01JDlSwCDzpxg86otiHB/zRAN86wUppSgU4nRzLsIF31YOJipmL7oJvVA+WLehWwIxrPQd6/O8RRZkKhAjaKbn62nfY6D8ADx7FKXHoZ7odE2U4oe6gy3OO97BOYslJ1WFgUgSbd7GjporZmbuuZ+8GKebHVjFBcfL/jnItPFfFnXAnca3t/AvoEdnOHb0gjExy8WjD3WC/2aO0rcYQHe7Q8WMY7pOtXk/v2n7xmf2yvD5c7/cu82y2fBNf/j98AerR8P4THvw==);lineShape=1;strokeColor=#3399FF;align=center;verticalAlign=top;fontFamily=Helvetica;fontSize=12;fontColor=default;fillColor=#dae8fc;" vertex="1" parent="1">
          <mxGeometry x="617.9794228857374" y="93.46546808451205" width="7.729814883038244" height="12.691360118737418" as="geometry" />
        </mxCell>
        <mxCell id="F-WN9qBcaST1U_JZLYBf-83" value="" style="shape=stencil(rVbRbtswDPwavxIiJVHic9f+R4GmjdE0KdK02/5+dF2lpuJwGLA3x+FZ5PGO1BBv3rb3r5uBwtvpeHje/BwfTtsh/hiIxv12cxxP+jTE2yHePB6Om6fj4X3/MP9+vZ8ip6eXw8f0hV8zLgZIaUJR+D2/IaD6+eJujt+N+0V8Eig2HhHQAZQAXOwBGYSvAzAECMEgSoUi1xEigGIANQNlB6AZWIBoEU5OEqCwBWSoTtU1QSALqCDJoYkh2ZQWPKwiuDYal0c4RbB2FvsihK4DMoPknqavT6wDIpTYNyJ6JxDIRaurU0NOkO0JhSA7LOUKydbAWlV0WEpAllblrThFF4RoHcEBopNSuWhcFlcblRuJ5xOwmWpdrgTcpaR9cGqQAmRNqrZN3gk6BmxKKmB2aJ0AnTQioAcoLeMzQIC8KaBtslqSBMnzqNJaewN5KRWBYGvQqrwpoNJI2AOy02kVX9dppQEdgMo7d0WTq6XJQNYPVYl2On1p0YqNhv8DSNzssnAcOlODdEZYQEIQpw8YgCwgUlt7633oZwD5Dj1L+RzP7szAfsPp1vWG0sVGRKXAjUerbEzAzkJEyFZ2yhg7HYj9BOO2UNd9ANFqLrbFsp4N9qLGZu31eAa039cB7CyRif4+3tu004UFu3iPzX+9U/09Xh++L3CP42433/+W//cXPn01Xxbj7R8=);lineShape=1;strokeColor=#3399FF;align=center;verticalAlign=top;fontFamily=Helvetica;fontSize=12;fontColor=default;fillColor=#dae8fc;" vertex="1" parent="1">
          <mxGeometry x="623.7109946259836" y="98.38184409766234" width="4.33461469597539" height="5.089231009487868" as="geometry" />
        </mxCell>
        <mxCell id="F-WN9qBcaST1U_JZLYBf-84" value="" style="shape=stencil(rVfLctswDPwaXTEkQPBxTtP/yEyc2lM3zjhOH39fqA4dEZY3l95kmSsSu4slOcnd6/bhZTNxeD0dD983v3aPp+0kXybm3fN2c9yd7GmS+0nung7Hzbfj4e358fz75WEeOT/9OPycv/D7jBOlEmcUhz/vb0jCvxdfz+P3u+fF+MSUdRgfAwW5DVD7XhoBhQqYIQfiNgCYqUYAEOI6AioFBoBGYaxBEkUAKLYAHgAp9E+sA4TqOEPKnYZ1QO2cdIBGavk2oArFsWhtJBjghM6JFAhXjZNRhxKoNQjQMgIKpNUAdazBFslA6VZJRkCLpIDWGEynkdcmsGqboo3KNcUA9f5uhQR4ozZSN0OlChqispe6ta7lupmSL3rBw3pHqFfCpsioqyvl7IvIoGqLgdA8TRH4NVmNxQshoGoDvOfQQmoGftXQO2zhJgF+Ve3CXvxqLKFkilQcwBwMaLVkSq4jCmWUTJal4gGoI6r6/LYloSZtTCn4ohGtpis74YxoNEPzLNmcFXhp9qZr6kuSrANy30AugEwFASJl1w8mXIFRVpyXTEoAKHkF0MCSciVlD6jIS8Z69IAArKFWg5sB79TWQF4H7en5fwBi7h+9ZG5VkBq2kXu3WggAluSq6E82LTswuSArEWarAVxP28aLUmMGjNbQ0jtkHRD7DnUBMClYkp2P8mgNO54k0NMGcMkntXfIOiBRG3dFEcrAfHbGi6PSnKG97RTp+oED3IGKT/vIxGB8IB11VhisVweN1GW/MTyN5Qol4Do7DDp2KKG90HdB7GTdoCaPYgV4IImxm+VjPINao/oeM7LA6u3vGPx4ZOfUT76L9SCvVWI/vqCMiP5gawTgTIljezG8U8kVP/gO9vmdzR4+LnxPu/3+fF9c/u8viPbqfLmU+78=);lineShape=1;strokeColor=#3399FF;align=center;verticalAlign=top;fontFamily=Helvetica;fontSize=12;fontColor=default;fillColor=#dae8fc;" vertex="1" parent="1">
          <mxGeometry x="560.8419616985225" y="83.68375630614543" width="4.918525196443792" height="20.077550908457923" as="geometry" />
        </mxCell>
        <mxCell id="F-WN9qBcaST1U_JZLYBf-85" value="" style="shape=stencil(nZfbchoxDIafZm81tuXjdZq+R2ZCClMKGUJPb19tqQmSl5/Qu2Xxt7akXwdP/PC2fnpdTcG9HQ/7r6ufm+fjeuJPUwib3Xp12BzlaeLHiR9e9ofVl8P+++759Pv1aV45P33b/5i/8OvERUfMMxXc739vKPq/Lz6f1m83O70+VLXeOyoNAilrIJNHO3jiqICQyFUABAoaYI8BJhc0kCkgG5hy006SQxYAFHL6SPLGgyOlQFXvkJgK2CFlyk4DjYK7DuRIWRudJQ7A6BLIFwUUcWu+DlRPxWugEIMdautS60AN3apFoLUe1w600MWyCHjnyGk3tdgFvLxFJTZAhpGT7/mkgUIVuakOR2rkAwAcxWaBmmDk4rBDA2ISbaRqgQhsSKUf4AxUmBCi7xasWysDwPWMvAhcQxkkgK4zjXsSXk05rb7mYUKI0Vl7SQScgQ3iVtZHktgnAMwpNwAOJEQdjBbAI0AC5yxQQTUWr1u1OlgFRAhhcGsBRs/aNJFm6NY5XYz4Uu8xy0CiYuRdYNkQE01HEasKymmR2pCiGai1pB6m9zbqYKhzscS8BZJrG1Kuwk6dRK5hcBNOOdO0xNMZVLK7ARYTjb7P5XYZkBZlmhYuTMFR0zvMSQiO5JNti9JHGwCKLTMSGEaB7u3mYhLIIEOd/X6UygrOM3TEG7OMo6ztvTEseYp3TWPhznGPe3g+OE+yHTJuDKxsizYeiNlKWngg0ERRezPA5VL+zeFhX/bD7Cy2gs+LmE2XPTeU5fXNDpG4aInvTDreWF/t5ILPw2fvfcxeTraFY3/y0MxwuKRelXvU8B+3rxvr5eH9qvey2W5PN8XL/+3VUF6drpX8+Ac=);lineShape=1;strokeColor=#3399FF;align=center;verticalAlign=top;fontFamily=Helvetica;fontSize=12;fontColor=default;fillColor=#dae8fc;" vertex="1" parent="1">
          <mxGeometry x="556.1824239774567" y="86.12774899310642" width="4.864136787052432" height="20.237607083285813" as="geometry" />
        </mxCell>
        <mxCell id="F-WN9qBcaST1U_JZLYBf-86" value="" style="shape=stencil(nVdJcttADHwNr6gZYNaz4/zDVZYjVRTJJSvb7wNGGVqA5WY5N4pCcxpLA5hJ7l62D8+bicPL+XT8uvm5ezxvJ/k0Me8O281pd9anSe4nuXs6njZfTsfvh8fL7+eH2XJ++nb8MX/h1wWXmDjPKA6//70hTn9ffL7Y73cHax+jsY+BagQAocgW0CgJACRKxQA4EwcAyJTFACRSRCeUQWABVArohEqx2yAxtQIAjVq1gE4RnJATdRvWLFT7+4CiBKwPuVMAeSidkqVUNG6AUk0UbR5qoAJKozYqDqAngCi1SmIptUilvQ+IIYw8DUQXiOid2B7RlVMFgEzd6qErSwaAQGK97o0qqL4mXkFKsmSYCEfpKg63c10Gg6sjECetHWHvRANh0upM3YcpgzBp/bfkE9FQ39AoNp/qDk7ImghHiSmA8lPNZed0oIQkpJ3O+tBU1UARpZFYH5r2PqS54iWkAEYSSqP5XgFQprsqrHofKhJE8Y1GP4EozdXsMi0UQH0roDlBLBV/G6CKdJQK9oEpOUqaGZDpln2UlCQqjVqpsgcgH+Z2/AbQUMOPo0lcARjpQadm9E4HLCCvuAKdnqecy0OCDf/jAPGUZj0ASpIH4wUgsFWydj47UTSVDQjodRlZADqKwQjiMNrWMniXYrk95cqYUAuAR/O8Xa1+oORCHUQ1DLEs9oEYePBm6K5sP/p928RW1qvom97K/sZ+uq0tiBRsEa1soJmCHSRrK66fz3iFzn50CtRx9ewZt1/ffSPUcBSf3ADnhxZnb86eQZ/T4yU7e6hH3Qo+Yi/BdznMR5Jf5bG/Wrq5fCCeKXgx4nSlSNXGH1fDf9zXVuz14fVy+LTb7y93y+v//WVSX10uonL/Bw==);lineShape=1;strokeColor=#3399FF;align=center;verticalAlign=top;fontFamily=Helvetica;fontSize=12;fontColor=default;fillColor=#dae8fc;" vertex="1" parent="1">
          <mxGeometry x="550.8090183356173" y="87.76665299088074" width="4.7878613575617885" height="20.88451754494163" as="geometry" />
        </mxCell>
        <mxCell id="F-WN9qBcaST1U_JZLYBf-87" value="" style="shape=stencil(lVfZctswDPwavWJI8H5O0//ITJxaU9fOOO7194WqoS1A6rp+UxisCSwWB4fw9LF/ed8N7D4u59PX3c/x9bIfwqeBeTzud+fxIl9DeB7C09vpvPtyPn0/vs5/v79MltPXt9OP6Rd+zbjA1OqEYvd7PomU4t+Dz7P9YTwu7QO5puy9o+QhoAQNaNQcAEQK+gYuVBEgUYgKICeuAEAlrwHREQNAzBS1S7FQAEEn+T2vAEl4CwAQqWYNqJRBHnIkr2mVkwRuKJEcK0DxlAGtpVpaSyGX/g2oEoN2qXJP5Sag1e5ABzQPafXOkTOI0L3cvqKR17y2RBFE3fIKUIgzAIjLOmoJqyCaEvmiAY0yoGlKhM7cgodthKfkVlcgNQkpbIOAAGerWmjyDAReetEvEsGoIoT2ZFPtQZFKwRj5SWo8SERmirr11Qb1mqUPaZZqhY1Gao5136ilq2VbG56YLYCRmIrtG9MJuEFITNEG7UDNSV6zKQhHucKSK5rWxpRBDDf5XwGRCtCSuBTMDRm7FLo2F/JGjeaWpkUBRZQH4WQFaEgaoYe4AKDEifjCCuBQiTJ5U3EFsjRNHD20pEQrqIcJwI8AogxBo9YE20wolMzQajAG2TZMAU1Egxs49bl8naO1p3J7BmXbvrPvzXMb4C1LMuwD6N7VblixEgN7thHEa2PbtF/N0DvrkqOmO8adfczbqX5n4WNi/ft3NkpZKrSI8MbK3dlruLCSZa/SRcAwu9kueh76XntT6OauN8ttKlfcOLiM+GQnFF4UJDPJP2Av3Jmegv0ResIj8XKzWy2mM/i+Q/xftuS1k7Q9FsPm6+hRe6VN+bg9xd7Gw2F+yS3/b59ucjQ/+8LzHw==);lineShape=1;strokeColor=#3399FF;align=center;verticalAlign=top;fontFamily=Helvetica;fontSize=12;fontColor=default;fillColor=#dae8fc;" vertex="1" parent="1">
          <mxGeometry x="544.7766256037421" y="91.02389069230907" width="5.884797091479116" height="19.68157102622478" as="geometry" />
        </mxCell>
        <mxCell id="F-WN9qBcaST1U_JZLYBf-88" value="" style="shape=stencil(lVfZbhsxDPyafSUkkrqe0/Q/AsSpjbpx4LjX35dbQ47FXY+Rt7XMkXgMR9QkD+/bp7fNxOH9dDx83/zePZ+2k3yZmHev281xd7KvSR4neXg5HDffjoefr8/n329Ps+X89ePwa97hzxmnTCXOKA5/zytCpf5f+Hq23+9er+0bVR7sYyCJtwE5+gM4UMoA0CiPJ3AjBYCilNIYQqHYACBTaANAlWIAgEZtjGFOQ7kNqIWCDoBUKCcAqD6GnKgwADTiMUuFKSsElNEli0qBSzEECmFANOkrq4hWKcsISMQIoJ06FwCunOVVx8rZmQUEUSpVB2gwr8Y+HYO+ysM6wv5mfwQieLKOEB8EqoQm71PLVECaNFJ2UWuv/jogUHMApgTSpEJSR4DJAOgINW6MMcyUB2lNubfkBWDcQJVLFEcy1QxdMt3IdQEQwD6hunAJNkTsSbwKGollW+iGpTUCl2Y2F184BuQzgDryKSkQfKNaGJXJVhC921I2KjFq6rjSo4oKZ9xcABo4IZtu5YUKAEBaCtNFSNbpXYhd4QoJArDvB9NKKAKBqus4gZX+NEAS1bHSVamBjhOmMGapYPk2gLvlClYNscKNMVgpkS6JePLZxRuB8nHu98cFEIiBS5z6NXs1PDBoIANUN2HV3uXrAKHo5plIjG7q4gs3bwFkpnjuRe4ysmof+uxyqQIxEKWFAKR+Q97a3U+gFTjPvU0uwXYZX29l0nH3CM2bb/wAB70o1MTZC7gRYvO5wcMFqx/z7ti3fvyHPdJe65emPl5ANZusa/bpvKNa4/6M7T/7HLlrbx8fb5+X3X5/fjpd/+/fSrZ0fmfJ4z8=);lineShape=1;strokeColor=#3399FF;align=center;verticalAlign=top;fontFamily=Helvetica;fontSize=12;fontColor=default;fillColor=#dae8fc;" vertex="1" parent="1">
          <mxGeometry x="567.7685559453089" y="83.2645943758335" width="4.173892463979464" height="17.95825020682208" as="geometry" />
        </mxCell>
        <mxCell id="F-WN9qBcaST1U_JZLYBf-89" value="" style="shape=stencil(lVdJcttADHwNr6iZwaxnx/mHqyxHrCiSS5az/D5gGDIEaDajG0WiNVgaDUzHD2/Hp9dDF9zb7Xr5evjRP9+OHX/qQujPx8O1v8lTx48dP7xcrocv18v7+Xn8/fo0WA5P3y7fh3/4OeKSp+IGVHC//r6h6v+8+Dzan/qztm9F2XsmhwDBAkKkwgDA1FgBOJEPABCp6RAiU44AUCglHXOAJ+REOStA9sQZACpx04BKrm0DSiIXFKBEymkb0AqVqAC1EZdtgHeOnE5T81RB1K1S8xoQiUGp5XOqGpCnNx8CaqGouSFnRnBCqZMDM6BRAnkd0q5dWuRhixyV7REZAGKdCrUMAtAveorNpimDQnAh71aFAOSQhmnGJSk14CtX8hogbIrAJemwqPMqtQyAfqIbrEtdE2xS6TBD1yq6gbgxt+QCkEDQdQ1IFIAySU6MlFUpHABIXYMBVFjpgWqG344a4PcA0DLQeGLXlksm6CaCDwonDljyFcglSWtaNVAAKiCFS9ECGqC3UMNXC0BKJuRLWl0HbUM9zVPLL4IOIK3SQCHYtHrUovcCgltxSUY3Enxped3TMmRQDGU15CpsuDjlfLZ3VEAEzsqeTPoC/FnNq52xLp2i/d/ZG7zdM3YWk2DtdzYfpnDPZsWrLQaOQpF43QMMFwxZDvS/z9F/nBtJtWYb1iFfLdkcMaiVBGdEAk9ldnZ87Nhncvf4IzM5WH9QvDFZgcD5lCWh6WbB5Urz8f/JhvvX+B17efh3Z3jpT6fxyrH8bu8Y8mq8n/Djbw==);lineShape=1;strokeColor=#3399FF;align=center;verticalAlign=top;fontFamily=Helvetica;fontSize=12;fontColor=default;fillColor=#dae8fc;" vertex="1" parent="1">
          <mxGeometry x="572.5464149312807" y="82.03978060920929" width="3.7343173271111314" height="15.474015851844026" as="geometry" />
        </mxCell>
        <mxCell id="F-WN9qBcaST1U_JZLYBf-90" value="" style="shape=stencil(nVfLctswDPwaXTEECRLkOU3/IzNxak9dO+M4bfP3gepKDih5M+1NlrEiFlg8OKS7l+3D82aI4eV8On7f/No9nrdD+jLEuDtsN6fd2Z6GdD+ku6fjafPtdHw9PF5+Pz+MluPTj+PP8Qu/L7jEVOKIiuHt7xsK+c+Lrxf7/e7wwV4SFXH2zCQAkCMFf0AMFCoAVNLqAUpNbgOKUAyeQoYulUpVHUDixGoVoIXUc8gWBnBCTSSeQ2GqDQAapeYBjTjdBjShlhzAnGQGgNa7VDNFwIGD5cnHtSVigGiVmg9Ty5QQiUyaPUApgjC1QLU7oU5v1uMqvVwtDgo4qFItXt/XOKwjuJefHZEB62JBkZ6EgBNKoMYeMAvyVgklT8LkUhQArMJ8RbRIUgDAotgBAkx1SZQ7+VXKiLSJyVdEVag+nYt+BhQSUNU1UiwLAOBgHmtauISLlBekUVhNCF2ztLDCgmh9KxsTh9tA7k6QaQKsA3ThUqEC+rc50E0UY5WA+Czq6jM9Ogk41EDczaDPajQtCmIW8Lr6LLGlJ1HREIqLLqCwIKxGm9fG2CzRXFx0JmvHEZD+L4AXk42IitpG7k9QixIiHacZNQNMrkB9YvPAi8mmvYAoyTxn51GdYa+0XaF6l0SmBWQdwKRefcniBsJq6wt3K1YgBV3AFqTOJVvKGLjEtgH5xsQF1sNi6VNSYD639jkJJEAWi70hE0Pz4r+e4KpkEvIJtn4DzIWyN2e4uen0sck8wP3Clt/EnX0EqeXcZwo3Lm4UpbcH7o/be+8/GgeWyaxdeOD325T5q30D9v96vfjc3h6ud5mn3X5/uQp9/L+/+9iry70p3b8D);lineShape=1;strokeColor=#3399FF;align=center;verticalAlign=top;fontFamily=Helvetica;fontSize=12;fontColor=default;fillColor=#dae8fc;" vertex="1" parent="1">
          <mxGeometry x="540.8640773206189" y="93.49916584469986" width="5.238721487303152" height="16.158256479565054" as="geometry" />
        </mxCell>
        <mxCell id="F-WN9qBcaST1U_JZLYBf-91" value="" style="shape=stencil(lVfZctswDPwav2JI8MRzmv5HZuLUnrp2xnGvvy9UDVURktb1myxjBWKxOLgLTx+Hl/f9jt3H7Xr5uv95fL0dduHTjvl4Puyvx5s+7cLzLjy9Xa77L9fL9/Pr+Pv9ZbAcnr5dfgxf+DXiOFOQAcXu9/gmUEp/X3we7U/H89w+UXWdvXdUCgaEHpCpMgBkcr4DMFNAHjSE1AMKMfJQKJmYPSXkQUhqD0gkeRsQAuUeEB2MIVRysQfE5nMVEJlyH0MUysBDrORLB0iRUtgGpEChjyE7ckAaSchxD0jN5yogx8bJBBCqsg0ogXzPUtHcgzxUTyV3gMpNXasAce0AE6DCGETI9yxJJI7bAO+Uxb6CJFEGiMFFz6uUppZ1QG7fmwCVGPAq3CpyAggx4lXlmi2gAm0o7bWv0RkP67kuVKJ1kUFFqDi42KgF0KRiE2d5rSDqXEh6cSjTqITyMobUcrl1JFOkEqgAXguT77ur5jIhlrRgTKq1RsCRtIRYLICBhzpxMgcg9XmKdXEkEPRQL4ugM6rqSilaWisQn0pNDEu4lQ3aNFrKMA8qNRtDaXJcB8Q20+byRnmQltdZARXgoUYbw90aFYrOuqig5Iq6WPQNBhVUtB9XGzUDbeRKMdlECFDf4wBH2QAcCdCGDlIzF2tqc2x9VCeKfckp0QHoOxTyBqB9AQF0CprJW9q0/8+lLHuoPnat907rRqYCAD7ZQZp8K5GNQWq1FPFime0+Ez2cD4sNK+TWFVbtnZ26ulUiXTi78t1ZW53dlu7sxY5Sz8+dxdvZrfjOZr/YY/DNwVn6GXYj3ch7wXm4GgY71nyT03pNNt/N3MEBovODjTkDc+9tJ8V91Ecq8oi97inlgfMM0dnvo3CVTdMeMJscbZfGyVq54kEtPHxJvWuvD/9uxG/H02m8UM//tzdofTXevsPzHw==);lineShape=1;strokeColor=#3399FF;align=center;verticalAlign=top;fontFamily=Helvetica;fontSize=12;fontColor=default;fillColor=#dae8fc;" vertex="1" parent="1">
          <mxGeometry x="536.808691585021" y="97.20259839588005" width="6.399458213145037" height="23.59010800390655" as="geometry" />
        </mxCell>
        <mxCell id="F-WN9qBcaST1U_JZLYBf-92" value="" style="shape=stencil(lVfZbhsxDPyafSVEneRzmv5HgDi1UdcOHKfH35fuQs6KXk+Rt7XMkXjMkNKUHt62T6+bKYa38+n4ffNr93zeTunLFOPusN2cdmf7mtLjlB5ejqfNt9Px/fA8/359ulhevn4cf152+D3jolLRCyqGP/NKocj/Fr7O9vvdYWGfmJQHe2bKBQCEtA6AmEjlPiBHkjYA7EwJANAoyghQCsClUimPJ5RAmu4DaqE0Bl0DxXwf0BKFOAKEKghaAuUR0DLMkkr3uAM0EIOgOQQKYUREKiCvqsTuiExSAaD6IGxFFQAicR4BliZwglRqZQQoNRCD5VUcXT/ysF66fJNYkwgih974JJQwm5r6NBXAppooiy8EPMHoN2pOTbaAHDVTGQGiVJFLjWTMkjQIaLGHeAVUYlDqJsRj0GIqRNzIxO0GEAFAScS7hPqGZb2xDzojQUgPcZHWDLqrUU1uCof4rdcyLagRkOQalTEGIx/KkiYf9CWqBtJqEr4RUAZsleg1agDUNlolyR7QgEuNO3MWMaCRUmuXyxXQiIFLJqDgAIUYnfBZQDEiOAFl2Jdy6t39OlIaBSDRVL0ebGgJCNruDjq6ZGMxgDpEpjIOiCydXetDq/rbSWZIDWZfuJQpIvL5kRWt9CAE223cn7Wzd90hquP+HGEntgS6mwa8N9zM9NL9u2MuLjt9Yb1evlfYArq5ef5wx6+r0o+QQBWXltXZM/CGs5/LePCz9D642B+TuYr3H9lnqo46fayv21/Vusg+KpZJafTfigsa+2dv/v+3t4+PZ8bLbr+fXynL//2zxJbmJ016/As=);lineShape=1;strokeColor=#3399FF;align=center;verticalAlign=top;fontFamily=Helvetica;fontSize=12;fontColor=default;fillColor=#dae8fc;" vertex="1" parent="1">
          <mxGeometry x="532.6860565473321" y="102.04728125717418" width="5.981092400490375" height="15.002289896974338" as="geometry" />
        </mxCell>
        <mxCell id="F-WN9qBcaST1U_JZLYBf-93" value="" style="shape=stencil(lVfLctswDPwaXzEkwRfOafofmYlTe+raGcfp4+8L1aUqQPZmepNlrEhgsUtwww9vu6fX7SaFt8v59HX7Y/982W340yal/XG3Pe8v+rThxw0/vJzO2y/n0/vx+fr79WmKnJ6+nb5PX/h5xZVKrUyoFH79fUM1/Xnx+Rp/2B+X8YGqjY9MDAC5U20WIJQzADQSC9AtFbRCoxYNgCNJwSskC2hUOsyhWYB+oqAVZHxvrmqlLLCs2a5QM0UEaMRsAUI13AfURtlWqRUKgIemnREMoAdqACCNkk1aIlxBhLoDJBLAgwJKtQDNASQtldgBKnVQVglUxAI6ZcB0T6scdJMMypopWOJiCDAJ7QSpfomONFqHhBeAEGG7iqVauaxIo4Vy90R0pCCmni2AIRG6QnSAiAFCyRqTchnAlkoZ3Tz392xVt3lgEstcV+cBK7TkiVMA6o0+p7gACGC6y9jAIgcBK0w0RV8l1N/aOex4SMSglxbdPCPy8Kp7vtFsXVWkCYk0UXOCaNA3erkhiIRE2igUDxCQtbqr5BUA1LXoBlaiZiC5EscGFs4U0RmkLrDyvgJ85r8BSQZNi3aNqDdmG5rPIK0SYLp5E1BJFRC/aj31zgT0E6i74Qcf09EPSxkLOnl5ToMGKJCOUnb00UmmAwZ4VG8xKsUKmojYxke1PGRIXvwxDundro+aupXyfNrdji/DS+YEoMxiG6KaNwTj9e8aXHwAFp/qGFhGPHZHpSckFx9A/3D1hxQ++nOkzC4eTYUq4eT3X5ELrcbOOAam2/HsB+E0bOzeGev4Ynh4qPzECiZTRt+v/gz/4Pby4W1HH/5dlV72h8P1prX831+t9NX1WsaPvwE=);lineShape=1;strokeColor=#3399FF;align=center;verticalAlign=top;fontFamily=Helvetica;fontSize=12;fontColor=default;fillColor=#dae8fc;" vertex="1" parent="1">
          <mxGeometry x="529.2849322897684" y="102.87483794058966" width="4.050557396480218" height="18.245732672629188" as="geometry" />
        </mxCell>
        <mxCell id="F-WN9qBcaST1U_JZLYBf-94" value="" style="shape=stencil(lVfLbttADPwaXYld7vucpv8RIE4t1LUDx+nj70tBXcWkpClyUxSOuCRnhushPLwdn14PA7u32/Xy/fBrfL4dh/BlYB7Px8N1vMnTEB6H8PByuR6+XS/v5+f579enKXJ6+nH5OX3h94wLkdhNKHZ/5jeRyvzi6xx/Gs938dETexXvA7kIAJlqVgBmirwPSJ6yzhAc5QQAlRrrEgIlkCEX8lEBkgDaPqBEqvpIWQB+H1CZXFWAwlTLPqBVcrpLVd6AI7VGTWdoDg5OADloQKCIAIVc0oDUG70N4N71BSA1gAw1U9Lck0NG0NYiNegM3jmYQtpuyCQpCuJGtnqQIhA3sreTa5kKEEQqVMwgIgXEb2mTySASqTBDLppMjRzoa3bUtCBkNBkBctf8Aoi9qr05RD25KgoCNcio1wAGADlx8BZQQVuFrsFILhGDwclcmxZELcRYo/+YczeHCtp6x+Zl1AyNRsjpVyL1SKTi90akhQJwJvEh6xtCJpChemrZAhrSaKS20mhD7KurGloX4TZAXMDZoiOgq6wUYzRTW8GoPw2QPRq1gorQCwBCshlEhA0MjsXoNDU+fGEbsPJv2d3IK70Yk6ZGwGvRM7E2Jk5wDsUuCC+rG8TLCtRLsfYe7IQbtcnXAY1ct4eloZSAX8iE9WFCX9nbA+6XnKU3eO9YWS6E2rEWe3gHP+/FJ7KJ90DEvtpq8WKW6rI9D/JSXt0VXHfjPfZX258G+hNkQen2h24y2/GfvDf/P14ePi7pL+PpNN/x7/9vL/Xyav5BEB7/Ag==);lineShape=1;strokeColor=#3399FF;align=center;verticalAlign=top;fontFamily=Helvetica;fontSize=12;fontColor=default;fillColor=#dae8fc;" vertex="1" parent="1">
          <mxGeometry x="533.4915176217294" y="108.16457818305986" width="5.125165925904796" height="13.330734999948506" as="geometry" />
        </mxCell>
        <mxCell id="F-WN9qBcaST1U_JZLYBf-95" value="" style="shape=stencil(lVbZbttADPwavRLLvfmcpv8RIE4t1LUDx+nx96UqyDUpa4K8yTJHy2NmuEN6eNs/ve6GGN4u59P33a/x+bIf0pchxvG4353Hiz4N6XFIDy+n8+7b+fR+fJ5/vz5NkdPTj9PP6Qu/Z1xkin1CxfBnfsPE7d+Lr3P8YTzexKdIhU18Jgnb8bmTiP2+AtI2oDLlbACxUwMntEQh2owy9bgN6IGCLbk0KhUAhEowgCrEoAbRjKsB9EIJADhoTvaIrt9gcIRQtgCJxAUAGoVkAYWiAEBaarwCGnUwCM2Y7SCmJEHVXblkATd9uD/rSsKrI0DVjanLqogM6NdImm8TGl0tVJofRAQ1VOW/JXi/0uU+oC6DvWVTBwChYFPSTmegCJVQsl1SjSAXaJ2qJbi+6SClnpcm3gAqYJ9qrttJN6EK2irZk6kzFTBpJYI4kWYsCKHmuoR9QwHdaZQXr9ryDecCWlX6oGhrZZPMgR6mtjqAQMVpT/JKcci/da4tewCit5Iv2zloGzKmt/eZShEUPQnIFZ3gpD8NKNqTFfkYTLqoR9i2alVI07l4xenSErAgUqdkTUDXIhKQrtliB5cCVWAC3LweInaNuroK1GUT36+Zoq2A8WKPnhecoBNfy7vGMyXw/dWOluXutBHubLvBbNhnX2B4XNbYdVqLUO8TjqLrDWTPapWHxY7v586ebFo80LwOsvl45ELcfS8DJeDtn73VfhyvD/+v0C/j4TDfwG//91dufTVf19PjXw==);lineShape=1;strokeColor=#3399FF;align=center;verticalAlign=top;fontFamily=Helvetica;fontSize=12;fontColor=default;fillColor=#dae8fc;" vertex="1" parent="1">
          <mxGeometry x="528.9940873311605" y="108.15564373610567" width="6.392792756178095" height="10.501239951368007" as="geometry" />
        </mxCell>
        <mxCell id="F-WN9qBcaST1U_JZLYBf-96" value="" style="shape=stencil(nVfZctswDPwavWJIgAf4nKb/kZk4taeunXGcHn9fqBqqIhWt675JFFcAFseSgzy87Z9edwO7t+vl/HX34/B83Q/yaWA+nPa7y+FqT4M8DvLwcr7svlzO76fn6f31adw5Pn07fx//8HPCiSeOI4rdr2klEZc/C5+n/cfDqd2fpNnvmUIGACFpAezIMQAoZdcClEraBgSpDlSAZBIQQxRyrYWQoEuxUEoNIEbycRuQdMUqk+g2IGcqLUvZAH4boJkCNwB1lGUbUObPMyAQBwCIlLQFJBh0UdIOoJRADN65PhHFk4BUm4nSRl0CeZA5CyK3mSuJIqgNo0lDC1CKKBGhp6lYtQAL61QvePgY4WtLLkwE4FOKFLqozSgov+TJdVFHUpCIOJMyA4QYjAED+C5zjgJwyXquS7WVfAa8JqHcuqQRWkiFfAewX6AmjRRblpRJgUv2WdYAYMEaJuvKJdQQ1sNuFTTqaiUnK1pRVxfSdrqOiUODplDsMm2lgXo09y6NxQfKuzClrlqtvEHQNri0s1CgQtgs7Wi92aNSaV+YyACQcu2X5aABQdwNMFHTVoSsNjwAiA2uNuqMZ59wr7zZkQe8shVnp4umxaD6vNYWnpVXqhZ/DOAa4qztkQrIQ6zDej48mHaDFuV+LHGBZwdXZXze7ymCAFaSeON85eq54t/Ob67vhEAZ/J2r4s/skIB02TRqdYfJISmsuZ9jJQeo964fp7YAnPdCJXb7UQ/7TCnfsZ9Xuoz9MXqi3hGv8SP5DjqtErtmwdkSK4buHAyL4T/uCjf228Pfi8nL4Xic7jXL7/1FxpamS5A8/gY=);lineShape=1;strokeColor=#3399FF;align=center;verticalAlign=top;fontFamily=Helvetica;fontSize=12;fontColor=default;fillColor=#dae8fc;" vertex="1" parent="1">
          <mxGeometry x="524.4832225218045" y="108.1651444440775" width="5.849059070726664" height="14.245274784914224" as="geometry" />
        </mxCell>
        <mxCell id="F-WN9qBcaST1U_JZLYBf-97" value="" style="verticalLabelPosition=bottom;verticalAlign=top;html=1;shape=mxgraph.basic.donut;dx=25;" vertex="1" parent="1">
          <mxGeometry x="508.75" y="267" width="140" height="140" as="geometry" />
        </mxCell>
        <mxCell id="F-WN9qBcaST1U_JZLYBf-142" value="" style="endArrow=none;html=1;rounded=0;fontFamily=Helvetica;fontSize=12;fontColor=default;entryX=0.504;entryY=0.827;entryDx=0;entryDy=0;entryPerimeter=0;exitX=0.5;exitY=0;exitDx=0;exitDy=0;" edge="1" parent="1" source="F-WN9qBcaST1U_JZLYBf-143" target="F-WN9qBcaST1U_JZLYBf-97">
          <mxGeometry width="50" height="50" relative="1" as="geometry">
            <mxPoint x="580" y="437" as="sourcePoint" />
            <mxPoint x="580" y="387" as="targetPoint" />
          </mxGeometry>
        </mxCell>
        <mxCell id="F-WN9qBcaST1U_JZLYBf-143" value="新开始结束标识位" style="text;html=1;align=center;verticalAlign=middle;whiteSpace=wrap;rounded=0;" vertex="1" parent="1">
          <mxGeometry x="520" y="447" width="120" height="30" as="geometry" />
        </mxCell>
        <mxCell id="F-WN9qBcaST1U_JZLYBf-144" value="" style="endArrow=none;html=1;rounded=0;fontFamily=Helvetica;fontSize=12;fontColor=default;entryX=0.211;entryY=0.705;entryDx=0;entryDy=0;entryPerimeter=0;exitX=0.109;exitY=0.804;exitDx=0;exitDy=0;exitPerimeter=0;" edge="1" parent="1" source="F-WN9qBcaST1U_JZLYBf-97">
          <mxGeometry width="50" height="50" relative="1" as="geometry">
            <mxPoint x="404.83" y="427" as="sourcePoint" />
            <mxPoint x="543.12" y="365.70000000000005" as="targetPoint" />
          </mxGeometry>
        </mxCell>
        <mxCell id="F-WN9qBcaST1U_JZLYBf-146" value="" style="endArrow=none;html=1;rounded=0;fontFamily=Helvetica;fontSize=12;fontColor=default;exitX=0.982;exitY=0.646;exitDx=0;exitDy=0;exitPerimeter=0;entryX=0.816;entryY=0.577;entryDx=0;entryDy=0;entryPerimeter=0;" edge="1" parent="1">
          <mxGeometry width="50" height="50" relative="1" as="geometry">
            <mxPoint x="644.76" y="357.44000000000005" as="sourcePoint" />
            <mxPoint x="621.52" y="347.78" as="targetPoint" />
          </mxGeometry>
        </mxCell>
        <mxCell id="F-WN9qBcaST1U_JZLYBf-199" value="" style="shape=stencil(rVjZbhsxDPwavxKSuLqe0/Q/AsRpjKZx4KTX33e2rrZLrj1Bgb45DsfiORxppzevj3cv+10Kr2+n4+f998P92+NOP+xSOjw/7k+HN3za6e1Obx6Op/2n0/Hr8/3575e72XL+9OX4bf6FH2dc79LqjErh5/mbJCX+/uLj2f7p8Ly2r1KysS+SM7HPkqx9DDIFAkjS1AImCRMBBNFuAfCxXQe0Kt2ekKIoiaFlycECJimVAFSyO6HSLLU4PB4ADRLICbVJjRYwSSRZqkXKZAH4phOASrdBa5dSCCCMMg3ApBJIpUuRZIOeigRSuJIk26CnJp24lLsk61KOkhMBFInJApAGkqUcpLsTmiQCQIjFxoCoAnFpTqLNUsnjzMsAzJcD9JG3iwBtPq01SSIuoXOibY06SWMnYKYdoEkk7Y3uz5aVMCFKKj3Pl61Dm2jhMMHdZmmmBTKi4IhaDADE00l7xzbmawEoZb64mbje6ExHUHXyABY0qLfatIL+Gdu3wVore5YkTHTY2LM6j19b+8PKLGFjz2gS8W4ymkhGQWGWt7HuEv39aCenIwPE/7CJN4uSSUsy2a7u0+jzy7Mvk3p7SsFSXQPp6JDLu3Zke2XfSLwxDiJZOcQShJbuxQNYx0EcOC5CSv8IiGuA7Fwq0kgN5hMsU6ApKED9EkHXVeZS3JS5j0JeKYMmb99I2YrnuhgC7YtF3qwPIPYgIvX2bAtGv9OQIdbXYWyLVQkK8WeJblVjbp8dVedBrf/FXv1KnlUuU2tjnS7LCSVnmyB6GQLNWtmcgSlsBNCsgWwCaGq1IdR3qBo1sJMMCRrYgl1SsgB0zMVlQPFdURfZcBmAJrMulUrbWqNf4WWiYk2zv01BglYiaSHW3G0nQ92ROkA/ujpA0rI6TN2LBHzD1F1WPzyzZmUqu/hpgGbthL5KGLJmAQQuK9QrVEXhCL+UjY5HZQK/vETbGrMEZQDdXCL56kf3uzUCVmCSFhLZ3bQxUqxwkMjBXYQLZdX5mmqzhPXL0gpSaY73+MW5ba5TlIahqKN7LBg5uGbvBjqOMl62hxyxRQt0MYOlnb5b3hou26tnpEAFPLSNen8YCWPLuFsOX+PYetX7H0kHYavW5uNl+W9eXwf6pgBV4J9qRoKv2buVEAfVXLnfbBZ/GvLw6gH/9Pr1rj0+/H1qezg8PZ1f6tb/909z+Or8rKe3vwA=);lineShape=1;strokeColor=#3399FF;align=center;verticalAlign=top;fontFamily=Helvetica;fontSize=12;fontColor=default;fillColor=#dae8fc;" vertex="1" parent="1">
          <mxGeometry x="512.5210363264872" y="300.17123593839005" width="11.958072179164473" height="27.868733828662002" as="geometry" />
        </mxCell>
        <mxCell id="F-WN9qBcaST1U_JZLYBf-200" value="" style="shape=stencil(lVnZchtHDPwavqLmxsyz4/yHqyxHrCiSS5Zz/H16w5r1ArNqxm/ksjGLswEML/nDt8dPXx8uKXx7e335/eGv6+e3x0v+5ZLS9fnx4fX6hk+X/PGSP3x5eX347fXl+/Pn2/evnzbk9umPlz+3E/6+yY0hvW9SKfxzexIllP8e/HrDP12fj3iVMAw+S+sEX6REg2+SAsFHicXgh8T6Pr6r9Gb1TxIyEagSrEKxSFcikCQGK6DSiEo6JFsXpSDb13cFmqiNQUrTqnOBLEOtQJVGjNbobUhdCglzw8/JhhlHkDi3Kt2+ISMxBhHIotaGjCOYSnEm2i6gMkgcKlLb2TBkEJVql2AFCs+l2iRYo0vhAks1lEojXZF8NpeKTkefC4SpwC6wu+FUAOdVW3DbO0kcYGKzKsGqFolAlGEDV5XmEsKUbRwQSiVeyiggG4eWJDGBIrlagTKPOBeAT6xbm04eORUAbTkvtZ0WzgV08twU0MTfsNigsIEJRK+SKlUpLnEAtXVScSDGbMkY5BkIt8YqxaZGR4WQwEWQio10bzKYQBS1NnREhjW42Qz2/pNow+qSXb+CBcRHUNcm0mgUX2av2fE8j5AVweOZvaDh4vGMhrOERZ9BQgzv2aSLIUzWPI+Y1Ly8gCgU/ACwGUDODz5Hga+EjaDtgs+EUIOfL4BnExVmA4fvlOzC7PQHfCX6REnF4zPRJ856OuATSdAkuujD8FmKLvqQnln8wLnZS+JblvzpM8Xfwa8FwHh3J9ljPlB9ynJ+Zb1pDjUHvLJu6Qtsqxfiz+T7/f2CdNPpnYqPk/KPBUkTui4ObRTvN4Qxp6r3CnJhxEgchPOXgmRd72fxaUm4Rv1f/DqBDhOIf5qf9bFTsQkQU/TSIRNb6ZaO2mhCowXXpckzRkSTr7YEOo5gg0r1NbntYMSE2L2PsIMNNjsFbzSGLTYWbDTnVNob27lA9YMHdjBWNtvk4YZeTBLESzn42QlDbyJGY+h1VIQdTIkN2OAct2NwT0xA/SKLlYotsiVM7t8F8twuzgWWeaXGyTfnAlWyValwusAC5dyKJ6w+y/CEineybQUaN5t8sKqwJTD7nowdjKVGXQoIOxibSqsu6z7fJVrwXQHJwto+Njg3p+U8d+FzgeJzKe9Fey6AwLlbFKW7hAY/WqBo2eWUZsnWrSB/5iWtfjvADsYqTrtPjaj8viz6AoqFUiW42sUh8lzqOrl6Z296PTDCHHf3CuU3itnvvZlavHVX66JA9Qc+VYdniQq8a2+B5inwYzh8YHidG/EBT9J6qGdtPt5hWikLnp3fZ6f8n/ovtwh3/DP8xnvH/8sNdqD7wWHc/SHAEu5UgHXmn75Tv4vHhx8X+F+uT0+3+//j7/7CH49ufxbkj/8C);lineShape=1;strokeColor=#3399FF;align=center;verticalAlign=top;fontFamily=Helvetica;fontSize=12;fontColor=default;fillColor=#dae8fc;" vertex="1" parent="1">
          <mxGeometry x="516.8130827837599" y="290.34850549887517" width="20.129634940632755" height="54.322153822574684" as="geometry" />
        </mxCell>
        <mxCell id="F-WN9qBcaST1U_JZLYBf-201" value="" style="shape=stencil(lVrJclw3DPwaXVlcwO3sOP/hKsuxKorkkp3t79OMitSwOdMq3+wR8B5IbI3Gu0sfvn/99O3+LvrvP16ef7//++Hzj6936Ze7GB+evt6/PPzAv+7Sx7v04cvzy/1vL89/Pn1+/f+3T0Ny/OuP57/GE/551evd5TK0ov/39ZfgfP3/h19f5R8fni7lqyuV5FsX8sWFvslHV5KQN2dhk08uK/no0m6/uZKFvHchb/LZtXJbvlXX/SZfXRD2NJx3l28ueSFv889THg4R9rfo2i4fvKtRKAQXycHBdeHh2ueFL4XkknhDbc7TG8xlEwrleAOcEISCTYuXQnVeeKEiaNqu0FxoQiG6SCZ1l9Qb/Az7FdfemXB06a7tJiFz1BtKc303CakThB9KPVItOROxVLKreywheZoyyVzYPR2Li8LTJXK1QPoU4ekSOD2RP128IS83rXrhnRcFKcOA3Q8JGSJuKWf2Q8KpRMnIxiUgJdeVSfCr7QpZmmTd1f2WUpEmWZ1/XgpIWhFLhoTcHZe6i+IMllzdb8lQl0TG2eoDSyHIzoA/570z4BFZvcG7HHeFJGsrjmi748xmd7yu0JzRGbIzYRLc1HfHGX4R+ZBWYVwKTfafZFz5rMu6hNiMu6ezl0UA0U+HzmGm1HUFPzvsUkjSJLTAvp8BKZWE46BAHQhJKxUqN5RcnIl8gILfQwN1JInQQGH0dIY2L/q6Qp4Nain0WW2vKyRXdpOKny3mukKcKb8UogxvNCgq9wWOE8UYPTPvHQgtJohDoytTBypFxhIU/B586HpdRGtY/WYpoKGIQ0PB9ltCq5eHLhytABPKcVAo+y0BrhQRfFBIe38AIKrqDXn2zKVQZLkPR5mpVR86T4uXQpvA/ZYC1daqARYwZN+Dr/lZPG8qEPIOMh/CUSpbcl6dwThFgd4V/AFwJj+0rK81TeC8FMpMqesK0fXdDxhYqnpDnG18KTQ5wGFaoNBoXTZ2KKS9tvYwwfV1BfRpUoiztF2f4VzbL6nr/OmzFyx5k0ijzRtc8lmPWFzqMfQqkFsZUGKobuL5lV3Wm+zQiDGalryf7eu6Bxil9y5jwnMjgUFBpCbk7TiwsMcfDqvzSDfkKQn6GoVunbexvLqfOGHjhYMlaptj16W8SEpUkdMehWy5NEJeTehH7R0sjpTPhz2KMsDzyZ72jj3+kC/yfuyINxWfiXs+4tkrOOjqIR9kvrR4PF9VuCP+mySdPCNsyKsu4CdldyGvsKZnMDv8K/zlXTzyK8vn1+P5yp7AnN+If+mveOaXGlkYxw55cV476lvV0/JEY5fnlQX6zPes8/Goh01RFj8tH898VFDr8K8Gf8fEOM4r7uegBuAvVf/TcZ+rIt2QJ0jT9ZxvPNb0JAFKZj5nABrp3072BBkPhTnvvirGDfm61wdAODW8Vu6/wIhJsacHzK0TA94ATAT4gHIVudQmfXYBo1V+dY4HAPsu7O/MXbU4f7mFWAnxtSARHBTYIj8pvFsK9RiXFIEdDpKl6sUDFAhEjJFPTT+Bac0KWKwnB1otYWw1rUDs2ODx1bVGvtYaJNMKhUKDsdedKTIPWrpmNJJLB98Q3pkR6Q1FExQ2a/kFyaJoTYzexIMWk+Xr5BtKmpTFLc4k0BvinNFu0ThUgd+I/5vMEt2Sl+E9MNT+hqx5UDQ1Ajm5yS3W2zbmghJUJDzaDnFXucgiAIV+0JpqTzYGAzq0yUELnace1GxVLGVh0jFHyQaMXkK0ZpCz0Cj29AYvi33yxwa4zXn2ukKY4GYpaLIrRTbJ9NorGQ9EZjIfUuYJx5KeMMuhEOW1psr5YGGWtusK7Vi3eAkiU2dKEL9IlO257UJBjr3HNhGnUn0at85rryKLgK25YymYJB2tH6u7JLml7HkNPPYpejlILSvpUpmNOcSBbxRaRbmnvbEeN1HnqE9HPQ+i9LJJRbZddANPJpnMh9Fv9uAbJIxeZVdax8fJSlxXKBytY8xVZ6hcjNHEVPUuB2wd6xHhB2AXWiSMbYf68CLyIBz0YAX8RcwIwIRC6oCEcfc04Iri1GvhVXbQDeVtz7AUgqze9dgmAvqq/Uw7cGuTNQDDBbU4jQPaMW4XeYB2bKSy/gTpyLYkKz2GTSrcUe7gMPxSZwgSxmAYj7u8lyB9kLeN5KNaB9S5c3+TV+zdIEOM5BV7N8i0yPLq+Y3px3flabz1kv3qxycvXn4X1I/GrAHVIP/5+WqZDnmCqd5lOXke/KPX3+x15he8LKSQr3yhKoF/+hvId+Xxj7cPLr88PD6+fq95+Xf+QBM/vX7cmT7+Bw==);lineShape=1;strokeColor=#3399FF;align=center;verticalAlign=top;fontFamily=Helvetica;fontSize=12;fontColor=default;fillColor=#dae8fc;" vertex="1" parent="1">
          <mxGeometry x="520.6689644897693" y="282.2901742043631" width="32.86647389911503" height="83.92831191998151" as="geometry" />
        </mxCell>
        <mxCell id="F-WN9qBcaST1U_JZLYBf-202" value="" style="shape=stencil(7VjLchNBDPwaX1XSvHUO4T9SFYe4CHEqCa+/R4MZs6P1doojFDd7rfbq0S1pZhevXu5vnva7wC+vz8eP+6+H29f7XXy3C+HweL9/Przap1283sWru+Pz/sPz8fPj7en700237J8+Hb/0f/h2wmkjLR0V+PvpSaTEPx+8P9k/HB6X9pE4TvaFmmzbt0olTfbC1AIACMXZIcnUgEc1Uc4TIARi3QaUSlVnQKOWAMBcmgExUwJBZ/t5jiHJcPIygFeAQgpcSpaTOgGyUANBp0Ayx5ALBVCHeM7JudBMEQEy5fkNJVEEWYqBqqNSJQWVDko6v6EKSQMAq0ObAYUKqEMQKrNLRkeu2wCpg/1nQIKFE/t5ZqspBOlBAsU5BjUBRQAQnyW1yuA3OElroYyCluHAGVChHgwQnEtt0PEywPSQPKCBSitFZ6+UQJIa8coetbHieSHMxICreRBz8QIFAUSqK/sKahAos7f/1TcvZ/RCQivwh33bNnuG9jLT2igRoD07/8vwcCM/zTEoUgAFVhKnyzYossU4xyDTJWrZXWYrACOZWYmd8gsWssm2eIDiZhTYu5RQDM2zyLKEhoLo6OhngMIObAA3nK17BVQH9XNKz81jK4bglBMgM8SSKB4AW3Ye/7fgHtTaeYVaABC5jUsleABMK4+ptIihgHZkW170Wa0gBBOLi4AHezfsg6OqUgEBtNXYbHAw6+j+C2ZXxArxU9MAgmsmbvKbOpF20tDiEoBcshmi3qWAXGqrHlYxUU07Kzmjxbar0wWtcMx2/a+WEcUdxs8RwTFcBCA5/99e/srtRbz9v7y98DiQLlbyCBi0JtAbqvEjzYSPTvGZ6jxv7NRSQP6tsTh7gWdyif4QXxtuv3WMrzMgkYCIjULVHU8b7BM95tmlkmGD7zPTnWcDJKmdZ90BODe4fsXis5QTJbB+Jfbn2cxjbG1dE7i53J8A4tn/xblVRDwRcvHSidYMADUsiWl+Q6ijnV0GqN91ulxBlmr2NxdGx4zuqIJ/A96CTVwy20d4hNc0Lk6GPVMGEetqtWC4KOhKzgwvLfqAXNmjO7/q5xPDiulqceFxMNmydxdyDHXTh0V29qgb9WE029tEB3zow646+4I2Cl7NgwCbVx/XTgNUsENO9/GtAvzZpe6b9vbh9w3y3eHh4XQBvfzd3zjbo9Ntdbz+AQ==);lineShape=1;strokeColor=#3399FF;align=center;verticalAlign=top;fontFamily=Helvetica;fontSize=12;fontColor=default;fillColor=#dae8fc;" vertex="1" parent="1">
          <mxGeometry x="557.2019957509513" y="270.61000581527276" width="13.304177040320022" height="22.76012497414854" as="geometry" />
        </mxCell>
        <mxCell id="F-WN9qBcaST1U_JZLYBf-203" value="" style="shape=stencil(rVfZbttADPwavxLkHtzlc5r+R4A4jdE0Dpykx9+XqiHFS1lTFOibLM/s8hge2uWb18e7l/0u8evb6fh1/+Nw//a4y592KR2eH/enw5s/7fLtLt88HE/7L6fj+/P9+ffL3YScnr4dv08n/DzzzEhtYiX+dX6TKbU/Lz6f8U+H50u8Uq0DvhN3gE9Uy4CXTBVc0BulPBASkyggMFkbCX4EILRCJY0uF8plm6CNymhSEergBuXoQzHKgFAz5dGH6nG2bUJRSmMaNM9huErIbsCY58ZUgUk5kwSCQoJHXUcfeoLS+FDaQlCytE0Qi2E1oYwIuiIUGCVhUh7VykzM2wyeDVhuMCogcX5aKJ9OuSJ87SPexQ3OF9IaY1qA/Z7lgK/UgD0eP4n4AlKg1HSFB7XWqXLEd3C+ka38rcBfz3AkLNV9nSBUgscd3yArWdusqi2TQks1l6Egn6PmBMa0UZOIN1CYlWzMgTfxBBwoxC3iGWgozYq8sAeNBCG2GJ8GayxpTEAH8Vwq/CLDDWiO52lxISFFEqIU8Dq3yo346KrGDJzv02tdkyA+eqXmM8A3shLxCvJrVCX6m4A+p67bYkAFl1ioAM+Y4CLOoY0us+Q/EVxEY5AMN65MrCs8EGm/UmQZ4N2DVmKMFFS9rFaK7osSmt8SCW1ZJrc2hCA8X8USuMF3kNAZtcNpVng+byHILN7rhGWaLotXgVuO/x3yPB0BfHADeKwGX8UaIrR5AC8Eb79ASS1TH532Do6qwdMUlgpxdQGCCyESBA7NqYGGPMCCdi2XUd0CtwrHh5bEsENajnudz1x0fokjimEKvHZzxDOQna1qDW+Z5pXTIx5UmvW4ZjJsFo7vEvAKqmBacke8YHssni9ww7nYuhdNw49Av8A04NEI/+fP3r/i/eHjG/vh8PR0/kS//D9+k/ur8/d8vv0N);lineShape=1;strokeColor=#3399FF;align=center;verticalAlign=top;fontFamily=Helvetica;fontSize=12;fontColor=default;fillColor=#dae8fc;" vertex="1" parent="1">
          <mxGeometry x="571.6994468677995" y="270.32667238413796" width="11.149401239242172" height="18.698061034281448" as="geometry" />
        </mxCell>
        <mxCell id="F-WN9qBcaST1U_JZLYBf-204" value="" style="shape=stencil(lVfbchoxDP2afdXYkq/PafofmQkpTGnIEHr7+2q72WUtwyG8LUaybkc68iAP79unt83A7v10PHzf/N49n7aDfBmYd6/bzXF30q9BHgd5eDkcN9+Oh5+vz9Pvt6dRcvz6cfg13vBn0quVUhq12P2dToRi/H/wdZLf717X8kK5NvLeUXbXFUqmwq1CpgAsFCZpPVKXSr6ukDO53IbgyDFQ8FRKqxApAQspUvaNQvAU/XWFWOacLAqZEshS9DboqHWo1xVCoNoGHSsF4JJUG3RarrisoEG3hcuaVlA4YQqhVQgzuC4qsHrcBp0reRADJ4qthSLkgUuKHBODwtGDOrCj0rpU9QTUwStyWgtV4Q0saA7bEGoiBwy47n4tG3KISrDyHxYvV41iiyPtcAEp1XjN/Qz90fb398h3ML3hj/eU/D0Be6Yid2VUKJgS4JKpgrTdr5hggS6FdqjWQows+NmBRUE7B7RaJWYrn0FWs73fOwUugLWmUKyBj0JebjSq0cqjttH5mG2GEhgVbgbNqgRoAC/RrWocwHTs748Ypp3/gQSgtM8P5uU+/zKz4ucKPLYl8KcHkE7eGwjt+jgDQFzoAWUPlNG+yxaa/nwfF2zhPgWhVLoQAOgqxZZsSsEgYruHlADbWNnJwKg4HHKdB9VCyRmSvgI1GwWGi4tyuCGQlCHDirZOG3RSm4jREtUWGFFPwHAMMi9zi4KDq1HsSDlEcsBCzLb9dR1DCqmDngjcmpNunGZrLuQA5+hu5ts66IxCE0B3MxO0oiuAji6R2MAbUoJuWrEFq4cjvnryYuRRTlXezEiH79eJyEaeASrOe8dZHvoT7UzFFDsykrPyaJPKdqIqaTGQLzPCVvlB93ec4PEOUue2Pctn4M9q5VggSgIgrQbMm2hh0Wvy9719b8rrx/mh/bLb76d3+vp/+zDXo+lRL4//AA==);lineShape=1;strokeColor=#3399FF;align=center;verticalAlign=top;fontFamily=Helvetica;fontSize=12;fontColor=default;fillColor=#dae8fc;" vertex="1" parent="1">
          <mxGeometry x="567.4564062791757" y="269.9865142074366" width="9.849037229018236" height="18.757369002066955" as="geometry" />
        </mxCell>
        <mxCell id="F-WN9qBcaST1U_JZLYBf-205" value="" style="shape=stencil(lVfZctswDPwavWJIghee0/Q/MhOn9tSNM47T4+8L1UNZBK3t5E2WsRSOXQCc+OF9//S2m4J7v5xP33e/Ds+X/cRfphAOr/vd+XDRp4kfJ354OZ13386nj9fn6++3p9lyfvpx+jmf8PuKE6EQZ1Rwf65vItX078XXq/3x8Lq2ZxLf2XtHMWwDaqVoAImKA4BAKXSA4CmDL5RISXqABpW3ATk3jxuACzEApEqhjyFqDB4AHLn+C4mp8DYgsgVkRyluA1hj6OumUaUKAM5mqXgSUOmQ2nkLIJOAGLRMtf9C9eRlG+A166kHlObkfQC3rDeAqEsgaB+o9FkSLSUgn1ePSw+Q9ua+Hshna19ACEsKb/JRrgCPYhPL+gPAoTCkSF0EVRsDruQB8RwFHkoApKDRGX+UV8B/pamxjxQATbU39KTTDuVBPpmi8T+0iO5LuclwsfdUgD+FqrP2GVBUSIr1x4FepAyt0QIqaI8qGj9kSJAGlr9XJYM6Zqp9p1BOoOY1u2Ri0LQBEvkl5yuWVpjVOsg4gyqXVqOVPWosyU4Qta8gRUzM1p5R42oTbxVvAjXTGVxsQhmq2JkS5zaAtlRv2lyErP6sfaLQ+18jRUQ539KxDCctIZKNxtczqDAF4JGWwIyOXIlBCUIlZwAMRwcvm9ayJJRWxvujINheqnsGUkEU24z0CCR9dcCkVZ1koJucbFq1lIKWtTCsg4UEVLpUyn1a5w4IglbmhL7f4R1BVAtmJFNCG7Br7bbZOxIgNRkatooVMFWGVdDBgSxDvHihmOfvYI/Oz2O8AW1EpaXjZp+RfbUy8G3bvm8vlGy9KjpfGiEXilJGs8YNzZFhr74tZLcrFCzYZ69c/7XXh9v97uVwPF6vh+v/7X1QX13vkvz4Fw==);lineShape=1;strokeColor=#3399FF;align=center;verticalAlign=top;fontFamily=Helvetica;fontSize=12;fontColor=default;fillColor=#dae8fc;" vertex="1" parent="1">
          <mxGeometry x="580.7917734455041" y="271.15519853404214" width="9.170869188236633" height="15.370141564355222" as="geometry" />
        </mxCell>
        <mxCell id="F-WN9qBcaST1U_JZLYBf-206" value="" style="shape=stencil(lVfLjtswDPwaXwmRep+32/9YYLON0TRZZNPX35eGKyei7Sl6c5yhLJEz5GjwTx/Hl/fDIO7jdr18PfwcX2/HwX8aRMbz8XAdb/o0+OfBP71drocv18v38+v8+/1lQk5P3y4/phV+zXG1UAhTlLjf85tIcX7xecafxvMjXii4Dl9p+rWHL4FK6vAc4AdypBS7AGHyfj8g6YZNQCVf9gNioMxdgC8kdT8gRJLcBYTUNrkZ4JNNUozkwJakUO6/kIRqBgFCvnYB2ZEHAZxJ+izlTA6cgb3NUhHKoA7sKPWVLpkSqLQ0HixMEirgCJ5KtPgIyhaJi8VnB4hEoT9w9cRg/bxSQiAH1i8t3ws+wgospFzwiQTkU9c3eN0hkKb+a/KjvQCcN1GUHl+hMCN5tviCVNMYv3QK52BCxRJOP5ATYChFZ/EM8EpotgkScAC3UQDGeLOfSBXivRGMdjJQMG4954HQGXUhYm/xDhDOrwQgUPC625XgEyBoIicWX6EgeSVgJPhMpdh8JpAfrb7hW6QCBSkmP9pygWBy668PfEP8TK1dPvAZTZm4Wl/1AvL/v/hgR4wO/78V2Ttvv/9cm0K3+Sy2g+ZlSO0NPeMlklYAjdVge1aszV1sS0CaQpYApgBqFpztckGnHjhDdG29xa0E6LgSW9pNkxCVgS2vOTWlbvParT1gRB6w2MmhZQNJVRmWPqn6QYRXB5gNnpGHTc0q3fFozkxtvFg80LHiazJ4QfhiB5mDxkZlaITGxGj/tbW1Ox7JRvG1z/9i+nec32qSqXMChJiMQDb4ghJUrcUPsFFMfbBPKLbfk/HxBg8vQf+8NOnD/cb1Np5O84Xt8X97Q9NX8+3OP/8B);lineShape=1;strokeColor=#3399FF;align=center;verticalAlign=top;fontFamily=Helvetica;fontSize=12;fontColor=default;fillColor=#dae8fc;" vertex="1" parent="1">
          <mxGeometry x="581.9054332325682" y="274.152200176434" width="13.002222507377075" height="14.553238852493665" as="geometry" />
        </mxCell>
        <mxCell id="F-WN9qBcaST1U_JZLYBf-207" value="" style="shape=stencil(lVfLctswDPwaXTEE3zin6X9kJk7tqWtnHPf194WqoSJC1np8k2ksCWCxADmEp4/9y/tu8O7jejl/3/0+vF73Q/gyeH847XeXw1W/hvA8hKe382X37XL+eXqdfr+/jJbj14/zr3GHPxNOhIobUd79nVYicfq/8HWyPx5OS/tIMXb27CkAQC3E/QGeKfM2oFTi0AECU4rbgFwplT4EPaFsA5KQ711KTE4AwJHkHiDtzJuAGKj6DpBLy9tNQCjkagcoiVwGAPW456EyVbcN8Il8H4MyIwjgKEsHkEAubAMcsbEvbWXD3vU5kkRSkX3qWdNaRBFr1az8L2D/QFxW8XpQFZYy8ZSBP5oNtvYJUCytABb2AvxhR4VtABkBmIRtRlEEKvVkAIkKCEEB0cSQSYBw1KViALX1j62go2FZ84b6UauBhX0BB2SqfcjstHABIN44AOpsRYJQBDJjCmIzhFh2K/sCe9cc3YKyAGXpjWwSMbDnlcwiZHgW1aKqPWilOqBMW/F3CDYDbZQlyH9t7Cz3RxrQBK1kiSamaiCtMuQRwDeCFhQELMsHAa6pdh4eQhmRnFfTJkKA0hxTB9B7gAAa/Pz3DPBQNyHbws46P/AQN0wnndLg5pJWEydWOPWza/eU+aqjzQu4lIVqf8KYBkCcJtHwwHr5QdU95+Sz38EpLq55PAPgFFf7nIx9AO1LmGK/v445kKJRvc7YI7WNMzIbe3QXHC8dYu1Be9Huyf6R/Qv5+oj/lYKNF+ZH7PX6Tv5XDwTM72I8zjUK++8NQIBCfvjJctdePz7fR2+H43F6Xi3/t+8pXZreYuH5Hw==);lineShape=1;strokeColor=#3399FF;align=center;verticalAlign=top;fontFamily=Helvetica;fontSize=12;fontColor=default;fillColor=#dae8fc;" vertex="1" parent="1">
          <mxGeometry x="589.2686007199923" y="275.6009376791134" width="8.891836560444919" height="14.939665736499004" as="geometry" />
        </mxCell>
        <mxCell id="F-WN9qBcaST1U_JZLYBf-208" value="" style="shape=stencil(lVfLctswDPwaXzEkQBLEOU3/IzNxak/dOOO4r78vVY1kE5I2k5ss7ZogdgGCO3l4Pzy97Xcc3q+X8/f97+Pz9bCTLzvm4+thfzle29NOHnfy8HK+7L9dzj9fn8ffb08Dcnj6cf41/MOfkWdKrAOLw9/xDVPh/y++jvjT8fUOH0OgEDqCUgYEM4qlw8dEOQBCIpU+IqZUtglVKaSOIExBtwmqpP0WElO0bUJRH1KOpHGbkCuJdYQSSEBIef48E5QsbRNaxJV7GRIJIEgTus+SGhkQriXRCVcT1bpN4ELSh2SRTICXKtXYEyoxIhTKfVpv7loniFe6ERToEAOl3Lv1Zvh1M1FUv0IFe0jE7PGMIqJqPkcCVGgb6K06VDhI0aKcrVAAtghUehu1eq0gP0xce7zA0mnV3wtgDF2n0+p3eAG1HCMFWxDABlq7ksUKBewgtn602DKDLcRm4kVOkWZNBNe0LU+ybxHErVCo4JCkL/5mo4psqpQWtYx0a2nVRSHAtEbK2RMMhNR6yRIPkpQpLvAJOIkpV79j5Oyw6HZKJcPKdAkqlECHbxq7/8/wVItUXKdIFEA8n8UrSY+vH/Te7I+0ylOzXBcg+tpvJztUrFLpXa0RNi8ppD2hzEGud6/sS/k2CqybTsh6FyWbOuD6LMJkfUgJjxYayPqGJ+2MAHvQMk0e8wAW4TxVF85u566hiW0e6Galp1raXKDHC6ychlc/1BqQuUY/6vDUC7biD27DlFCCxPfrAHvjMGh5PFKslqnx3PAR4VsdmMOjGcfCCh7oOxyQweEZFIEtjtgwzW3r+OzjidNwu44vfgycp6p1/CcvRR/j28PtBvZyPJ3GC9z9d39ja6/G2548/gM=);lineShape=1;strokeColor=#3399FF;align=center;verticalAlign=top;fontFamily=Helvetica;fontSize=12;fontColor=default;fillColor=#dae8fc;" vertex="1" parent="1">
          <mxGeometry x="595.7336517177946" y="276.45524788526063" width="5.8471529897292385" height="15.493874938094503" as="geometry" />
        </mxCell>
        <mxCell id="F-WN9qBcaST1U_JZLYBf-209" value="" style="shape=stencil(lVfLbttADPwaXQnum3tO0/8IEKc26tqB47TN34eqsLaWkqbITZY5NjkcDneH8PC2f3rdDZ7frpfzz92fw/N1P4Rvg/eH0353OVz1aQiPQ3h4OV92Py7n99Pz9Pn1aYwcn36df4+/8HfC1Uo5jCjPH9ObQC79e/F9ij8eTvN4R6GPd0yhbgPEUS09QCjnbUBxFKUDeCEv24CsKaW+BCH224DkyfsOEAsVUEOMLYEGSJkSbwNCIXEdIAeSAADKek9r4fZmFaCccE9ryY23dYAm0BctvrVyHcBU+hqkUHXbAO1r7WuonmoEAKYYe0CEtLpAqS4AoNNO25QtAPXB1aacGyBBeY8smaIzOVC0V3mbGgoxoFUBPlpABSxpSsw9QKggllStJqUKi3aplTgDQFo9cQ9wfMty3Taa1Ob/gEyAWGw8Ggedhmg5EuB7fiFVHUAYzyb/Qq6g+Gx6lskjS2ouPdNpAiq6+dVsENAwK3uL+ARcWzuckgWgBqiGsrOAgoZfrAlryQ45HpPPFoA05BeLRJuABmec5cVoZjTL3Jo0k1FEtOqu7G1ede3QaKr7LAanINcOxIvhr6hxXwUs7Uj3Lxwd40aCDTJTNfEO/r5K1fW6KNjj1R9rvxSyNgHpIlA2AN+277obccv4dsBI2L7E7qmoUgVFxwVLIUPD0xOO9G3z2gbg8TnbA4byFsAmLMkOg7Qc11dCsCQ5aBiiHskmHlmwqAp6g2E4OXdZ3uNRvSJtbd/jHci/sj1P4ZU5nraqjQf5jBugmHiPVkK2Rx2GK0etzdt6KxCQ2ojxa7VXHC9i4pF+ZkeOm6QpAUF8+W7033h9uF/EXg7H43SPm39vL276arr0hcdP);lineShape=1;strokeColor=#3399FF;align=center;verticalAlign=top;fontFamily=Helvetica;fontSize=12;fontColor=default;fillColor=#dae8fc;" vertex="1" parent="1">
          <mxGeometry x="602.0036679923069" y="276.7840359913969" width="5.271071811362029" height="18.623941292300437" as="geometry" />
        </mxCell>
        <mxCell id="F-WN9qBcaST1U_JZLYBf-210" value="" style="shape=stencil(lVfZctswDPwavWJIghee0/Q/MhOn9tS1M47T4+8LVRUtQtZm8ibLuxKBXRwa+OFt//S6G4J7u17O33e/Ds/X/cBfhhAOp/3ucrjq1cCPAz+8nC+7b5fz++l5+v36NCLHqx/nn+MTfk88qVTcyAruz3QnUpJ/N75O+OPhtMDXStLjvaPx5ybBk+eekCm6bUJhyj0hMPmyTciZOHQE1iP5bUISqoZQyFVACCQ9IUYKIIaYKfdZSpoGRPBUU08oUAc9cfYdIUdyQAeOJKUnCH5DoBo7QkkwBs26eUMREpDWIOSlI9RIhQGhUOx1qEIhAQJTrR1B8uzfuwRPoQ9B6wN5rxmt4dVJEeFdL7Ok2YsbeONUiZTB8wPFXjNp1XTfd3O+G15VB6ZQAbLFJ5RPRxw/RWByqzdAxRJxWoUMUqTtR/Iqp8BEvqyShEVTQjIuwq7QIyVjI7UdqBzfXNAIWkug5fkwP29BKOBIQtyH4J16F+iwDkG7LKgctnNE8YxUoLpKUQIRu5VT1bugElp0i04RID4ajRPsv35VyZoBIID+6y0edV/Nv3l+gO1ds10t/n/GNh0kllBQwK2qFhFAhdcW0ikLQvg0ocwZXGiGxrj3dhWphQSF0DRtBKYEXORXu0vRhQxVfl1N5QjrUo1nVpFciREhzb2qEdQZeIznvhRSIgFBj6tI/4YocMrqdsS9DrG58T6h2inCCW94cbV06iPQ0ump9OUwzmpQP1nsnFKzoA5cyrw8NR2oAt3UmuZEHiZ13OT76nGUQQDi5tq64VGxibdOdbMo9/FsOzYeONIUveHRCNR+nuz5GeRH54WZUG5O8H18nVvDLf8M+qPOu5wNHg2ExQBulqOMX2AOxB8dKDmDFxzwpz4dP8brxe079eVwPE6fucv/7Xet3pq+ifnxLw==);lineShape=1;strokeColor=#3399FF;align=center;verticalAlign=top;fontFamily=Helvetica;fontSize=12;fontColor=default;fillColor=#dae8fc;" vertex="1" parent="1">
          <mxGeometry x="608.5176380129296" y="279.9737442418525" width="7.330466872703362" height="17.26298657809754" as="geometry" />
        </mxCell>
        <mxCell id="F-WN9qBcaST1U_JZLYBf-211" value="" style="shape=stencil(lVjLbhsxDPwaXwlJ1POcpv8RIE5t1I0Dx+nj7zuusfKK650it43N8ZLUDDnKRh/ed09v201w7+fT8fv21/75vNvol00I+9fd9rQ/42mjjxt9eDmett9Ox4/X5+vfb0+XyMvTj+PPyy/8vuJakxovqOD+XD9RKfrvg6/X+MP+dR4fpYzx3osr64BaJdcRUCVkAgiSdACEKJmkVLJoGUtwoo0AkHEeAUkKSSkXW3R0EkhKOUkzgCiBdCmjxDAC0KVKAOjSCEhRKqvBS3QDIDuaUmr24NAGdtKpSGwDoETxpEsA+PHgSmfj6htGatQokaWUpfkR0MQ5AvAW0FSSXwfEPMmlA5BkWAdoZ07Xg3M0J5z02KXWFXI33i3ivQSSUX/7rEeFUM8telpFCfN0enuPx7mTlmbLu5rFp/V4j4QMK5Ikon+frHYAiAzQpBULqCQl1FyDrSEzAL4utkmFpBQwHhbMZl0KfZ50WjjJjHZZqgFAHCwlqH0cq9COJ8QIfUzPAOwNOLhmUorTVLsP8KILgJIJgwlXbUaVaE0tk6DNRriNzdNsTzPVmjPThQ9tJzFZbVai/SBqWFQksfk4zbYZryOzC4t8ErUXXu0JX6RJCoaZSAvxs46i5Ky2BEaJ0KU+65GyN3wWAPcRlqwgLEINbkG7QroE8duiwQtyzthSbUzpsmnZWvNWCdjlzLUpMjYApWtKOxG6H8kTe+8Dip3asDSV7XJszpF8SemYj93fdNfGlz/cghnCESOSTLzYJIzLWasUJlBMpJF8qlMb1myeGZEgSyJ6gLfNo7fFFHSkrbDbaazBw5aRLsHQG0Cja6E68aaEyQKtxRsH46ntxI3ELDZPD62q3ZzYtOzGg7WWTDwb8tBusPGO5N/662fxhEPYeWbroMHs95N1eH0N3Y+H/7PxjS2ROtm5W/+ZAcadNlk+sMkyM+A3ANPMpy/N/43Hw+2G/rI/HK4X/Pn39kaPj67/DdDHvw==);lineShape=1;strokeColor=#3399FF;align=center;verticalAlign=top;fontFamily=Helvetica;fontSize=12;fontColor=default;fillColor=#dae8fc;" vertex="1" parent="1">
          <mxGeometry x="606.0364507240954" y="277.5411125438984" width="5.775668821759422" height="18.32579167119267" as="geometry" />
        </mxCell>
        <mxCell id="F-WN9qBcaST1U_JZLYBf-212" value="" style="shape=stencil(lVfZchpBDPwaXlUazf3sOP/hKuNAhYALk+vvow0ejLRLU35bY/WMrm5pVvHhbfP0ul4Jv52Oh+/r39vn02YVv6xEtvvN+rg96dcqPq7iw8vhuP52PPzcP5//fn2aLKevH4df0wl/zrjeqfQJJfz3/EuizP9/+Hq232331/aZWIx9YJIAAEyxWEAmqbcBLVOtFtCpRwAIFJoBaAwJuFQzpWQBnRgEXdQlm6RYqDUA0KDtDSlSTbcBWW+wWcpMrQCAULE35EotQ0CIBlDuuCQkNujS7wEKG4Am+v2IZUCkkA1AS/neXcsAzYkNuhWYpZQo2ht6gM0XtTVs0L1QBzFEzZINurfR8IsAqZRseysFI3BJArXgAR1kSfnVeAYAraEM5plLCfUSSfQxJ0CH4Bnd66j8ov3cn0wZnM++U3ukDjpVKFkN6wIFo5DYttMuCuD8EDz9VQUFJah6CWtaMqBIotSp/gYGKZVGZQaoIOaoN7APuoG2U0lk9lUQ4FKsszInyGa9wXOtwL7TGDzXKm6M7uugTGBwg9bB6bYCGiicVtqRMzDD4aPN1Gf8L0AwyqjrFTvRZJCh6ldJKqDQPGNPoQA6iWd9ke6oRXb+C+TCp+2ZigU0pR/Q+KlmDiCj7MuA5vlf6xhEtwDVKmoVOGt1JfLTvFABS9K0Q9lG1R1FEBVkNM1lwYiDHDcHm81SUtUGNyg7s81SbNAl3aHYsjPyqP0y4DKWLoueCgZojZy8JGkaBK1hjbpbViveDOMQ0QsgQpdKo2wBbWx+y8uteI8Ebgs1jbnxYc9AXXSnc32hww6d38YQGPY6d0C80zYfnT2qQNMVLzh7tEMq192WiuVXx6QrGEOx0KHn3grao8i+eP81ASBeFXNx7ylq6Pzu5VGVBW2PPNPrOPTy1gWfe0HetdePj+fqy3a3O792r//vn7f60/lpHB//AQ==);lineShape=1;strokeColor=#3399FF;align=center;verticalAlign=top;fontFamily=Helvetica;fontSize=12;fontColor=default;fillColor=#dae8fc;" vertex="1" parent="1">
          <mxGeometry x="600.763756142338" y="276.60423340916657" width="4.6345259150581" height="17.019511826087022" as="geometry" />
        </mxCell>
        <mxCell id="F-WN9qBcaST1U_JZLYBf-213" value="" style="shape=stencil(lVfbctpADP0av2p2V3uRntP0PzITUphSyBB6+/vK9Zh4ZTgMb8boWEdaHUk78NPH9uV9M6TwcT4dv29+717P24G/DCntDtvNaXe2p4GfB356O542307Hn4fX6ff7y2g5Pv04/hq/8GfCqVLWEZXC3+lNIuX/L75O9vvdYWEfQ6AQOoCQ1tsAc1B7B7GQNAAQKrVnxFQBJW1Ueg8cqSQAyCQOoFSQh0Shp5QbhXIbIEapdIDCpCBoSVRiB6iWZ70NaHZu3AMKpNQqtdYBWiIBQTehkHqAZSlASrX3IJlyhpRYOoAGYuChMhUHsHMAMRSdc3IBCCUEiNRyD1CK4Bxyohw9QEAMnGbGFz18SuoqIkWvIHPRQDFF49RWQaCoibPPUgS1FFdZrbBpWHzu+4VqBBFT7ivPFMvAvpE6PkwRJaj6MzCFM+gYliFxgEgCSpvr/L0FoKE6qpSDpxRBXy3Fy9MACmKokVLzWVJAqeZZ7otjS4CSAdh5qFSRngOp89BIQOGVS0NZVKqCyshWaK5jWJdCB1fmSbAAqMDS8GLQebxcLz5T2wrAwEPznX6ckFA9kX1SGRzbaqDbqaFJEuciWKizoZXhUfvsMyqC28Wqv4yDB8k5eQ/jOMX6T31ObXhmcMjMvqWaODIaCzap+kK12ZVxZUvvwVaMDMrIRpuLwXqOAA/2Pek7jJFk0FZNneoAeBEbl6I+hjurXkme0p1lsqz2KrytGiPXVfE6bPbVr88JRbzqR3Hedq/bC0kvngD3SNuQgrdHO1tdLXkBTs5mNVacPdpdTFcrPsh+FK4+wEd0zQfFayOvenuUT2uFbvDj87LWLL5+UD08ev26b28Pn3e9t91+P10Vl//7u6G9mu6V/PwP);lineShape=1;strokeColor=#3399FF;align=center;verticalAlign=top;fontFamily=Helvetica;fontSize=12;fontColor=default;fillColor=#dae8fc;" vertex="1" parent="1">
          <mxGeometry x="606.891509047934" y="278.78087080405305" width="2.2250922016029806" height="17.519892729801207" as="geometry" />
        </mxCell>
        <mxCell id="F-WN9qBcaST1U_JZLYBf-214" value="" style="shape=stencil(lVfZctswDPwavWIAXiCf0/Q/MhOn9tSNM457/X2heuiakLVu3mQZK+LaBTjFh/ft09tmCvx+Oh6+bn7unk/bKX6aQti9bjfH3cmepvg4xYeXw3Hz5Xj4/vp8/v32NFvOT98OP+Yv/DrjWqPIMyrw7/ObSBL+vvh8tt/vXq/tmYIO9pVaW7evgWIb7CUTx3WARqqjQ0GoghOKfW88IVhMIISsJDKGXEgVACzm0aWUKMk6YP47DoAcSMo6IDaqZQAUJskAUCiPLpVKjADmwFg3zVTSOsDqmvJY6EAZpDVkCmNaq1IDLoVAPAbdrFlAWsXqmkaAkoJeYmL29gIKzZTqaF8ogAiEmvt+pgRSlEicfSKtoLWpZm8fgb11kXr7AOwlUE0ekBAg+6YwQAONLeqZYCkqCFApF1+DDGpsAHUn2JnYpeYAlSICWBM4QCNBLpmEBQ9QBgCmNtZB+NK7t1XSd949gInk0iXANeN6W8QM5IKp1kVSIdU89xV2HntxmdsCUjMu+w58P1Jw8Vpjo5nQZ9J/Mqd6gb9HTVkkFHNfUpfza3EBEchSXTKcasY0n6MLM1ap6QAKp9rHAQsBLr1vV2gjjgXS+3CtCmkx0xgovAmkuqkpXWPXZpqrs1rjgTrbEOHxhKJdMm8D1G9guVECSYri1ShLXxJvA5TK6FKKkPwp+UEbMxR5W58c/QPeLWx9ymOlTUEQfWx9UifBsW8bt1tJ+wy4FA4uYLX0qXQ5AJKnLsrGcFeo1fOf4S5ii7zzn+GKakzR6uwRE1r0GyoeUCY+4r8vQI2M6RqcPapXq543TAX0qM07Hpcp6feMNXu3hwhlpNe82E5DXw/XDnB6HaigAnz0ZnfX3h7+XSNfdvv9+RZ6/b+/dtqr85U1Pv4B);lineShape=1;strokeColor=#3399FF;align=center;verticalAlign=top;fontFamily=Helvetica;fontSize=12;fontColor=default;fillColor=#dae8fc;" vertex="1" parent="1">
          <mxGeometry x="612.1444932042225" y="281.51630876145407" width="5.987588856201803" height="19.53086427386191" as="geometry" />
        </mxCell>
        <mxCell id="F-WN9qBcaST1U_JZLYBf-215" value="" style="shape=stencil(lVdJcttADHwNrygMMOvZcf7hKsuRKorlkuUsvw8YmgoHpDrxjaLQHKyNnkHvXvcPL7tB+PVyPn3d/Tg8XvaDfhpEDs/73flwsadB7we9ezqdd1/Op7fnx+n3y8NoOT59O30fv/BzwgVmYh5hwr+mV0Kp/XnxeQIcD88LQCtUc2cfAmUGAKUW+wOYEgDUTEk6gDIpAJRCpQdEA9TbgFxJUwdITEEBgElCD2iUwQnJgu6zZGe+f2ITEBtpf0JJJAIAibR0gBqIQeGilamvQ01UgUtaPKAJNZClVSdZrzC0L30VWiaOwCHSvswtUQD2haKzjxSBP0Eoaw+wMoIqh0oxeEAFJ0ikkLxLDKosjSR6QEJFUwrFJ0kSAKR5GBdVeP/ENsCK5IIuFDIAxFVaK6ybBk8ABkB1kEyt9QAbT5RWO0E9oIGgQ6Lcn7Agzm2EMQr7IwqoXPKcZPaIkwK14JOkIGZeNUaZGeSGvbicZlJQZiGpvvEi8Cet/I8z39xKaF0BEOGFTLHn4HE6wShshGDzj9rIGHI1zoqmU+ZpXwBQZ9vstBXnoRjG6VyRKqKkDwNkxRcCWdvkgeO8GmEIoXjOqww71RZD7F0qV8q5xapu/LNJCDDMRpKOwmz/M3ApKqU+BlvwEWQpybyarqKnzevxliRJ/XzKPwBl9nihwwQEndtcpoXSiyDowhT7+ZF5ArftgxcMATZGEU+RYeaobXtb9729KQ5kXzxF8txY20KVvQTDKrKqTyheIbX4vmYoFpoxZPT+AHJZK/NrAbftTZh7/yu6Kpg8cktz1kvb9ra03dUCy6+P3l3+A2APf69KT4fjcbppLf/3Vyt7NV3L9P43);lineShape=1;strokeColor=#3399FF;align=center;verticalAlign=top;fontFamily=Helvetica;fontSize=12;fontColor=default;fillColor=#dae8fc;" vertex="1" parent="1">
          <mxGeometry x="616.8622653242196" y="285.90307932293445" width="3.060043482531883" height="17.825764800719593" as="geometry" />
        </mxCell>
        <mxCell id="F-WN9qBcaST1U_JZLYBf-216" value="" style="shape=stencil(lVfLbhsxDPwaXwmJ1POcpv8RIE5tNLUDx339fWfrrmtxNxPktrY4kkgOh9TG7l53Dy/bjYbX8+n4dftz/3jebezTRnV/2G1P+zO+Nna/sbun42n75XT8fni8/H55mCynr2/HH9MOvy643sXShNLw+/KPSep///h8sX/eH27sW5NcB/suNRL7KDkP9jHPO6wCapLSBoBii/Y2oFSpfQRU6YUAggdYkmpvA3KSEAZAimLE6VQl6Qio1OmkEsYsZKSBnGBNdPQhN0nEacsSRx+KSSSJNiyPV0KgC/HBopQx0zVKzQQQ5gtcAU2M+YDEjT40peTDlf4tXwHIAzsBZHbsBh1ZpqPEMgKyNAaADyO9e5XAotTmqF8BjScuz/tdAV0ioTfCatEDWOI0SbexpkOYS2QVEfssKjdHNHJETJKTB7CSi0GK+jClRIRJovo8GLHHqrMvEpnw+QIFkxpJGxxwQe0mjcUUWXDEUKp7SELvHsA0Q7Ok7AEsRrZQVgAKo97yBBMlYo9q6MmHVcmVUG/NXQlnkrBOFT2KDBJdmNPddzgwqTGny3yBG6qyYoCMdacZnbZELVKLBzBqoMVqXQCI07EsooQrEadjXOhemy/5Rv14JUafV2q/0FVmD9FzDigdfIKfAaZWwhTMNzf0KtZJdCbZTTMMxL6ILbot1yMnL6XMrFq/v/o2UlSUyUvxk2RGhEilTaQbJTVDXhitq8QxxwmlxEYSKOhIIsgB8wHLNgKwBZswcIE6+oDEsOLHXGdjHiYmEgCmVR2dhvArcRpjmnO6zqlfb2zNz54Y5EiMaved8B3iRT9IhnlQXLc3L49hbqXr9tn3QZQqiQ9eMKV7e0LTHv0wz/dHB+t+f2P7F9H8gfhAN0P9QPyXLzye35tZ7kpRSrhVABt1PvrmfN8eH/8fuE/75+fL+/h23T+I8dflMW33fwA=);lineShape=1;strokeColor=#3399FF;align=center;verticalAlign=top;fontFamily=Helvetica;fontSize=12;fontColor=default;fillColor=#dae8fc;" vertex="1" parent="1">
          <mxGeometry x="614.6492446936234" y="284.9646949059198" width="4.441203773285318" height="19.63733022464446" as="geometry" />
        </mxCell>
        <mxCell id="F-WN9qBcaST1U_JZLYBf-217" value="" style="shape=stencil(lVfLctswDPwaXTEgQRLkOU3/IzNxak/dOOM4ffx9obqyTUizjm6yjBVeiyU4yMP79ultM0R+Px0P3ze/ds+n7SBfhhh3r9vNcXeyp0EeB3l4ORw3346Hj9fn8++3p9FyfPpx+Dl+4fcZF5iJeYRF/vP/FTX59+LrGbDfvd4AWqOSO/tKqUL71PrvJ+xAqfYBjREVAEgksQeYT+ChKqUeIDoFuQjQRkE6QMqkwIMyxdoBslAFOZRIOXWAEigAQK4kfVmLTj6XAYW496DmEySdkw9Jy9SZZYBQDD0zePrEMoAn5lwAhRR4SNamnnstUA0AkHzSLVMBSRtAnIcGc5hNT7MUQBusq+oDUvB9a4KLJ8GMmx8es2eQcCgkpQcIFRBQFE8LA2QwC8JU2AMUUFvKQg6CaBE8j6yoAQHSNFs3XWPQtTRvg1JAbYtUeolplUIGSVfKLqRGHAEgTjy4ARRQ1pgnFb0I8VX7l7lRJ5H7NMLGsa4JqlCIs6wBmSKxrikre+G+0zcTLBcPJoZJnqMqZp7O6oOpbWelTxgPzygw4gFoPO34dqfnHQGQtJADkpg0bwLWsGQRB19VKJKJigsJq/BqQKDoRE+pKZJtnqVcQJ9Ntl0TAjEokck294CKiWqToz1T7XBGTLXRdLyw4z8hQWJfI1swIpK85NewUqiBkMTWOrckMaSq7QvcS57tKAKGIdt20I+bLXoReCg2Kz1VbZVkQAydLQzW+4gUI1Jz222Aq6SKn887C7cB1HEJbvRmL32R8I1BL4p1tU8ogTSx4GqPzgTjpYsfs2Lc5r09IkUN/uC0yQGzWfM0iVd7dGjWSrGtsDdpSGFFPCY9Ma/I16SweHtUz1b9+oX7Na4EYfg8H1ZfUT8BsIfrjfhlt9+fL9S3//sbtL06377l8S8=);lineShape=1;strokeColor=#3399FF;align=center;verticalAlign=top;fontFamily=Helvetica;fontSize=12;fontColor=default;fillColor=#dae8fc;" vertex="1" parent="1">
          <mxGeometry x="619.0500513999275" y="287.40063951907155" width="3.1994715072892177" height="21.932018838465545" as="geometry" />
        </mxCell>
        <mxCell id="F-WN9qBcaST1U_JZLYBf-218" value="" style="shape=stencil(7VjJbhsxDP0aXwlJFLWc0/Q/AsRpjKZx4CRd/r6cGnItavzG01NR9Db28I3E7XHZ8M3r493LdhPc69th/3n7bXf/9rjhD5sQds+P28PuTZ82fLvhm4f9YfvpsH9/vj/+frmbJKenL/uv0xe+H3G1ki8TKrgfx388pfDrj49H+afdcy8vvpNPxPmyvHeOnOsPcFTRCYVq7QGJxEFASB0ghHbJeUCmzD2gkEQAEJLcAThSrgAQ2usGiI4Y6eAo9FaKQhGcUIS410HUrOCEEshJDxAq6TIgV3K90slRAY7LkaS/UhJKIDayp9zHXqqUAUBfS+gAmZtn5gF6gf5KOZNjAAg2+IrGL1BaNHJ6HdQz6AQFmOArhTzwtFrdZFzVFBWoQ+hPqJEqshIT90prhsArBYrZAlAsifq1T1FNWpTTGpvRKH0Kx1lArJSqBQhwXFRPswUUQAIs1g9n3DaLCGqUvA7hKMqaS3leqXZukXClXdkm0ILjTtx+ZWQM1WEh9FTe6MsUCrAopd5pmm0Z3D+SN9l5cuI8rbbCcSbvQfp7aeXyBNDqBrJZPVC9BSALsRpkOMEjlTWbkwUgm2qlMUSvgIxIMrWe4sxKDKJCOc/3YTGRJMgDBYx+rkiHYgOpVFjSJVAxjORghdYCzgNvo+TnRNFZQACxp61XLWsAXpVOa66krZppfBaUFgqrrBpsB7DgNh6+vxAXrZ+4MvB8sJS9ENoT4Q25gJKH3cAwOD25UiwDAAVeaR3LlRQjkYpYKyES03JuOu4FltT0HP2MaHg9gFt/fWVh+EubHlM8F5ue7Czgf9PzzzU9nrwJJG3owffVy8agvml0gbXNWFUKHHrqMPPElhuX6o7pMHS4FKQA23KeU+s55gGaCQaA018H+DDMnhEBqi3nOlwyAMTYCsfZ/Iy8EE9BdjahJ0Qww5ZBOzM0cEu2BDM1KWiUdDYyomv7okskaXh72pSAXUyKNrYXdjFpSM6Fbc800psFFN4nJU/FLKDwxkpPYBNLcCc2GcmQKty5qcohGvmAlhhaz3uNHaSjlG3tdNAFWV9XI49yLUfbwZymuHl5LfVi5dFqi1sPeKV8tssFfB9lz8E+SF9l58E+cL2Y7SyC/aXVKPX2wfHwBzveBXl9+L1Qftg9PR330efv7QJa/zour/n2Jw==);lineShape=1;strokeColor=#3399FF;align=center;verticalAlign=top;fontFamily=Helvetica;fontSize=12;fontColor=default;fillColor=#dae8fc;" vertex="1" parent="1">
          <mxGeometry x="621.9488335451942" y="289.1559201400138" width="2.388670454337818" height="26.706235325668118" as="geometry" />
        </mxCell>
        <mxCell id="F-WN9qBcaST1U_JZLYBf-219" value="" style="shape=stencil(lVjZchtBCPwavVIMzPnsOP/hKsuxKo7lku0cfx82yqx32FWr/KaD3gEGmmZ3evP6ePey3wm/vp2O3/e/Dvdvjzv9shM5PD/uT4c3+7TT253ePBxP+2+n4/vz/fn7y91kOX36cfw5PeH3GZeYkkwo4T/nX5hq/vfD17P90+F5YZ8T1TbYKxW9bF8KxTrYZ0rlsn2NlNJg3+Dza6U22gel0C4DWqCUR0ChwAAgJGOGJFBMEBDGEyxmBjk1l3xOmRpyKVDmEZAoYYCOWdLWz9xOayMuAyBGCgEAtJfNDKjEuDDy6FKyNIATcusOzIBEMQJAoKYjoFIFgFSojGmdHiEAEKmMWcqRcoWA6ABWfCBLFqKMMVgaBJ1gaR2zVIQqAFiI/3MyA6xaQXmbA+7iSqME0mrPC+MJVWBaS/WcVBNMqznQRpIxWmAAqMG71JgEBG0eB0dLRgugp60fogNE2NMys9AMyLCnNVMVD2CQVmtIRzMtQW7NQhw9IAPyLnHjhIrYO28ELYjIrIGaBxRExsYaY2k0m0iAZgyQ3QkVMp+F2LIHFMStldS51EhRWo2XogegE2xIh5FmAjMxyKtxrw/CegocYfPD9ejkE7gIm+NBV1GDcrUp23iVV1BMofrJbgAGxBTaqpgKKQBI7NplUX0ZZUlJVoAAaMOmrK8+6yB0ccb36gEZnFC4J3HJApj6/AlX5Ix47TAxGerRugKU3rXbF/dRzQsEmnL2d17VBtKhppjEXUS7piuVPwPQTqXLiwP2Nj7Gwd6suJCaoeoGUOjFuE0anrtNAwbw/OqHg5E5muqtq4rZPvbV4MLznca1oY0KWz2/mIxA43BVQgX7I37cloBbmfKYn0m5oWnb+XYhDZGADkzRqVUcQMi9XhbytiAGnpXjQkAncILabuUU9zyJtnPEnXoWS0AGQcfSdd28ZhQoq9JqtzKKRfI22T479tmVVckAOqb1yjKWhMoYw5V1b4phBEwLJVoCmHS8h2llRdxS/CS0pRgVazSXnMLQrmouqVW3NVj9ova0nPh+g1NH5u1xvmhSJNC9Lgx9NdsemxTVmSNyL15OcWfvC9zoZjJ38tju5NVIZqhprfNXL3kESy+3HjGsNytHSd4e+LPmCaxONXtVxLAWrDqjjxfdVkx+WWMoyG2TSt4+owb+5Eu26/b24eON3sPh6en8QnD5v38DaD+d3x7q7V8=);lineShape=1;strokeColor=#3399FF;align=center;verticalAlign=top;fontFamily=Helvetica;fontSize=12;fontColor=default;fillColor=#dae8fc;" vertex="1" parent="1">
          <mxGeometry x="625.0477779868156" y="289.73103028844866" width="2.0416999862193146" height="38.194821579088114" as="geometry" />
        </mxCell>
        <mxCell id="F-WN9qBcaST1U_JZLYBf-220" value="" style="shape=stencil(rVjbUlsxDPyavGp8t/xM6X8wQyiZUsIEevv77mnGJ7FOzgY6fQuJF1vSarX2Jt68Pt69bDfBvb4d9l+3P3f3b4+b+GkTwu75cXvYveHTJt5u4s3D/rD9cth/f74//v1yN62cPn3b/5j+w68jLiYpZUIF9/v4jRfn/n7x+bj+afc8rg91WJ8kV7I+SmvDepWcyfoszo/niRKVAKpoHAFKASmKjhEE7BDXATlIHo8U+A4FKdQBEIMoA6ikMAKq+LIOqEncCEjYMxGA9p9nQKJBa5A48iJVWjgtUvIAyE6UxNCcjSEjKnKkFsWbHYo0wtUGLhlAk0Tq0Er/uQNQyuIJADkZ01qiFFKHBuaM5CtZSiCAZmMo2LNRgD1S65W5CPDO9Y7viOopAluYQtQolaepjh1Us1RWuSJ+DKJWSSxq36kzy4yjgInfRpdmXVjtoDFLisoRuiInZSy11t7ml1Wg9H7pALRIJEcCm4MBRLoDlKyNR0KiM+nRpFbt27znRcCCSiC8Z+SzTGpcZZIlN9Y71j6iYREwoYWHAmQLiKShQ7TUBiCwgejs+JlUh03ceRScAVi3YRS0YJPkyZHSwgNMDUuonbL4RZlZljBzvVpAI3WLbbEDpJscCT4jLgBK0hpKn+GzbzgJ4WVuQIrrxxBBfFgcipQO1NFF1Ix9ViantJL1btFu2sf8yvpskgpiMPe2KHPt31zWyG6LzqlNaOGT+GgBrHkgMFbAeHue7Om5ADDiZQnOAjLzn+6ShpEY0J5WVGfbsdaewdBOe97+E6BP77P1TJI8hrFRmCyNAar13C1QnxRyH2TztG1SSZIgGMXM88IBanVYkzSWJLXjWX2fLpfHM8pgXI/2NKxdNPzIbvgqZnDhTsPYP3ApbN6WZG9XV7wh7KxpuMl+EokBoBq/Wntl1mxSNI6YG7FS7UVjMunsSDjA6A3LlaDV9g+sGfNVZWEmc+0+fy1oM0lwWfLEyCBEI90ZFpkc6XQ1OrvwMa0HW423glBlUji4zzJyCU4lMLNX7d0HXiiRfoBrMJYbXc7u0TBjbSQf9J/d3zBxzT0DMy+ziZWtVHpc9skAgmcwQua5qffeUoO/sECL1TwF0BecSbvHKvAXoun/jxE7qaQGOL85DwYkaWe/YLajAxoVKGrWMzfsF7LtaONMdxh7HpYfpNu8cF1Zj2th/sh5ZqP8vnjj/MTxvnyipYzC83rFJNH+f8aHf3iRvLIeH07Pnw+7p6fj6+n57/a5FF8dn1rj7R8=);lineShape=1;strokeColor=#3399FF;align=center;verticalAlign=top;fontFamily=Helvetica;fontSize=12;fontColor=default;fillColor=#dae8fc;" vertex="1" parent="1">
          <mxGeometry x="628.4007908479075" y="291.23388913393126" width="3.4390723752221675" height="41.38531069644494" as="geometry" />
        </mxCell>
        <mxCell id="F-WN9qBcaST1U_JZLYBf-221" value="" style="shape=stencil(5VjbbtswDP2avBKSqBufu+0/CjRdg3VNkXa3vx+1QK5Fu8cN0AED9ubEPBavhxR3fPV0d/243wX39Hw6ftn/ONw83+34wy6Ew8Pd/nR41qcdf9zx1e3xtP98On57uDn/frxuku3p6/F7+8LPM644Emmo4H6d//EU058/Pp3l7w8PM/kciP0gnyjF1+VTojrKe0ceHJAc5TgCEkVwQszkxxOCowJOiJ7EjYBExQGAajyqxI5cfR3AQjWPgEgB2KCAFEZApZQhwI82RKYKjNbv1dGGKBQEGl3HE1LsSq4DmMp4Qto4oVIZjdbkqiiXYk/NCaCpUUCyup6bE0B6dq0DmKQOgMI99uuATNEAMgyc1lvkAVA1lxgAKrkxvWskB4zW18mcUHpk1gGZ6ggQrUF0Qu0KTACmDFKjaraOkZZMDqSGKuDG5JNC2UOVrA2VPCjRmoizBRQUB7FEJpregDVKoCgWkIDRmnymRGXikdfqgQ1Vuslx6yWnuVEuQnBaxBorFbQiwiVm+wWVNceCWHu2Vb0ROu041oaN5KBqIoezTxsOjyygBSGg5ELsHWoGQDZzsGwsAaqkbJyrBSCbU6ZgCsL30WA9XacozU5woAVVT14sgAFAWUCiBaDc0zDFaN2aYGYsiUY7NXCTZo7ljQStbnESC4B0zL1cZmTJmGisDRl2Oe3LPllAAX7VEYvL4gRA+I01FiqhAShMr2deQj1Ix9Rl4AQAlGZsh4iQv0PoA9UsmdAgGmRR1IEKqCBetpQAI520IrMFoOEhq08WKiG6L1pBC54JqLXrLBAsAAWuxVWsW9GYqN0gGy9FaLQCbLbGzp7vBFgdTwDg3xxP0qLtvvt4Mibf3xlP6iVK/Y/jiXRyf+P0rQpZgE4TyAJP2QBcv9utA0JXYHZHEWgyLy5BEcgvuFtvWYhZQ79HvvEaF20ttHsimAKKvSbq9IRWDlPtzm66Gdhb+tdmV2nkz9Qb0+yuztCfhoPTVKqr8urtke82tg2O/Oj/jXXGgoDbvgTKh/H7bSGDiph49A/jW3qwk2pbiyEytXd01TAD/bUkw0hbPvWSWAdMY+xUklvjkbE4wb6vGSdmr0ceOUg6pXV511viOrH7zjgv8ijA2gjMikFTEE2oYvcweC2prYmtvENbSbERxo1M66lY/dH3tV6zu0D/ttmy8owmx2IHEAcJsfFZMfJol1cW87uHi7a2p65GHu2pt/fa+vCyFL893N+fd+rz93aJrn+dF/D88Tc=);lineShape=1;strokeColor=#3399FF;align=center;verticalAlign=top;fontFamily=Helvetica;fontSize=12;fontColor=default;fillColor=#dae8fc;" vertex="1" parent="1">
          <mxGeometry x="627.6156866313811" y="294.7496330379663" width="1.9667364732223338" height="33.071335020142534" as="geometry" />
        </mxCell>
        <mxCell id="F-WN9qBcaST1U_JZLYBf-222" value="" style="shape=stencil(rVjbThtBDP2avFpzH88zbf8DiVCiUkBAb39fj9JZ1t7NGZD6FoJPxncf+xCvXu6un46H4F5enx+/HX+dbl7vDvHTIYTTw93x+fQqnw7x8yFe3T4+H78+P/54uDn//XTdJfun748/+y/8PuNao5Q7Krg/5288+fMXX87y96eHtbyjwEo+UvKX5TlRSEq+kEtA3o3nh3yj6C7LV7a/7yM5BKgUvQYUag0ACrF+obsImCyArF0UMsUCASlqQKPCEBA1ICZyWKVQNYBnKgX9QgoUKwY4DcjE2K05aABjoytl/UJ2xMhopqTjkAMVZEOjUDQgjVBeAlTtpVyoIKMbsTY6N3Kg3ATQtErFw8BJ/QSd3iVSxgWXdGqUDOMgADaASiUCwFIuC0DSG9ngKemKq54yBvxLtQUQR1vYB0gy6y5TE8wljraAejoilRJ5nRo9lFglA3iz6lJqeJ1LomTEFWfiwHn8xD4gUNVu5UoOveDJaS8xw3oo0vm0DTJfCoiDlEswgEAJxCH7EdcFkMbE2wUkUUm3mSY1DQZKSmNALQAmDyKdx88t8pJKoC01O3FF3gF5n6imjQUgCjLPzPwRQAIvBB4FvwYAk+PWZmn/QKXkdwANJIaEzXnrJTSw0jIAV4AGqkEANld5TKRLKnnzAm72YrRhGgLIwOiYbd8TAIM4SOCaYXvOQbokuVGzfaKh7MvkggVUUKFCQDc2oDaWqW7C0FAYbJsU+QjGlQwCY3AdLthvesTRygfw+z4Md6xSm4EBvtm+3YsHvCAU2zbJhWHu51G047At7Gwf0DZZUcasuNQkLaAOwrgP2HNrRWHjwSnWccYv2PLkwWz+D2CprHWHAczKj8J6Z9iqLeY+2nDmsVEoDC/vJ1K0ZLKPZ9Qt2uAHCwGQb0Dxx2CnrVCMDKqtTxIdBM6QTMaFdq1oUsEEwFRP56PghdTs+JxQPdlbgqGrmEwKiTFxmNBVARgvTQixbEamS04otwDM3WBC6vvupY2erA052lyaLCZ508Umq48ADMmYLFcCMMxqsr4JgD+0IOYNmZysoFnG7YeWXFHAmSUXr9G5joPNOxd1ARhmNTkFdMCHjg0doL00OWcIwGz2k4NJB+iK6ycZrJIZDpOjTwfobO1nJdBbu0qGuxXIxARQ9DyRAQD7khApM3PhIlOCPaUt3Gxfnu0uFsY55NIBp+kO4GAt9NthMvIJeJQ3u6HDV4M4VpA3eXQI5EIxGHmHDiULkV3JA/2btxcxN7j3vny0BMPBdb5tFhgHOVvbEBI3OvK+fLNHRgf7dd88rD8rkF/tNm+AhhX62DF8Ki8f3i7vt6f7+/Phfv1/e6mXr85X/vj5Lw==);lineShape=1;strokeColor=#3399FF;align=center;verticalAlign=top;fontFamily=Helvetica;fontSize=12;fontColor=default;fillColor=#dae8fc;" vertex="1" parent="1">
          <mxGeometry x="628.3155018724324" y="296.22160913497214" width="3.9318714382222746" height="48.95156550456437" as="geometry" />
        </mxCell>
        <mxCell id="F-WN9qBcaST1U_JZLYBf-223" value="" style="shape=stencil(7VnLUlsxDP2abDWW5eea0v9ghlAypYQB+vr7yk1NYvnmXLLsDLuQ6HAt6+jocTdy9XJ/87TdePfy+rz/uv25u32938injfe7x/vt8+5VP23keiNXd/vn7Zfn/ffH28PfTzfNsn36tv/R/sOvA65WKrmhvPt9+IbJ+b9ffD7YP+weT+2F3GgvlNN5+5Ko8mCfiTOwZ5IwnofJA0AOlIwDiZycB6RCtQ6A5nIAgEgsIyD2f7EMcJTieEdMDAAxW6clkTAACPF4q0FvCfgQCkUDUB8cAKjTaQBER64AgCcZb0kPWUHg9MQ8Oq3XUAD1gl6rHwCJKSAfXP/5DRAoIx8ciQHokUDg1Ac3Rjo7iigOfgJ4HAchbwCBCvIhUBjpnRMFkA8hUTIZWmE+KJf8SA1N2gQ0IFRKY6SLdFVYprejMnKpRMoIwFTMEzJ5lHGTjJXaL3oZEMiN11pVqQBbFWCutUknekKcnhDgtSogj9SoqV/DMiCRHxOoaigBNfQJJoEUAI+kLhqAcglTg6MFBBBppfc/FToBZJBAUhYAKONUq+PoAzvX3VpEeFUVfxGCi9W+lUOxXwAgt7Pl98q9ykQNHDjXpfqdzHATMTD1VEbN+QOUDNVVtvYCsi31gnySnQXYawBSsoAAypt6kIMFII+9qqSzANQqKbNlAiDRayV/OlIEtURlNU+36pAOxynMAdbDpjAmO7XxALxunY+zgAQCp9XKAlJvns7W9AkQALXFU0wWkIDTmmxpEm4E4EieLzmS+uwv8Vkme3ypym2x9ihqPKkLpoX+Otkj3rHrxH8nszlT9RaAckcFI4kFwOycmY3zXzs9K3lYYVpDPqUz0jBtSSyNsEjGOBEVq/DlgI+W5KMl+W9akmDOj9ttnkQV9/N84cDg7VpiZSIRy+uVkUe1YWTp2kxFMmrwytCWukK/cypUyb5o7KwXzrXMtqqtTM6aAXX0YGU2ZxXgkXIr038r/OZIeL/Qdl9jkFc2GAowWdx2JKDqKEDME7gH/hygjICYKSNAsXWtbZKQ2E2ZH1fV0aSOtsYFAYrdYLTtFe4JzWwuCSabtgt1PFLbGaKq4+wE07aSCCDdxTeA6888WwhNDYmQS1qb/bS7ZbSKdTYOCS9WY+96j8vnAPJNs8tIzNtQtmwvts5qtoHz59hbwKM96qdytiXEdUFYbuOnthbvYFVAQ7T2oCKU1FP9xB6cp7pegE/swf3Uaa5w/Ytl+9iF4eR+QLxq7rpwtEcdhTYQZkft+sx9ZqyYegSVGvyAy96mrNrrh+Orm7vdw8Phzc/p7/ZVj351eE0k138A);lineShape=1;strokeColor=#3399FF;align=center;verticalAlign=top;fontFamily=Helvetica;fontSize=12;fontColor=default;fillColor=#dae8fc;" vertex="1" parent="1">
          <mxGeometry x="631.2640859902954" y="298.28653117331066" width="3.036541029355115" height="47.84033297940355" as="geometry" />
        </mxCell>
        <mxCell id="F-WN9qBcaST1U_JZLYBf-224" value="" style="shape=stencil(3VnLchw3DPyavaJIgM+z4/yHqyxHW1Eklywn8d8bk61ZD5vrZqTKKbd9oGfwZgM82bsv9x8+3500fHl5fvr97q/zx5f7k/1yUj0/3t89n1/808nen+zdp6fnu9+en74+frx8//xhk9w+/fH05/aEvy+4UkTbhtLw7fJLkB7++eHXi/zD+fEoX/e/d3mToFw+DfJZSifyRfKoT5eQiLw/Lg7y0TggSesjoIoxjZLYqJFGKUYBYVTJba5MJdv/vgK61EYBeQSYcZVMEkStSskUoKOXUtwD81OAjoAsVikg1hHQpHEvRRszSSWwVDVpAPDYM6OzZABU0UiTG1Ijd1FmtP9dBkCJNFurVyMAVAp5Q1WsZ0/HRFKjemqMueQlGImXapKcR0CVylTKE6CLMaOrpLGANquYDU36mHz+TtaVWsD09ney9G5xV2AHbI9gAJU4quS/NKaSSh/roWWafM27Bryh7vl7G5Ckjk2g9d0NtwFTb+1BGol0K2JjtnaVzGyoEka39iSR1LQD+phL3d9JAN3Q6H59xM8ADQCNng89iikCaKQLNuPucSA2VC+XiAAWae8aqSGAHigOUAR0UqKpY/LFEGg3Nq/RSScWCG17sz4AGnlD9OfNbioEcG2lx0Awv+6PO0aamJD2ajnIJ5IZrpCNvdizmzXv6K0aTPZuT5I1NqkAMB6FvCtwACSSSpYnJ9mu5G0nNQkQZ+UU1JlIRwALg59YdX4Da3wFuUk32ind6yUjoBKje8cDyB/BUs8BRRHASrrnyUuZdkpvrSUhoDK3zlS9SOCUD1Uq1Ogc9lP8CCBudVaLbi2UCGiRamg041feZFJBAFPJS1SnwBUSuG0cqQiIxEuqO/06JB+bBixOfenK3m+XqE1dQ2nXcN481zQt0SA5TG/gdGmuuEgC58/DOBg9HbxX69RbA7HhcAIeQ81OrFcj3kRnwIq30BnG4d5CZyaysaIzHQErOmMI+O/pzKTTis4UBPy/6YxOTaDu0+xN+bkYOLcPOPUthodbvIFNJ87GQH8+/ngTHeUX85Wf+OOBuxjgEjLoxYSYcf+xGEHLNFDyGdcJw5g/iyG647C3mNJjwDXXYg/gFQCtaLFpiNNebLHLiGnPmH+5LYkZi3Kxj3G+AI1lsfFxSl8AwHdKXjd5VGmxtfJCgOlwsRfzTIXlx2LztrWWV+32HFBhP8m3hxtgfMNiP+kAyO7FBlSnvdhix+oAWHMttrhbwxjdutgTq+G2ZLGJdgCkxmLXvW3/Ry8ttulzU13s610BpMOr7IaZgV84bPIQNj4xRCxofmGyGawgz+i/Jtw0BjpvexdWvMBhh6aTf1gmBdrA7DrT/ZBnLNirBEYwTqRSmf3J5HPE+xuuTy44KHB7nTtO+jB/bpc3r4nXdmGF8iwfXn1Bt5T3Dz9uAz+dHx4ul4nH//H20H+63Dza++8=);lineShape=1;strokeColor=#3399FF;align=center;verticalAlign=top;fontFamily=Helvetica;fontSize=12;fontColor=default;fillColor=#dae8fc;" vertex="1" parent="1">
          <mxGeometry x="635.3864338199" y="302.39612585593477" width="1.9302761204741783" height="47.74593393366331" as="geometry" />
        </mxCell>
        <mxCell id="F-WN9qBcaST1U_JZLYBf-225" value="" style="shape=stencil(zVnZbhRBDPyafbX6Pp45/iMSgawICQrh+ntqWPVk7Zmp2ZUQ8LaEru22XbbL3kN89eXu5vPtIbgvz0+PH2+/H9893x3i60MIx4e726fjMz4d4ptDfPX+8en2w9Pj14d3p39/vplOTp8+PX6bvuHHCeebuDChgvt5+ouT4n//4e3p/P3x4ex86JKdOh8lpe3zsYtP6nyRWrfPpyItq/MeDyrbgBwWgERvyE180YAuIW8DShLXFQA2V/Kk6iTqJ4UmMRBAlqaDEIOUvg1oTrq+IcKtjQCSeB22BLcyQJGovZSSBGJ0a5KbBtRBlXVAl64B2UkiXuowWtuQo3hiQ/fDiTMgSyHU6EFC1QCQhVADgBo1u+FWZkOUoI0ugQYOgKaNBh0buyFJNwlXpZOM7lm6Jt/EX0K+XqzRNXC3VsslED4QagBgb2gSmA0AaKPrzK4tQNFxaF4aqWMTQFOjRSkcYNyKlKoMABM1W5EhNB+aFO0lEL6zOHRb6/tcFrYAWT8Jsc/kBu+cOE3XPjeYrStSsQBWNuDXVi2gsxzNEo2bukQWCG8LEwCsBbVFDwWgseIaLfvOHLfeIfrg/8UIlIlyzaPqorzumI26khc3MMeWLE4bsRO6Am0RLYCRA8W0dQtg9APAxjqPbr/1JNN5kUOJ2YCsN4A4HrkeBy+uWQC7oSInvQWwvtjC+L5zACmvIHhYPCmwFMKLnQVkXo9N54VbHa9lqVkAY+vEfvMkFAZWaNroUWeAzjuvUaKolixwEDRuUV5ZE4KKs/lQxTFqtEWkdwBQI1c9qSC/0jVGQ74YUbbjVmSc9RIP3FQ1TD5waqAu2UYK8jEAyGeexOmNYlwWKcoSCAL/yhQtQ7NdWATQ5driSZStZUjhCwvZVNyTdSu9oQ+hemExvhrwl/RJs4A/rk+6Bezpk8UN/4M+qdc86u/oE6Pj/rk+iaPUXajAAbBu5Rq/zGP9hVPEVMD1k3bmFAC6GZ34JIQ4BB2HnVlrAmj27UxzAJhatjMvTgAzwvKJFICsbdiZeaET7Q18qgbAuHVnbp/2ANronc0A2pxRoju7h7KYF3e2G3ix117a2Z8AYNz6ss7brBrLHRCX30ZY5kgjDUDV5Jv2WMzoxQ2p0p0r3GqqRkoSGVurTdHkpEWaoklzKVZal/K8Mj3bWHaScXCi2Z+ERiUTfGKKQEijja0DvJ0u/SzT1lfTeWyuZ0CmM0fotmr4eVZbB3gJZo9F44avMxNEoptpZ9dkfijfjeNmB+zFE3MXUgmpRPy/UKyO5pkfPePleGK+t55xYyRdJ8NQBi/HPesHdn3oxlSzro/s0oBLHYQ1LL6eJJePVss72sJB2+itc0ikfLES1Y1xff38lb8R7Z/Hh5cfpN4f7+9Pv2ed/7/9AQt/Ov34Fd/8Ag==);lineShape=1;strokeColor=#3399FF;align=center;verticalAlign=top;fontFamily=Helvetica;fontSize=12;fontColor=default;fillColor=#dae8fc;" vertex="1" parent="1">
          <mxGeometry x="637.5791345745772" y="306.8135087461734" width="4.48912427668561" height="41.77013239950999" as="geometry" />
        </mxCell>
        <mxCell id="F-WN9qBcaST1U_JZLYBf-226" value="" style="shape=stencil(7VnbblQxDPyafbVydZJnLv9RiUJXlBaVcvt7HJaUzaRnTivBE0h92J7NrBPbM3Z8DvHFp6uLj5eH4D7d392+v/x6fHN/dYgvDyEcb64u74739ukQXx3ii7e3d5fv7m4/37w5/f/xoq/snz7cfum/8O2E0ygG6X/u++mJlxx/Pnh9Wn99vDlbn5OUMq1PkgNZ78SlaX2R4LfXJ5U0/36Tlsn6KC7O+w/SmAEvcTbgs7REAE5CnQFNPNlSbFLmLYUgkfjUAAqALLFxwLylUPcAv5w4ANFLKPTQbrYQkwRHLWSdAWVEcgsAFsxmYWeo0twMSOJIpLuF2a2pDJubgfMzwJ4QQApInhzEs1zKmEvGJ0q3JfmyihIL9rWfvZSrFBI4daJz4OxJI1vShJE2DXGED6qSZ8ZpprmkBQlkTzyJg7bx9YPIOKlElQyQZwslDF3bApT50CXR1DBAneNQlOqS7djNyVeqVGLBNpDmM9RApbg6SfMZKlc++70GFppEBkgo9o3zwQBtDlwzmSG5ZDsuYEElErdWqycAKMPmloU8c7pVKmTmpboAGIEsrgkO3Wh96LmpCPhF2i3GOYcAlkumERlqnHPjN7aECSrKHsIqNXBuZ1NRsdXYObbVNJef49igKPg7oQsJSbqTHMGksT0n/ewMoK4t79WgBoCdBkixaBkgErf2mgbZ5KWSSp3bwmo/SsCWWKJu+CFuWxSKYQEwVqtURUAhYtniwjlzAwPYlhwClEjZGV8eENaMk1ObCW0IqAxgpRosJBrqWqQWBLDsK22xkEcst8pcWPKb+VX9+PrcAlOm5UbQz8AJUTMCAvFSWu5MPVuYhbDUlCieAdJSUwLtE61RrQ0BjjWWBVsmIwStKRkFv1OOAEoeN4xzAKvtSfzCUWWU8wsfPBXXVvDOYV5iZ7D6gSUoUrcaAHosA+ifBPxvaJ7a0Myp8c80NM8K3d9vaAxQIDl4xx7S4lYux31YAl4KdEBjABB8u9ckIjS2pTZzru6cYbnMdVKRXPJlFPIHgKO55HUU8ideFw0AjeXOhbQD4FLNewEDQKQ7zxmgLLNBR/sZA4BuaJFAug2/ThIyvcHaGSDSGmnH5BP2Asona944PZ8h83GiIh2sdDNZCtjp9pEtSz1sBKzfZ3RzmHg7QzKPQd6Zwtl+YMDMx3ym27Mg9Tki+X2H5XBnULl06TuTUDei+cRR6zKV2ZnlOtF5P13/6HmhJPRpNBE7h7PlPu6m64H1Po9LxEZ8gWE+DJI+XphHp/z7hQDrtZuEOR10jI23+NvwfYZjxSZieC2/Wb1M2Ig4OmgMBY/rxg3r8RbBoaw/TIwfX29ikGE9i25sOGU0PpD1Rta4rGdNVMOm31H/2+1OE+6fNYIF6e4oW/QRf7I7iIY1vqyqWjmBC7MfBWRrPdQX/n5uf719+P0y8O3x+vr0LvH8e3x5aI9OLx7jqx8=);lineShape=1;strokeColor=#3399FF;align=center;verticalAlign=top;fontFamily=Helvetica;fontSize=12;fontColor=default;fillColor=#dae8fc;" vertex="1" parent="1">
          <mxGeometry x="636.6085966439516" y="308.1895969071152" width="2.5406742569070424" height="39.632338576011804" as="geometry" />
        </mxCell>
        <mxCell id="F-WN9qBcaST1U_JZLYBf-227" value="" style="shape=stencil(5VnbTlsxEPyavK5s7/r2TOl/IBFKVEoQ0Nvfd63IIV6fzCFVK1WqxEM48cTe2+ysz4avXu5vnrab4F5en/eft993t6/3G/6wCWH3eL993r3qpw1fb/jqbv+8/fS8//p4e/j/6aatbJ++7L+1X/hxwHGkFBsquJ+HJ57af/r38bD+Yfd4ur6Q88P6SDGeXy+OuAzrK+UK1gtJGs8jFDwAZMphBBRisEMMJHkABH0CTI6FwnikkMin84AkxAaAjc6O4uhUZuIMAEJl3IEzeQcAheII0MBkYHTRI7kRIDAxSiA3xkEjE4ANhUlGo6VSKQCgBxhTSUOZMCDzCNBsR0eK5EcbNPYJGR1JZAAkD8tBAXW0QZMlCAAkiuORUqKCjqSJMBqdKt4hUxnrIXtiZEMlGW3QdEQFVF2P6xGQuhuWAZpL5ki108gygMnVAVA8JWC0AooB4PSuYuOgkamABGokNxKr+g1lqwLSWA/NDWiH1Ev+CBDIGnXKJX2CSEC/NoGrGdaD2lDNDoU8YD6Ng7Wh9KJdTj4lsjE1aoX9QXnJurVSRGR8bGgngILoPveCPHYg58gBNo76g/EyRCA/WYEOJbHnzjvN5mpLaMWxLFMkcOjYUxYLQMnB2qIuSr8mZowNHlaEqhlDlspVCdgg3Gv4pKorUhtqdLKACNzaGkiwgADoWNm6TkQDO7UCxAIEkaWzmkwBBRNNCtatgrivWi9p4FDytWSeAJCOEzkT6RXxMO/AWM9ol/MWgHZQ1ZcnAHJrUi3tJgCIdHRTPXDPruX0DlYLtM6KKi53QXXiVlhxcUoNj2s62fRucgLsIN6KaQUgmpFCZUyN1qlBxako9FMBMarpYkeOVqJYrufpSLwi4iYSyGAHlQq2tbs+5pyrOKPJFIAq7qSlnYQ6AzddjvhvBcrU2v8FgRIuOdTvCBQbib8gUKIF/FmB4smbHbACV4C1AWt8DpNb8RShAEPIK3MKs7VhZRJSgPHSyqzVAmcAeJprTWVMjZV5UZtKHhvjykTKx0R458yr2VrMkfBULY6iuUrAc7v2OdOFVm4GFGDUwMrdg6qBMKbGyu2GAox2Xbk/mfXGyg2N6u9grnRCt+ocwHQIUcEOiEzETimSYXOXadDXn2C8g5nlNPYF2eDtDiq7AuKlbG8stQaRommsYXZw/ckiIGi5mEvURAKMDsHq73Dse8tiIFu699pZAXt7tvXgBZLAdJNduzZYjoL1aYQ0OUkZPIk6e7fpof+9ZUjXB6jl+FqFq+MYyJ9kL8ccnHy8m0/jUWilS9O39WjI0MBXex6kRdRcw1sOtsCQbebggYGn63qHu83UMfElg/a/av1TkdC59B3O6nr98PbC6G738HB433T6vX3BpI8OL6f4+hc=);lineShape=1;strokeColor=#3399FF;align=center;verticalAlign=top;fontFamily=Helvetica;fontSize=12;fontColor=default;fillColor=#dae8fc;" vertex="1" parent="1">
          <mxGeometry x="641.367681537042" y="312.956189503818" width="2.5571049944776005" height="35.21705124059629" as="geometry" />
        </mxCell>
        <mxCell id="F-WN9qBcaST1U_JZLYBf-228" value="" style="shape=stencil(7VnLbtswEPwaXxckl89zmv5HgDiN0TQOHPf19x3VpSqu7DFyKVqgN0fZEbmP2R1SG715fbx72W6Cez0e9h+3X3f3x8eNvtuEsHt+3B52R/za6O1Gbx72h+2Hw/7z8/3p75e7yXL69Wn/ZXrDtxMuZnFlQgX3/fTES9GfD96f7J92zwv75CX7wb6Ib8S+SB3tfZBCAFmlxBFQxRcCqJLcAAgqkQCKih9XgA+NbKlkqWOM1EuqBNCk5REQpZGoVsRkjJLC6UwAUYIOgOglJgLIMv1vCYiiJErNSRl9iE1SIIDYo94BSaVFAkhSx8QlOM1WyDbTOUgiUWpFXB0BeAWJEgBtLI3iJJLSaFXyGNYSaXkDYEqjYE2WhyY6Ol2dVLYC0tRGAChFVvDOiTNLFMlsT6UzsgNQLZklQm1t4EkhDKpV4kgIrBmI13VO7AyoPfnnAdoTuwCwzIHUdktIDXEalZCiBRQCyK1zfgFoxAf0yjwmbpHL8+24rjLXpBLOgcO+WUAkrI7VUmgqebKlmCRXCwhkS1FtgaM26JaCbTToJL+m2KUV1BRTohSahuDYjlHAgaTapxVJnShJteseLhpTIFFFGYz2KC7WyLz40WOM1Urej8pb2bP9FNvFcqFc8NAZzQISyZnPPX4LAPMYITJTHYDMAHG1JbCJ+ByKTRoAmSQ5IOarrCmZVwCUse5QFo6EdV2oADC9B6eD0XteAvMBdVksgM0GUMH64HsYLpWGSxbAhkk+swArJbXaCvaObMj1/rYUDaSBrcYtssxy4Kzkhr0j7w+2oaLslGn0PmQWRGAKwzs7RCZuMoUR+4xZcpMB0KzUAjKjmnZtugA0xpzci3IRJLYlUC2tuMnU6psBsViJDsnBJAzGfxvzABVUSSFBanozarVv8q+SYfxs9Qdk2Eoj/Zdh/4AMgw9m9uBQ2kiqpyOtiRKO0STVCVEyQq/Q6ZayFWJXTmMAqFmBn/fSqpNdOVEmnIrNSOdn1lSs8LlyKk7r1sfP3QmNzkirQCcKAObcPVGKJa71K54ZMF+hXPJBDYBLK5SG0ZMx9lud84D5Tmhxh5MJgQAwFNXKo6Rdqs2ARPVk8lYqaaDSBwTKo9MYe6w0QFEjBTC62aCOqP6xvD0/p2u0Q84r5TSkgDf6jcuf2i+dZhfo+2Gv9oqVjRPYGz3GexL04er9jtTdtN2xrTrahqEPTXxcP8xdEj4mAa6z+3zCvJUAfHgiwaYiYE+YDJKYK25HWwUqrtn4sKvVaUypsa9srKX1lXtgHHvjFf11e/z4/T3gYff0dPqcsPy//X6AR6dvD3r7Aw==);lineShape=1;strokeColor=#3399FF;align=center;verticalAlign=top;fontFamily=Helvetica;fontSize=12;fontColor=default;fillColor=#dae8fc;" vertex="1" parent="1">
          <mxGeometry x="642.6289266748042" y="321.10589731192374" width="3.8786450430516464" height="25.689058529679" as="geometry" />
        </mxCell>
        <mxCell id="F-WN9qBcaST1U_JZLYBf-229" value="" style="shape=stencil(lVfLbhsxDPyavRKSKErUOU3/I0Cc2qhrB477+vvSNbSxuN4JcnM2HEkkZ/iY+OFt+/S6mVJ4O5+O3ze/d8/n7cRfppR2h+3mtDvbr4kfJ354OZ42307Hn4fn69+vTxfLy68fx1+XE/5cca1Q0gsqhb/XLzFQ4f9fvl4B+93hFhBIwwhIpG0doEKpjYBKoawDaqOcB0CKlCsAMFUeAUIxrgNKoSgDgCO1BACBZHwS137EXYAI5TQAcqIEnJZAPOYhKwRkIRl9kAzzkAPVMgBKpAqcNhfDmLhiX0Ae2PIwAmqiAqKUmief5b4FAMjUxjwYu0oGAGPO6HRjUkCNKMQjl2IIFMCbpLs439AgW+fTZhcwu40Y1ccoAJcjiYtpIQX2TBJHeyweoTb6WzMFQCPtCZrtmQrgaYzE0V8QgRKinafeAwYRtRxnx9NKCZGikBSfg4yeVKiOSbMkN3xDHJ3WTAxYF7MPqxZi9KREMlYkrVBrpkTnglIFPLIQirdXcH72ujH7oEDKlMU7jKRvfar4iGL74PxNvXGt2LseYpxAOou+mhrpBDTa5PussboAnZlqnT1mUO3ZvNFlRRQNvi0bADVNY5wr1hV3KON0czIrve+uqcaNFlV7LVgD6KL4BvSkTwOyb2kX2cByGtjbo0qhJIsHNVTsTPfNZ4FRjHQxJ5i0EVGZ8vgkMSUAYhj1XP210QXVX069Q87DUYXatNFFxxts+glgEsncgz4PeAybTrby6GbO2gvs2kSobqpNPW73Z85EcTE3RyToRYWxVooqhqmruZJBCqhks5aOLSTByaVFX7KthKDVIvXr3+3RotCMyP58NKk18WIOcMRuFu/s7FGFb7rYpWA1skExqotnBSQ1e6dMYy1ScljMmgJbgl2g44MK3gWb33I+GCm0HzfPyr36rSXAzV2td4j79p9eZj8G2I/33fllt99fV+/b//td2z5d93R+/Ac=);lineShape=1;strokeColor=#3399FF;align=center;verticalAlign=top;fontFamily=Helvetica;fontSize=12;fontColor=default;fillColor=#dae8fc;" vertex="1" parent="1">
          <mxGeometry x="586.530889050784" y="276.28912309717884" width="10.652001374108375" height="11.790830538001542" as="geometry" />
        </mxCell>
        <mxCell id="F-WN9qBcaST1U_JZLYBf-230" value="" style="shape=stencil(lVfLbhsxDPwaXwmJ1POcpv8RIE5t1LUDx+nj78utIdfk7k6Qm7PhSBSHHJIbeXjbPb1uNxzeLufT9+2v/fNlt5EvG+b9cbc97y/6ayOPG3l4OZ23386n9+Pz9e/Xp8ly+vXj9HM64fcV1xuFMqE4/Ll+KST878PXq/1hf7y3jyTB2MdAsawDGlOqFlAptXVArZS7ATBT6AAgxGIBhWpYB5RG3b5BIjFwqWRiGyTJlNI6IHdq0QASjzuXAZVKtoBKHfCQExX7Bv2SMgBEKtYldTLGdYA6kK1LJZEIACQKbAEaBhBW6ZQtoGbokshwYABaGMmyDAg+W1uiCsLKibpNvq43AJc4ENs3dC0gwENsVOwbeqUG3hALRVtAvcN6iDKCeAdoqKapugoNgQIqIErdX1AQb1RcjBos0Eip+BAJ0JjgBaBnyLK+zkVUqFdk75OCiQEDPAi9S6KG5IJys1mqlIDzmydM7RmcH5mizAAoSTNJ9ACUQqrpvc2ejJJUz8s+pqhulITqSFa9AY9WQJ5nBXaJXVpopwJprY/2eaTMIB4SRRelPtRgGRB8Jn1UmjPRnmof2Kehbvfigmig0HyMUGoHL/Eqj6h0bq+7YznD0s9OKrT4QEQ/a1+9lrY85HiZsUjRPrjpF1xqwVJcy0jctTStNkRVKwe4pPLiXNIBiFFP0yx2M6FOL4BkYe9SbkOSlwGzDpIFttkUKNkbpvkIuDTNW/aGJJC46TxbzOokGnd0oJJkAQwFKc9EVbOropFtxrR2UkTcNKA5uWiw2nRAE8t0vPXq5XLQsdO1Kmpo+g9+TNUBC9nfdoObQ0Myl+3baEvD/nbh8qijA2Fz9hEEqM/0DsuvDhJNvD0avbLX3zBWjWV7bTn+/AoyQhuSy7kIk1rV3206ePeauovbvagjtQszgZcxCKxdUG2VJVgzU/uyhGW4IXx6//3QXn/8X7Zf9ofDdVe//79fzvXTdbGXx78=);lineShape=1;strokeColor=#3399FF;align=center;verticalAlign=top;fontFamily=Helvetica;fontSize=12;fontColor=default;fillColor=#dae8fc;" vertex="1" parent="1">
          <mxGeometry x="578.1835065203849" y="271.0221285114832" width="8.679327713271986" height="16.656662495215908" as="geometry" />
        </mxCell>
        <mxCell id="F-WN9qBcaST1U_JZLYBf-231" value="" style="shape=stencil(lVdJcttADHyNrqjBYBbM2XH+4SrLkSqK5ZKV7fcBw5DhgGSncqMktLB2AzzIw/vp6e14iOH9frt+Pn4/P99PB/lwiPH8ejreznd7OsjjQR5errfjp9v16+vz+PntabAcnr5cvw3/8GPENaVWB1QMP8dvCoX0+4uPo/3l/Lq0TyS5s+dAEvYBqhQcAHvQSNwDIlOL+4BaqLUeoFQzADCVPmcpFEFIJVPqASmRgqSLRdznkAMx8JCVVHuA+USA7D2UQAUknYWYe0AmbvuA1CiUDmB1ywiQKYceUGBIKZLGDqBMAXiwNqU+aa1UQR/EapI6QIsUeB9g06+9h1amrDYBYerSwj4CB4FCXyMjVFJk70bVEqgVJEDSc6ExxQJ6QK2fuxamOdlmJ3EfjzZKsm/PxjX2AKQXbBEVD6jIQyUtPoUCSjr0gH1NkSKZ/rArkmAPVnM3RcZmIGEWUuyZ0CoF4IF1FZJSAtThTOKq1OBgc1zpdpiHd2c0SvAeGpKwjYgENDpONV+kHIF9IF1RswIqWHauB3lSwB37P9EupgLFz1Td2DEc7DQN5WKu0UqoXq+NOAV12P5uBYho6MQvKQNklHHxx4WlIEBd2MQk+BplsEKsCY19ExgzbQMABS+tBBJdI1Ykp6iaJ5d7YuHOF9uCMIXi1aVmSLQ483AGGDfAEhHxIdmtoMCD2K3QN9oOGtToxKQ9eew+QWSzg6v2w5oqXDz2s9sj5rMBDzlNajJfhTJdotuAtro7TeVB0qVMEj1LaqUMQqriJcnWqYLR0OD7UOD2V1u2Pd8i7IKW1VKgCAbJzrPcT958kG3bmwA1Z4+uKVMH9vZoRQ1c9/EEMETDBmAfD9iyw4bx9uhasw3G4uqJJN42pMs3wvqbvbuwBd78ixU/s2Y6+PYcuIQzfM/579fNf9rbw99325fz5TK+Gi9/9+/C9tX4Hi2PvwA=);lineShape=1;strokeColor=#3399FF;align=center;verticalAlign=top;fontFamily=Helvetica;fontSize=12;fontColor=default;fillColor=#dae8fc;" vertex="1" parent="1">
          <mxGeometry x="572.6493326995013" y="270.41096385825244" width="8.059809461454359" height="15.99568607506713" as="geometry" />
        </mxCell>
        <mxCell id="F-WN9qBcaST1U_JZLYBf-232" value="" style="shape=stencil(7VjLUhtBDPwaX1Uz0jzPhPwHVZjgCsGUMXn8fbS1NWOPdrcJtxy4mUU9D6nVkmYnN6+Pdy/7HbvX8+n4ff/rcH9+3MmXHfPh+XF/Opz1105ud3LzcDztv52Ob8/3898vd5Pl9OvH8ee0wu8ZVytxmVDs/sxfAuX5w9fZ/unwfG0fSeJgX6hEYM8U0mDvmSRtA0qlEEZAInYAkEjGG7AjXwFAKLsRIFQ8ADhKdQRkCrINyJHSuIPonmCH7MiNl5YKASlQHY8U9AuIW9I7jHELtR1yFRAj+TFwMZAgQPd6BxSK4A4hUZQBkJQaCMCUxx2SLhG2AVIsNdTRmQFAKBmAuhUciSuVPAIKVbADR+Lx0krHCu7AnniMQykUQKS9XnrcQXNQECBat9ZEDtDbd590QCbOEODMkQrMadWI4iwA0dv7xs0OqBSBzCj5vbWv4ESZyngD7zRnAUBdmOwGBcQ5UFgcCGkMU83WQwW5lArbmEGPWkVSeweIrfpizhPh+j0Ruz3ONN8I0+1VtMH63Lx3dX6U+j2aPc20MoJ4OZLxvqVTZOP8YVQWrVsR5IwQj3wokSK4b1ycJzSGbBA6R2uPiqBXB1V7II8ATD5aAPRQr5FXLkJaqrJiklilEcVMAdloqeoAUAkFeMOinhf/KlzcBH/LrXXBa4/aHUrB2iOh0+YpLuwh76yu6HlQQVvoHMNa4GzzNXkUdGtKO8Oi+k4e+0W5ZLC+t6VpIh3wJzfvXbMa3Fc5ytbeA0Lo7h/Ky2qr/ZT3iNK+NWXXwgI6eE1L24CocuG0FKMUGc4UU1oaQIUd/McBvJJlsAH5bHE+W5z/vcWRNvx0e4eHxkW5TNC+WkIUpoTnAjPQ6TAEW4RsPaTjVgJZNlWbMfF1oGOk1tnGOEU4bomzA50OpUjtJNhGSsdeAVqkk715QYkCaaSTvVHsUHHJWQQuxBb69d4x2OY0aG6gZnOhLZJat7dOvWibQXU0amc1ruYJReUDvRtlaWHqAN/0aR2Q2npd7zIFEOlcLb21NKJIa7pkk6BwA01HN3IvtmZvPT9dk6t+IOhTtTclx8ERQTuzhT16edDOryZjj0ihcmjeQnC9Ubk1IXbwnaIm2+671gyv22eb+w7q3aUcXfzvkT81/NXYF8CHS73ulMadmlsMsQIf1HQD00eFxsAt+489Fr9rrz8uL9MPh6en+WH7+v/2JVs/za/gcvsX);lineShape=1;strokeColor=#3399FF;align=center;verticalAlign=top;fontFamily=Helvetica;fontSize=12;fontColor=default;fillColor=#dae8fc;" vertex="1" parent="1">
          <mxGeometry x="562.1301294238091" y="271.3118266946723" width="11.794778214307238" height="19.779498444353628" as="geometry" />
        </mxCell>
        <mxCell id="F-WN9qBcaST1U_JZLYBf-233" value="" style="shape=stencil(7VnLUhtBDPwaX1UazWgeZ5L8B1VAcIUABeT195HjmvWOdt0LVOXGzRj17ujRLY28ixfPt5eP1zvh55enh2/Xv/ZXL7e7+Gknsr+/vX7av9inXfy8ixc3D0/XX58eftxfHf9+vDxYHj59f/h5eMLvI641yumAEv5z/CZSqv+++HK0v9vfz+0LBRnsM2kD9onK+PxGwsCeqZTBPtiBwAtqIXaA0l1aBwjVMAAkUNHzgFKotRGQiQUAIuU6xpR71FYBuVHVEZCg01kXgEolA4BQygMgCQUAUHve6ENSyiBxqsTjkVKDPmigPCZOI2k8D0jFl5JaMRYAiNR4rFUmAUdK7I+U7UjhPCBmqmNYsx0JRClaMY9RKkwRAYwPI9+KlQY4klTS0QerXwWZFqUylnflXizrAKulMaw1wfIOlWT0wUgrgKJhyuskGkwKKBqyF4FmiUNHmoI4ATI14HRY1JIpISpvA4h7g4UBKGswQlYPgEdiqs5pzLhGMXn7CtJgOjoWRmAmBsU6yeLsBQ2kzZKwsM/AAfFCbPaCyoIq+4ii1sDUos9xA/4aTxb2DFJsVHf2uTPjjH129koRCF7wmt3qxvOZF8+H/gZXQEIR+psd7+08QOEDhdHfGqmA81gHcWJaqcLnN6elll8QT6ESvD0aXkwjxviUTBlotVIq3h7posmievsA6r/6+jf7iOLDnU4zQEGaFbykWIQSUvbQAz5LGaSwEI8dtjTcbEIP+QywIaN5fIP1v4xGYIquqkOX+jNZc1Vk9mjEXqjohv1CRTfOE7tGvdJf8azcCqiffrcy5if+jZIwzRm7wEbNTfeHVxZ18l1ggzXTBejVrJQ3sb6tsBhN4sYAjj5ASLYMUN+kiwdSOpc3hPcdAMdiawVoNLBxy/WminufvSG65pewdL1nAnTjzccE+DEB/tcJUBbxFKh10U9EFVec9lvVZK9dzc4U3LL3VcQZ8STbEorcL7cTQPHdslJx6ihQHS0HdSRNbn3VsQ5I/uaXtQ/C64Diqy4LXgoE3wK19kXEOkB9narCSTw2P2rqdOtfJ7L4yk4NLphS7v+eAKkXy3rpGXccgGFta/SLjVg6ndYBpXNrtoYLaA0X+sJq2gy2/s5zezu/StQ+Xa0LMHsCydTd1wHab2SzdSij6bT14XK2cEUEskasTlPhiUxRwmifYBbaYh4PcC3YQj/uyR45bIroFpXcN2br9jYvJ2ePWo6NEcE/H8nFQdHF26MNefYJ4z5cndvYO4VkOM5ah9Tg7FFLPnXgU/wR8c2++PzCSz4v1hQCt7htup6c7FEPf/NPIJv29uH0e8vN/u7u+HPN/P/+9xn76vjbTvz8Fw==);lineShape=1;strokeColor=#3399FF;align=center;verticalAlign=top;fontFamily=Helvetica;fontSize=12;fontColor=default;fillColor=#dae8fc;" vertex="1" parent="1">
          <mxGeometry x="552.9673371042213" y="270.7042197682098" width="13.326537418132537" height="25.88224413800604" as="geometry" />
        </mxCell>
        <mxCell id="F-WN9qBcaST1U_JZLYBf-234" value="" style="shape=stencil(lVjZUhwxDPyafVXZls9nQv6DKpawFQIUkOvv05Mtm7FmtinedmfUY0tqnQe9er2/eT4egnt9e3n6fvx9un27P+iXQwinx/vjy+kNvw56fdCru6eX47eXp5+Pt+f/zzeL5PLrx9Ov5Qt/zrjWxMcFFdzf8xMVbf8ffD3LP5we1/JRXJnks6R0Wb42yTrJN4mByCeJbZL3QUImACctz4AkwV0GlNJfD0CRSlQualUIjupcxusBUHFE6VykzFcKSXIkgNiNOABVCjsBV5qtpDBrvQxIudtkAJLUQgBqddAmSq6UvLg6AWKQSMwa4abZD3iiRIcYpc3cxpmN6IAL+JncMINnJ8Css9IwtCMnaBWdqQFXZmIlHUQYgEb9oGp1KJEDnJT5SgVcIhEHqqX5SjWII2xFiqjzlWqUwgBRkp8B8LQSgJc0c6m5ntd2Ab51qw+A0nhAjjBcarm7ch+g3SYjzThwgyQmOG6OuMYDaHxtyCdRojPkzfd5CnCSs3VCYyaSOpsUtGA8QqGZ74/MTBOGeMNTL4Xk7WRJBHlWGHK3xpCHBVhdEM1Wnt2/2kiGvCek9hsHfwTwOxqwsEFp3apQiIlAah82NvUUEKsFVH5CNEqjKrATgrQNgNIUycrwQmndgR9qsgBG7CZJrTxrMGqvMWt5Vsylbe6TWGnuRW8lz5LjSCMri2bis7RDikYD037f054zdX+uWFqJw/JGXyeRhEG1DeESZ8SezbZ3izyjqLP1D4DAqhMoqhaQCOOWINjkOsciX3tQrQDMxzuBHD4b+R8Agm2zUQ/olcKmSwg0zrYlealovIaX+QSUTM/9UOaEii6Bdf4YVWYqoQ2pxEhl0yOgRhENmm37oTGbE7ZEQqtWWTZNPdQHwNPk6KsdONFushPQh1iqorITNy/D1qbmBGIkeMEk+Jz7Jy51wGGmaka4kRPQY6c5RS7zFfHz0sXPjkuBNiOabd2MlXaDGF3MCVHpVIvhyKRJfIKF2zJ+zX7QQruLuEnEGmlixThXZj/A0JFVqmQbHhQLxtZUu9VXo3wi1AARzJwQxny1D0i9aRxzAszAqn8Tb/YXqbPr0v7CeHpJU6Q4IO8mk2VohNaNzrnvZPblwVVDva7SfhLzdtvhes+3Lx9slnTUQMi5ZrJwPb4v7cCCvQ+L/rZhHR8EUTOivT9bKrRiGxJHV2at2tLMuwvMoSbdOepfyBcz+tKd32owfgc05rBmMwtmBJLrIG+juDP2kvznlqIfyuPH+wb27vTwcF7grt/bjS0enbe9ev0P);lineShape=1;strokeColor=#3399FF;align=center;verticalAlign=top;fontFamily=Helvetica;fontSize=12;fontColor=default;fillColor=#dae8fc;" vertex="1" parent="1">
          <mxGeometry x="548.0217297163786" y="272.2243740529043" width="12.63304840004995" height="27.928390445669304" as="geometry" />
        </mxCell>
        <mxCell id="F-WN9qBcaST1U_JZLYBf-235" value="" style="shape=stencil(7VrJch03DPwaXVEkQYLk2XH+w1WWY1UUySXLWf4+mKg4b9ic18++5eCbFmBmiLXR4J2++/r5w5f7uxS+vr48/37/18PH1893+stdSg9Pn+9fHl79pzt9f6fvPj2/3P/28vzt6ePb718+bJLbT388/7k94e83vd4l9E0rhX/e/hLF7L8//Pom//jwdJSvUvIkn8YDzuWL1AjyrRJ5lVwm+SwxEvkoDeV7JvJBdP7+Ik2vy7cm1SZ5G384l6/4/Ert2Qzt36QkIp8lpNlfQQI7QJJcZ4U4THyu4P8Os0ISJUeoXfJ85Og+C0ShSoMzFLFGFEwiBKmbmURRLRLarOBmZWdws85hFLtUEtdV0Q+eOJE4riaJkDhJEntDFIU3qCizUpCis0IenjlVMD/ifGhPBqrQpM+x5NmQiafNqwW8oUkg6WyG6ZO6JOI4c0/PChpGwJ8rqJT5DBqpp83dNJtVVSLJOAvSQSGPU50qlD5KxK7gfiBWKm188a5g1HHFM27Oaa3DDOcKXuXm4NM2kvZcwcso+KFLI2Z1Bci4HMYjzhVUOih4XSKFzBXSfOjszYUkUFk8nbNU9klR0nzoXKSTfChheUMdlepUIXdROEOTRELD/w2l0h/BPJ1N+qxQeCFzhTifwe3Ggs+N2Ofwds+wnutuKnP1vgTLuYJ/ALzBJDGFOErvrlClEsd5MNsMYzxpWfDp0uMsjo5xruCVbzarF57CPimLzcFnedTCcwV/3nxoL54My3hhzPBJRvPBS6/CGzj68eKus6e9xRSSD94+FOBYp+XeG5TO5d77KgOs3gKToUJnb9ARaruCihFPe9+HBHL0UUhOp4AAywERiyUHO32uGg65jMTSBU7tCp1ijWiIZhw2MhgalyLgwNRILEXFuuTQl7VdV4AEamUE/LlCkj7ndNtr4TUFsJJPB4mEhiNthTd0CqUdy+f50D6vFDbOSJ3zx+chI0doOC35vMUqa0N01fNoqucYFCPV5z/2/YbTYTdpxEAFS1hvvFkt8l0iawwDIBzklbUqiYbyrH6pVEX5SuXTIt9ZbRlz1GU69PGQOCyNSe17FSIi+u2LWFouEcQHq4CN1uVZ6XJEtXqMeNhPV1E+kBzerXGIuMrlDeVZgwrYbvqO4K7IY8YXXrSwjHrGV9JsFFu4VxQKOJe6ziftMvLvIE+HI6QvXD6yyWXQSwd5VuEW2NVuTKho/xvPr4jHt+9nTMQAfd9pnx23fqf9K878Lt9oRTeQ77TR1zG5HuQT/X7IF5enlAKi3k2eje8SG8ozWF2wQrfOR+tRbY4tnj4f6o/LM4IzI5mw+YtNjKM/HOQZzlq/p3HuYTmvYyDSkVZ7Njrx2sjuozx5vsfD+nwanxhvHEGs8cwx35ovjZIOZ/lY6fes+d55vv+QvC0IKI6OfA2RQT/l5G9B3tQRH+vXGe3TKyWifiK4nwju/43gIo7OHtGJcR7IVfV9+L4iD8N/L9Q+iiyPI0TeYaBC90QRxNJhblQUw4D2DtlpxwCqeqtwFHFgR610JblsANvec67M5MAHtUIRqw/9EVrMDsKv0QqIaSIlVDfiAhQC3apExbm88rVkLMiEV6NtLC60c82D37/GacEKoyrdAcY+onhX4ITqNirBoYM0xsvpiMsDGckoqnU4sUrpEY9tVDBaS7fgns9ghZORHaujZRrdGnBvY0qXt5f12oHYZhyM6gCUu0LgtHPGQ5dOMYgabkpLHUXwGpsPXb/Y6BLnCm3ZquTxzvOiGnDbu62v2FYl4qB+WV+dK6SBW3cFvpHIirvYzEetnHF2zZV3koKXSbLRYcX/jW/g/GJeCEn/SGWHbjjfuBko/9GxGLuhb6z0YInuvmeVr+wEzFDQzke0hCnq4cjC20MNWq4HPCMpyoKatdCpoixblS1p+QIaHKd8aViWyqeJdqCy9GmNnHkI4wN2hcCpomWfnDjXst1NAIVKyTpbKl/iFwHM8HLPNmDxGxzAX20TEL8jAg1lG2kYQdNwU5pu4EMfJ+AWSqA3mryNA0fg2IBtSmscPXNXqHwoT8sbjGKNuqy4HUGx4KsFi8C2IGOfVBFVOgpkhaz2wYNcBkk692wbPwDqHEcvfb3Sybxl7A7GL67ZIH72Bkd94LAffJDpTYmNyIT8p/J9R497nA4UcS6vA2LvDqBzsI+BYP9Amaa+74Av8vTqZkV4Gyhe8LEX1qOch7iM4Qd5Zp+Oq4PAr4Z2XB0ECpA2WkNBno1hG20SQZ4xRwde5qLAiJTtBXg3lxp0v3F1kWfL2o2XQfkbB84YoHQ5/aN3i2/K+w+Xi8yfHh4f3+5BH/+PF5/9T2+XpvX9vw==);lineShape=1;strokeColor=#3399FF;align=center;verticalAlign=top;fontFamily=Helvetica;fontSize=12;fontColor=default;fillColor=#dae8fc;" vertex="1" parent="1">
          <mxGeometry x="517.7293850313772" y="275.72544090844667" width="37.65973831970421" height="71.71161882929997" as="geometry" />
        </mxCell>
        <mxCell id="F-WN9qBcaST1U_JZLYBf-236" value="" style="shape=stencil(lVbLchpBDPyavapmpHmeHec/XGUcqBBwYfL6+4hsZo0E267clkW9M5K6W5rk4W379LqZOLydT8evm5+75/N2kk8T8+6w3Zx2Z32a5HGSh5fjafPldPx+eJ5/vz5dIi9P344/Ll/4NeOEpF1AHH7PLypT479vPs/x+93hKj4yxWwAJUAAV2J7QmKqsg5IgbIFcCcO64As1IsBxEoNAGqgagGVEohvlYRNfCAp6/Fdv59cfAQZ90TBfj9SzSC+UBMTnymg+EbN5tupNBDfqUd7n0yxQoA7QDPuKONG1WbMBZe0ULFXEqVdBwAZJVwAWmXctGSbJpkyILayIogHRAQQatUCmDoCROLulYCIVDtlewKnIdf7AGWG1VpslCM8QYIFqJpBH5pqwRkMFaQ1GUxbikQJUK8VYksM5QXIuPVx/Ht8APfp2iJ7n0gBFKhnHy+jAGtKcD1uwwzWpFZcx2QY7H3DDkuCC6J/dAQ7cSYqCKD2aXugPEUsUsOrrkjadlSl6ImtWmNkMNEPkQ8A9XZMYYMpPNxhAWjdAFP172w7nVXNgHpSqbtR20eh749a8dxuCRpMTN6GLz4LclCx+0nShjGvsM/LX9n1bzje16dP4Yq/9/vgbVsPENSGm3gtM/i+2pu9kCq8AIOJJHYqqIMgA9CxY1ugDpVAgW7U3DLcv3T1sNpsusHB77vdRWcEEn8cdrvEZ0qgPv+7cH4crw/v2+3Lbr+fl+Pr//02rK/mTVoe/wA=);lineShape=1;strokeColor=#3399FF;align=center;verticalAlign=top;fontFamily=Helvetica;fontSize=12;fontColor=default;fillColor=#dae8fc;" vertex="1" parent="1">
          <mxGeometry x="534.4081038465168" y="282.4392044064633" width="7.187723107929688" height="4.271136248493322" as="geometry" />
        </mxCell>
        <mxCell id="F-WN9qBcaST1U_JZLYBf-237" value="" style="shape=stencil(lVjbUhsxDP2avGpk+SY/U/ofzBBKppQwIb39fbXNeIll9jC8bTY6K+t2JHkXb14f7172O+HX8+n4ff/7cH9+3MUvO5HD8+P+dDjb0y7e7uLNw/G0/3Y6/ny+v/x+uVskl6cfx1/LF/5ccK1RSgtK+O/ljVAI/198vcg/HZ6v5TPlMsgnqgzkA6U6yFfKeVteC7XxPCEQFwAIVHQEZIppG1ALpdECYQrgSJWp5RFgGto2oGTSERAZA4IPQszEwIZciWUEtG7V+wChxmPYIhUQ56TUwgio/RPvAxKlMQ45UpBtgJ3YeSkr1GA+CaOXzNEocOb1MNpQzdFAg8W1xhFQ+pv3AVYsI8DSMeo2ICjpmHxquQS8FIpPb1UqwIaQKI8F1z44kpCOXmqRKjoSe6NbJUEFNCloVIC8HchRADMxsHn99+pArQILetqs8pkEhDmRBO9SlBath3SNmaURMNiC7BJVmRLyUKQ8ZkXFMTMTXMwMEIGLDKDVA1A5L7UjHoCCJqUT0DUAFVulNGkQpEGJmwdkDMjJAxQQtwG80YkiskEno61/guo0gLjAGekhQJ00WMsGTG9x0ElDRYDs++ECQEeyZqYTAMXBnMgekJCG2L937SVcQDFNcQAd1wCSPUBQakQ/Ziy5BFq0AdqU3gmXaGEPCOhI5sSJBGDFFU9kCwClRqUwswauaZ1KFI1KVg8zCSBuXSrOaUi4gNR3XAMUXNPRabCEx0f6JCD4bLUxQ8GRbAR2cbCpIYDkC9OMa0MAHIp797hquQnELXkaa+uQvPF9P8UI3Buan9wa47lKuj9WD1Xco40fnEtTT8WtUY8dgLtRW1GeSUwRoHgNtqpkEOW4rlLrBG1MiwDG02Om2oyOtrHEfpOxzUMAr9ra4PeMdQPcXExGAkgCB+K8Uta6K2nnwa3lylVbTHAbs/Wtuh26weQrpffLFWD1ASJdpRP7OhKbGwCJ1ak+LX8Rc6v4Pb3B/dCqxXk1w+62LCFj2AQaYPTgEokhvyx0ok4eebQV30cY33tM9nJfwbfki/8+mobbNOcxLDSTd5XJsPfbyiXVyaM++7aivckXUAMmr/48DbEjT0tbgDuYKWjFycOG0DxfB9hwPn0R9qG8Pbzduj0cnp4ul3bX//tbOnt1ueGLt/8A);lineShape=1;strokeColor=#3399FF;align=center;verticalAlign=top;fontFamily=Helvetica;fontSize=12;fontColor=default;fillColor=#dae8fc;" vertex="1" parent="1">
          <mxGeometry x="531.2286262340605" y="277.97988747074396" width="16.9096678397928" height="33.2565405241121" as="geometry" />
        </mxCell>
        <mxCell id="F-WN9qBcaST1U_JZLYBf-238" value="" style="shape=stencil(lVnbchQ7DPyafVXZlmVbz8D5D6oIZIuQUCGHy9+jYbF3LM828LYXtcey1VJLc+JXX+7ffr47pfDl5fnp492387uX+xO/PqV0fry/ez6/2KcTvznxq/dPz3cfnp/+f3x3+f757Wa5ffr09HVb4fsFp0ocNlQKPy6/RMr51w//Xewfzo97+0xNJvtEWoB9oKqTfaYcb9u3Qlwm+0IRrN8iaZzsGwW9bV8rxTz7GygHAIjU2gxgSgBQCql7QsGARHF2IdqltNsAqdTqfAeJBFyaZKrzlpL0Yz4GpH4mA2DPZAAIHsD2CwDkRtUBmGICALs4ngE4MrL0DQyAUkaATGEG5AS5YH+rA0iPrluAMJPHvMrI6djJMgBKUgEgeHpKpAJiyQC/T30AmBqIVjtEcQDBgEY6ZwCL3wKcNkCaGScKKcq23vyEEikAp3mhqHGwgmg1ADtAJkYAoTpTtAgp8kEozMdaKgw+zj1yBqBRQwCmMPtgqY3RPURK8xOqMQQQyCjPDiDw4pL2xDgAhSq4uLRkvoqd3qrHDGjGEFB/rDwlV08sNMApbal39qFlKuCUUlgABW7JqoH3ocFUGWvf8QAYaQUAindaY8+Fx4Dh4gDgVBkT8ZyXTEgIqNNWlV0S0EICQqN6HaANPmDhWwyBAgjW4HPGJp3AtY3Vhn2FNdfCYi4masUEOBy9sLIrCIj/lGd7iyIGpUR63djFNUoX4othyzCGSn/6sOfu0Q17FW9fwPpWFKK3F6QkfcBt64N4sMSjy/7BfvTAXwWk1IPzT3B9Fw9mj0Th0foN7scJ8yZdkd06n+rtGezHzl+8fQbxWXs62NkL4GNZ4lNgyio+Y5l9gnzR5O1R/Bu/qj//ikQ8leztkXaULth39qhqLDXA4rMBvlilXvkI74sXviAp27rW2NuDfLg0FNt+gL12Nu39BfvRng3254n5uPALdta+R9viAfLx3+yb724s/6N4M764Apyg5C0+31r9YliA14KdkG7yfLd6ijr9pefd9gPOZ8kPyrA+jh59p5lgvQ6+JTBV1hAg9fX+smJH7gl/pywVCUXp4nlfM8AdbMpyUccZyThdpOiQv8e3HP01/0nhc4+CXQ+hYEub8nN9UIaF3iLDMafiCdBBlxJwS6A9M+x6OdiaWdfuOt4CY8l6OadGrR/NGOB7au6EPQZYIMz1wHrqhPtRN3ksoafwWx1vmI9VGrxpA7gUIxVKdl5qrGBNwcWPvYQhH7j2HLebz6A5GS9pO+O2Yxu3uJFRhXUqL41KzjCWcvQjo2yZCmRW+1uWSRzcUvaTBxY4fsyL2GHctduZiBuhKpxj26m70DCWJ+C0JK9ftoqE9Jp4PlxbvGOA9jHaaGEbbPNL9pMHKwAozZRl1hcxpy2TuoKisGJV9SJ4qI5jDZN7oF3fJijSkM03OUwRpBiTOC6OItS0JkHSvP8AmWD2hZ09mqjpwn6zB+Q3e5eE8UzD7NtijzSqemIGrIHVK5IASaOLaA7wbZHZq18f9Qi7Gc8VgAaOOrLC1R4FnNkvAQQDYukqIszu//y67o/29uH6bvD9+eHh8mpx/79/l2g/Xd5D8puf);lineShape=1;strokeColor=#3399FF;align=center;verticalAlign=top;fontFamily=Helvetica;fontSize=12;fontColor=default;fillColor=#dae8fc;" vertex="1" parent="1">
          <mxGeometry x="516.6179714839603" y="282.1069194404258" width="24.747414798627474" height="52.98396322090225" as="geometry" />
        </mxCell>
        <mxCell id="F-WN9qBcaST1U_JZLYBf-239" value="" style="shape=stencil(rVjJbttADP0aX4kZcjae0/Q/AsRpjKZx4Dhd/r4U1FE0lP3SAr3J8qO4PS4zO7l5fbx72e84vJ5Px6/7H4f78+NOPu2YD8+P+9PhbE87ud3JzcPxtP9yOr4938+/X+4m5PT07fh9+sLPWU6VskxSHH7NbyK1+cXnGf90eF7jE3EY8JlCuY5vSjUN+NYVXsZnkjraw1SQgkjROVD7Jy4K1EI5DwLMWICJR5O4UgI+lEqlDQLClIGGYi7yKNCI43WBbC6OPqQE05CZ0pi2pKR6XSDVbvGS50wNaEhCcXS6RBLggyiJjgIFRkkypZFKlpmYgUDsaVoEKvTB8upMakLSgIBQHTW0RsJAIFAdw6pMAWiIjcqowSoQFWjMpCOX1CoO5CGQiMdrQvgQPD4Bl0Nn8oK3JACPA2n2+D/cvRxSX/+GD8Ae2QS0UAX2WEMKGzywp5AWj28A3zxJJ/sBSdUX5hQfUAXRErAJKEqwCaRthhFHjRIuxdpJcsWFuMEjF4wwG3wFzasQi8crcCD5iRBDgA4w6UZBQznwCqaxC2ssF4+PsIaD+77VPAhQ6D1nhUecC1Q2FMrQ36IeH0HTstmxqbEG4pP8UjHVJIhP6R1qjQfftwKpHq/AX90QrsLZF7cJqH0w/B+B0qf7Cl/Q2IidAKs5E0EbjULNabBxCzhna1kcSdQqnGTGujayonHXeVnAJuOY5roM9MsCrRuwCBhz0QrCfnzbzhKABim9DheBAPOWgh8ftnchKqXsTbLNLgFuZzNgjJKtbgntjrmPi2U7NS6hagu+PdompkBDyX7vMv6iflqsfY7lYC2nAi5V8RUdP+gAzbdUqxAFThs3efQBt0gjvxuCAlue7YmuBy9N+TJe/EEtwDXK8BodHh1BrD1Ub08AxNbcj3ErPLKndI79Jd7CzR4PZr5NPPH2M+h300rj8Wjt1c2eFmBrmVYUny80clYryvvJnREhtK/d73hE0H++GfgQbw/v1xAPh6en+RZj/b+/trBX85WH3P4G);lineShape=1;strokeColor=#3399FF;align=center;verticalAlign=top;fontFamily=Helvetica;fontSize=12;fontColor=default;fillColor=#dae8fc;" vertex="1" parent="1">
          <mxGeometry x="530.7753497068524" y="282.6949139144085" width="10.885232159690291" height="34.208203641110764" as="geometry" />
        </mxCell>
        <mxCell id="F-WN9qBcaST1U_JZLYBf-240" value="" style="shape=stencil(lVjZUtxADPyafVVJozmfCfkPqljCVghLAbn+PppsjfHIpineFtPyWEdLrTno1cv9zdPxEPjl9fn8/fj7dPt6f9AvhxBOj/fH59Or/Tro9UGv7s7Px2/P55+Pt5e/n246sv/6cf7V3/DnYtcq1dqtAv+9PAmk5f+Drxf8w+lxjY8kacIvD3bxtRDHCV+oCMDb6+bvaVQywAtpmPASiPV9g1Ko6WwQqQZgECnMHkglBi7nRk3mkAplZBCpzT6ERImBAVOZk2BREpC1lEnnqGqgBsKaAsX5BM1UQFhj83mLTBEkOibKs9MxUgJ5iIFqmQ0qxQgMmNKcafMqgLBqJZ2dTolqAwaZqjuhEVdgYJmefcgB+qA6grgY2CchH4Ta7IOVI3SaR9QXgoaRmV2DUEflLAZLde0bFIrzCZVJQFiDva/NBjpyv2+QRvUvBmXU775BHAxeuoxVK4iSdUXXNRomkFFenUEiBSdI83loZYRhvwlQnitDmInBCTwa73JAhk1jedvK5QwYzX4yGB6RgQe3FrxQQmVBEj0eVjaVuSgsxw1wLfmAGr4CvJXY9v0gPm0THxke7VcEbw4Q2CHFak68QQMRNYM0U9lS9sEJwZ2gY76/50No3gCNtropCqM+4FnxzDeBwmgSDhKu8AKSZv138z0wpH72G75gUqrHB/B+HpRaZaxg/KZvBRBPmwbu/TK0xjv+5g1eQQXpoOwKz0gmjGivSYm01KiWNR7pR69C+vcgf7cJEDj9jDK8aXMVKKlOStfnTJIjjn3awJSUK1LrfaBIy2ZyFFwU4lWLsQwpYFEvN3sjQi7YxHd5Y8h7yd4HkwgBFF4X+XOlmgjJiPnNG5QG541xzUkEE1KClNeyRqykGiKbsU1mNuQKBa3RrTiDRBHJnOxVS8brVyeck8yVCmoYTHmubhPlaEb1zcYZCFzwNHnZb4sF8kGLV/G2usAmJn4KaoNdrK9Csw+2aghgqH1xmMNqYQhI7ARfGgFvUxZ1t1gEzGlbUt3m34cd6JRZ/eyRAu8Wch55XQwUnlB4zPo3zQwXi6I+cXVosn189rWH01bFfxBWIzV5uYCz/KZgB55hW+3DXh0eLS3WpSs7POpgXTxVh2eETxSCx6PvyaOGV3h0m1UoFYdHQ6FVz0vT6KBTtObrh+Htl+HLjJcP5PVmScNqpG3upgRe6xg++YKDAf3sdeKHePvxdnd5d3p4uFx9rv/v7zrt0eWeVK//AQ==);lineShape=1;strokeColor=#3399FF;align=center;verticalAlign=top;fontFamily=Helvetica;fontSize=12;fontColor=default;fillColor=#dae8fc;" vertex="1" parent="1">
          <mxGeometry x="526.1562968560568" y="284.94113441283776" width="10.314988682304882" height="36.3901232239609" as="geometry" />
        </mxCell>
        <mxCell id="F-WN9qBcaST1U_JZLYBf-241" value="" style="shape=stencil(lVnZchw3DPyafUXxAHg8O85/uMpytBVFcsnK9ffpyRZHQ3C2VX7bAxiSQKPR4Fzypx+PX74/XFL48fb68vvD39evb4+X/Mslpevz48Pr9Q2fLvnzJX/69vL68Nvry5/PX2/fv3/ZLLdPf7z8tT3hn5tfb2J580rh39svSVL7/4dfb/ZP1+ejfZamk30WjfftW5feJnuVmoi9SQ+TfZFsxB7bnffTJJL91CZlPi82yOxNdN5PjFKVOGBDZXbIUsN9h9IlzxGKJoWsUIqEOjtUaYU4JLF5hRRokAxbSrMDTkXOYCbNraCS2QpZYp8dikSCCwtS3Qp1IOXUQasUm4GKQ2fioBLnFXIaWD93CGPHuwPOQBy2v+Ps0Mcmzx2QuDlKmkfuTx0AZnXVVmjiEPU2o1W7BJKH9/IdDhalkEwDOXXOg6kEEiVg0zGMlVEhpw6xS5rDak0qyTTKpcxnKHE84tyh+HoomZYoKtjVdAGvMQeV5mivSSKZhkOeeawGiiWwkCPWihrkDg5L4EJGZHBw9QCyjcwB0Jjh3YJkFqUkOqMV9G98hegcVJQdegfz7oDcszwE399aoyQAh+QaUBgVcs/BUWVPkjt3mM/Qec/tYnOF9kJLug/c7PaNFugewb1fhSCBpG3/97ChThZYI1REyYGDx103KgLQ8Yu3N0aS0qu3Z8Wsnl5gH0mGzbc22GcmMaTlZf8knnUonEM8Wb52qjrYs/g0z469SiD7aRLM2xfy/Dq0xwGgjIjQIxdAM5ZQX/OwZ+0g+36z2RPBlhY8YD+s4iUt9pE8P4hmH0/G7GE07IM9f35w8QGh0OevBMRkTvSaHHgupOGn5fk2uuedfLW1fpn8XeJvYyq5gzddnq/kvPXEninTvQMd4sn6ahv95GDfCN5+1h49cqkvNn/EZUYrVLqnBc9Kh9g02P7QURPB8z7iHlp2Jvyjvt4b+IryucMzRAcT4fjX6Sb9AG824weyiU1ndax+0GWs3uuiFCtVu9XHH8rS2JDv+RBDNtMDkP/zeaGNGZ8v4y7EN+t3UFhhFgSQ98ZEX/SzJQYIqhLTMqIEPnEsGsI+qLHit4QhnoE0osvPqMMQz2Tf1mbmNFigaUNdthkX2qj4TuZXUJ4HIENnZlRUAqv86KVTbtLYyG5+gMAvifWaBXzbmkx8pOXGrklnbGT+FgGEwLCEqDs9BEZrZAWLvuFsFMsIT8fYdriRYgrc6pjo9xmC5wETvStRAN7Ilop6eG8lxUi1Lg6JqgqQkLuG22ZB1vbVn6HRtlMX3V7odNyiv5rR0SjO7YvXOWkQ7TmtBq+jIj1vX2qHtx2oAnfVGsagcM++L/YkPtuUUb09SfA2BqvfP8kX7Lu3p3fv3eucQMcC2Ls7U37TAPvu88XOexjj3x0YQLFAM2dPLxqWm4k47pnv2UdHK7QH/vTLjw/t8eH9Tcu369PT7UXN8X//ZgY/3d7q5M//AQ==);lineShape=1;strokeColor=#3399FF;align=center;verticalAlign=top;fontFamily=Helvetica;fontSize=12;fontColor=default;fillColor=#dae8fc;" vertex="1" parent="1">
          <mxGeometry x="515.6009571241901" y="286.68113406940085" width="18.83390580646325" height="45.390339320928945" as="geometry" />
        </mxCell>
        <mxCell id="F-WN9qBcaST1U_JZLYBf-242" value="" style="shape=stencil(lVnZchw3DPyafUXxBMlnx/kPV1mOtqJILlnO8ffpyYarATjTLr9Js+ghbjQ4l/zh2+Onrw+XFL69vb78/vDX9fPb4yX/cknp+vz48Hp9w1+X/PGSP3x5eX347fXl+/Pn2/9fP22S219/vPy5veHvG250GWVDpfDP7UmUWv978OtN/un6vJcv0tXIJ9FyLt+HtG7kq8RA5FVyM/JNQifyOD4Z+SGFyLcuJVt7k5REAMUbECs/IUp2Hu3S4jlAu4RoXZrmk2MAVKoWAJUGASCm1knwUiRRq8gK66WcpCkBqKRhASqFxLlmGdaGPKQ3AoBPrFtLmq84BJQhw6pUqnQSuNIlWaPxhAJUuj2hwtEkDlCg2DjUMv12DMDPttrgaOalkn0cKiLNTkheJSTL/244BkQZNlsVcSCpAUC0KiF/WcWV4AtIVSrJJWSOBgtAxZH0zoirtQFFG4jRuc1yuQOyZKZS9bnUKm0CGYFzKnXaKHOQbo3u8Bs5ASUfbGdF7ywM0KYCd0Ch9YAuFKzRHa8gkU7ZD5OOyJA4oDF22zUGjCZNANPMnTCSJFJAccxkvgPuSh4D0L2tl0aVTIzG+HATdzQ6UGLxybcNbdYqpw/vAyiEqeQhICwmdNqWUCzqTWZdKUobi4uIT7NPPLAO2uq9wZBX8n700OTlKyMxS9YV2udjmLW+A3SWE0jKJYkiy4k8f94BmMkAVOcjpYMBgJQ8oP3ABhflNq0685IPQ5PKuJ6M7uU740meYmzybHgupd8o6clL0BqlYWsv4twWZTZ8BJh/wqK/Ts508v6y5FBl7Vo0evlA/ekzqNCxrEufQ5kR//elBrg8Ei6uCrGUjjP+e4tJI0INjOQBNCXyEgOl3H8DBA9gC9tPA8aSdShjRqYkZy/PmnvxpHkbHrRZ16WXJqq/b3RJIs8KH7MghU0zvM9qhCWX1hlCYBO7cxeBIrgluPOBGZvfanum7BE0x0UN7JH1FjQL11y2TZqxR7AW233bfbU/BuhkcjuO3UntoP6rzWyweCWZAcrsVkgddI7n6N2qbS5kZyzerfJa6aKdq6c62KYas0F9D9Mw99yz1cXZUO9z9Gw5ag6gomwNDrMn7rZaNtewEVab3tib2WVBST75sJkztoO92dmA1VvZVqtzMu1uF9ho2BRwNyRj3kQdk/Lgaf8WSqJSzf7SJic6SxCmYGdJ6pQf1eEHdOLZitx0JYq2wIzW+/Tb3YWxzQKLuzpApatLSz75MLTZCrnt4faEPh8cyy9OUjoOsVQ77l9omLvOafZ+ocpuRzBr3P1LpPpgWrqYBS5f/TIY5rg7k3ccKdCrlI19LPIkwBubaF6e+Aerq2ORYRKaM3m3hYR5E3MsP1Z92FiDfPPyjKRC3m05gS4hu93+HcD6Ow5wBke6CEK+qJPP7P0/+0Xhh/L44/3zxZfr09Pt68f+d/+5A49un0ryx38B);lineShape=1;strokeColor=#3399FF;align=center;verticalAlign=top;fontFamily=Helvetica;fontSize=12;fontColor=default;fillColor=#dae8fc;" vertex="1" parent="1">
          <mxGeometry x="513.9762574700126" y="298.82509773864115" width="13.90242656087634" height="52.54066475687576" as="geometry" />
        </mxCell>
        <mxCell id="F-WN9qBcaST1U_JZLYBf-243" value="" style="shape=stencil(lVjZUlsxDP2avGq8ycszpf/BDKFkSgkT6Pb3VRp8ieT4XPIWgk4sWedo8SbevD7evWw3wb2+Hfbft79392+Pm/hlE8Lu+XF72L3Jp0283cSbh/1h++2w//l8f/r75e5oefz0Y//r+At/TrhWqdYjKri/p288Nf//i68n+6fd87m9p+iUfaIA7GsiLsq+kOO5fSkUovbHUXVzQG5UsgYwpQAAgbL2KDhKcQ7gTF6fEJh8AQBH0ZzQ+pkXASlRbQoQ5VbrHBAbNQOo1BIAsL2lFCmDW4rB5iEVaiAGCZE1kdgTA5eECO9EWwCJIqDSB3MWQKYEbknS1DQgS2YyACRKSQPEpQYAgVirIRcqKAZPRZ9QHDlAPuGmSVxZzrwI8EMeClMAmRZANCdUCugEoZqmRvWQS75YxVUmB27JZyqa3rV0hUwB+oQmmQbXKgBDvhYo4hi8TlxL/cwZIOgYmsQAAMIDZ+0LqJRStNjaOxTBcEW5l6nLFaCX3cWeof/ya2ztGYitDRfKUM3e204lgIxyvNTQs4hXaOeaBTBySUgRbQ4CiPlICuNS7WmfucTRAlCBkaCbVnNrmNiBSrSAgmIQomoieedgEMudfBaQKPtrXAq2367E7AZq40t1tvGsZM31+vlZWlAwUsC8i+SytUfEFmEZe6ycOvi/Ik1nx5EV7fs40BoXF5np+KrqJcKx1WKlPJbeMD5Zf68GCIuGclTAgCQsMiFHOIG5Pm4t9h4OLzJZaH9qW2kg72P1Yp97JZiosml/qvAWxJusygpWvYxmZtDJ/ZuJCoquKiX2GXdStpJWQcGbSLWTWq5dd7OG5rVDWViOGJes7mWXgQ2NbX+SARilQFQTdY659jNnIij6knhporNp04zYHLtSZxNzHfYKD2gqvKj6WmVzQcVIEhe1S7IbeZAH2Y142L4SYEYsdk2Isn2BoFOwm4uMSyjTqQ5LrewyaEflToSlKbeeytnabAEJNilZzO2A2gvOZblJxdZkZThg12S7miz2IAAZ8I2eHewgUm19M/YeMFv2ASM2B6UjHc+ztUf+Z9uVV+xLX/vO7FG8dfQHrYFtWAMdbDcyk7H1J6OXpmaF7/CI4IYNykMZHw8wgyx8OBL7ZJ/KkIivflpbtZcPH+94D7unp9Mz4Pn/7buffHV6M4y3/wA=);lineShape=1;strokeColor=#3399FF;align=center;verticalAlign=top;fontFamily=Helvetica;fontSize=12;fontColor=default;fillColor=#dae8fc;" vertex="1" parent="1">
          <mxGeometry x="518.3265217655212" y="325.92816097998934" width="9.806852724717267" height="37.30310447096171" as="geometry" />
        </mxCell>
        <mxCell id="F-WN9qBcaST1U_JZLYBf-244" value="" style="shape=stencil(lVnLchw3DPyavaL4AgmeFec/XGUp2ooiuWQlsf/ePd7iagjOtsq31QxaxBsNzinffXv8/PX+lMK3t9eXv+//P395ezzlP04pnZ8f71/Pb/h1yp9O+e7h5fX+r9eXf5+/XP7++nmT3H798/Lf9h++X3C9Sw8bKoUflydRov568OdF/un8vJdvonWSz1ISkVeJeZJX0Ubks4RZ3saDY/kgprP+eEIOMJPUZkCWVghAJbsTqnRiskXv0hQkEECDSrNP4dRIjG6LU1OV0gkgSewzoIsRlWqXXOYwZ0mRAJoEmwFVlNhQi2iaAV2qEUASjROgJKnMBiSCAyCURCXtPjVKk0aKQfF6dmtBOVUCqJJnlTRJCASgPg6apZNI47XNKuHMRLwEBbIrUBsJfwwIo1wGAI7OxGj4JM5uRSgDOQFeL3NqIFkSA9ThxCsAT0gTKKivueKqSSEA5KZrMy2MKj8GmOhcD6hBJYHLTboDoEJIX0J9FQeotJFlleJsMGkkNTbA7FYLoiQOuUifT7DE3Zp9pK2MCjkGIFvnXLJKCwiA5GxotIByHGEaAIyYTPoSOmmfC6gn6lZMNNc1epFK+tI2AudId/QRdkIdXr8CYDRJjQSN574EXsB6KxSe5WMINA7BV2i/Dowb8hq8yYVFYXGRjrDcMMBHWcd4OZ6gYxDs5BPxaIzj9Q4QSZeMRVpYTiAWxyOVlLkIMejep4FlRZRSPaCSIAPQ5nJGlBMDLOytX0fqsdE28vgKwLQiJ4CrRfMARjNiEqseYESlhSlBnk0G9X2+f9CFJa4Ws0SSuFSaEfk1KxrNuzB44D4pSI9HEhUvH1mLl+r8r7Q74vSl0NgIwX4QmgdEZkAeG8u+MknEkHO2lHJhIetSogewJWYLcvJOLR9UpvNqo/369wFhqYNG6QhG2NKNeAfuTqFC53IfI3I3lhmJ3PZGZ0AYpXSrxedZo41asBOiT1Xslmy/QOa5Wja+q25DZCFgrNiiLgQs0CgAYDPbAYlU5qXm4wCamliL70PjHRGOBLB1JHdCGgv1LbZTZ7eCzDMvbbnqNhjkNueEbfZS5dceoKmuy1dEmgHUp0aNdDZjv3AnYN2lRLj7E5RfxZTgJxu2V8Y6sb87L2F7ZfVQiq84jXSYl+sdxG5BpwDzKmEZZfWAbdix/6I0l2BiXK4x2A2aql/QERk2TbT58YNVMZM4vCfCFZBGKG9dxTiuioRn1BPZ7xYSlFRiQ9386omiNZLeLXragD7SGGDZADC2K3Er2pa/acxjoT4GdL+TYMQwJmPLBGqUGdqSSjpowbH8le6/392ye0mzcc855APtSbZQYX5dgPkaqpNnzLZHfzcc6GDoy61noDtnz+MSdSdPShkExLy9jCJtxNfby+7BQKCyeXtJHWMxKN4/bNJix09ef7ZjQ755fSqb5GHZ+gO9Of/tjxEfyuPH+5ePh/PT0+XDyf69/1KCR5evLPnTTw==);lineShape=1;strokeColor=#3399FF;align=center;verticalAlign=top;fontFamily=Helvetica;fontSize=12;fontColor=default;fillColor=#dae8fc;" vertex="1" parent="1">
          <mxGeometry x="524.7708227042702" y="327.0777127187041" width="8.093527954759953" height="46.89962655207196" as="geometry" />
        </mxCell>
        <mxCell id="F-WN9qBcaST1U_JZLYBf-245" value="" style="shape=stencil(rVjLbhsxDPyavRKSqOc5Tf8jQJzGaBoHjtPH33e27m4iyh7XQG+Oo9nlkJwh5UlvXh/vXjZTcK+H/e7r5sf2/vA46acphO3z42a/PeDTpLeT3jzs9psv+93b8/3x75e7+eT86dvu+/yEn0ecd06cm2HB/fr7ldT254vPR8DT9vkDoDVxoTufpSVyPkkq/fOD5EIA3r7AN0kkoqqSawcIRTScB5S8PG8BaJJAQsrNAmKQSkjnleIKaEsaTgJSlZw7QEqiSgBZovZlcBI4wKUeECWTtCIA34eUq5RMACqtB5RAC5eQJd8D8vLO0wC/UFwBjRYOgNSTRrPQkFRc/4ZaaLemKNq3BvpXSWugEbQnDYV48oZBny1LJYUecoTnV08CktrLrUVqAN4NjCMl4MuSkBWgUggDhNSaBWQiaA0SB0CNBAATK5aDEg4xWvVcqFqEKw5l84R0LIveV0Dhb4Bn9bbXKgc4aQaANLAsoRGKBTAxwHezmSXv4+V0bzRp4ToETCNeExTMPlzDOkjwQ1or06c38ZQL540lzY3BqiBqqsY7rw5qi8sTTic02hJcEA8yFAcAlScqmi2AGYAW68KzxZDBEIdJMpsYIQ152irDJUnbQZ7RcMiLcf4fAOrsLIVAOPtRzp6uDFCO6aR5tpFRhc6IfUiYnpEBwNkM9EpnFcQQe/EUXgZkyaw92DECmVaQv/Yehi0mkTKEJn7YkxIhrci6Wd0a3YjnZbPngFXLsc5o1sLiGuS57jbTCgKJbLHCotaHpHwJwL5qdr35GkA4ZJDuKw3rZ92KMpmZPvcvCan4pRHeLyZMb2ical4ghfhqUbv3cLmVaFd6RzOE3dd4mKNXBqy+Xs35QCyvBrvzwJbZtWq9E304T6RZoatozxO+cKvczHk2B2GHyfJV0tNt2MDcUpDT54crmF+m0LmLcDGrCzfHa2/a/wDAh/eL/cP26en4u8DH/9sfAvDV8UcEvf0N);lineShape=1;strokeColor=#3399FF;align=center;verticalAlign=top;fontFamily=Helvetica;fontSize=12;fontColor=default;fillColor=#dae8fc;" vertex="1" parent="1">
          <mxGeometry x="528.3977652504308" y="345.61521308982117" width="3.282532482468843" height="24.23567634072229" as="geometry" />
        </mxCell>
        <mxCell id="F-WN9qBcaST1U_JZLYBf-246" value="" style="shape=stencil(rVfZctswDPwavWJIELye0/Q/MhOn9tS1M457/X2hqrRFyFonM32TZSyFxbEAh/Dwtn163Qzs3s6n49fNz93zeTuETwPz7rDdnHZnfRrC4xAeXo6nzZfT8fvhefr9+jRajk/fjj/GE35NOO8cOTfC2P2eXgUK6e+LzxNgvzvMADWT9519pcrAnimXzt4ninUdUDKF2gHUo+oBwJMYBr598yYgB+KegjiSvA5ImVzPQQp5BPAtJg0QIznAIRbKPWk9wjsIMBxSwoBK3HPIQg7kQQH/KF4AlTLiEG3iirS43QYEm7iiYQBhjXqe9LUXKSGXuP19AWgqQbVqXqMBaKCBS8LkYw/QQMd1QBCbOAUUAOBIsa+lWc/eRGiD1WI/kUCqK0VnSVegAaE5PItqAUFylHoGVSUAUHbkk02zB1njRdICZXB+Jgm9vZ4ACtWLLdSqCoMc4hbvGQCVkSqWdekOoDYH3umSJEp5QRr1v6eYFlFF3allYUhr2uQj/T/WBai76BbNpoUHEieaONMJdyr7Vutk0GtcSHpJutudtdXmXABAmLynwhbAKK43SDMgvZifo0gCBouNYVTh/2jvKfR8dSwIsM9tLF3sGdr7aFshJyoBAAq5PmXZUcA5Ln07pwh7hxeDKulKArpTSYeegw5HOHeCFUnJrU7WFMauVVq5oIy02czSo6rmgUtSKfRh1cnCQMNUMGrvkqayIA0ri9JuOru2t+XenqG+JG6FfLVHipeEYp817T0QUl08pZdUB/3JGvBi7AUENEc7dhwctGXRyljrdAE0k1/tAd9S23Z2tWe0uDBVMfZw0Ul2s/BQSVU4Tfw9rLdRyW09oP30w7evdwD04XrZe9nt99Ndcf6/vRzqq+liGR7/AA==);lineShape=1;strokeColor=#3399FF;align=center;verticalAlign=top;fontFamily=Helvetica;fontSize=12;fontColor=default;fillColor=#dae8fc;" vertex="1" parent="1">
          <mxGeometry x="530.4975284489756" y="353.47581771672174" width="2.731498809635415" height="16.77910586795125" as="geometry" />
        </mxCell>
        <mxCell id="F-WN9qBcaST1U_JZLYBf-247" value="" style="shape=stencil(lVfZctswDPwavWJIgOdzmv5HZuLUnrp2xnF6/H2hepQakLyO3mgKa+LaBTnIw9v26XUzcHg7n47fN792z+ftIF8G5t1huzntzroa5HGQh5fjafPtdHw/PF9+vz6NluPqx/Hn+A+/L7jeKfQRxeHPZSdTLP82vl7s97vDtX2j1ox9FCodAko1AGZiDOBsABKJGz6BLUCDigDQSYIBpEwNBB1DoGARmUkY+pSKBTTqAgBCbAE1UMq3Aa1TSxbQSEDULfg0tTI5uQiohUo0AHWyIkAisaXumSqoXFGPbal7pQx6I3eKtls10b3eBqTqs6TFb+E2QDLl4AEduMRCaXZCBnWITD37GBIAKCGdR4UasA9UnUNp4uwNe8eGztRAbws153+YdpYDjp482rsRFI0V4Dq1Tjlb9oh9lRUggG3Kd5YZALiUC3UXQ6MAAKXM2KaqkwB5hMQKa4/whFq8xCg9IUBb2xVOWwsUus47qU6VWQ6aKTtAo4zSGqk6PncqiJ762Z5wpc3LzVSntF8dUUEhYlnQmIYqR1J8lgQohsY8U8kMuns2e7TOSGDW2is/u3WoRczPQN32tjYvmiQ8G7glwUZSFa6r5q0oGVaNdNFOtnS7c2lQQFp1LRlPsBpz5+KjMTSb1jtXK5kNaHx3U4+ytRfqIOQUPBMYMiclr0ja6miwBT/ZAhxUKsKOOR+ja1mOkr/bYqmo0Wv2HfuPK93n/Gl50rbPxasDgNOKfI46Yv3H9VJdc/XF/bD6rXDXXhf/HyYvu/3+8q65/u4fMrp1eQTJ418=);lineShape=1;strokeColor=#3399FF;align=center;verticalAlign=top;fontFamily=Helvetica;fontSize=12;fontColor=default;fillColor=#dae8fc;" vertex="1" parent="1">
          <mxGeometry x="532.5408865558423" y="356.6220721481799" width="1.9771135804253124" height="11.89190608660283" as="geometry" />
        </mxCell>
        <mxCell id="F-WN9qBcaST1U_JZLYBf-248" value="" style="shape=stencil(lVbLctswDPwaXXdIgM9zmv5HZuLUmrp2xnHb5O9LVpVrwA5k3WiaKwDLxYIDP7xtn143A7m30/HwffN7fD5tB/4yEI377eY4ntpq4MeBH14Ox8234+Hn/nn6/frUT/bVj8Ov/oX3CVcjau4och/TTgbFvxtfp/O7cX95PqAUcZ4cvDMBNQoAe4RiACI4CEAgO6WI4gQgErIFSAhJABIhWYA8Z3wmyYONor1zcDKnSnDZDMEyRCMuGSFK1VW3sooRIRc4WXUtSOFzQGKwlEatyPQ5IDTpVAG44OEmokuh6hDBuAmfkVgX4Y2cMnzSLP3buR0AXtXMyAarTpdcPcgbHCGROF8KMhv5tPDymksydUEJUWZUIpxBafCoKqUAMlKKZW74OwGZEXhNSq1E9muK7p5R1tDalSwjLNxbk1lRwms3Y9kYoUgbW1BeIfBVf1rSTgVROYDdPM0W08r+bLR7HcKygNY/9ao/LZPxbXpUTZNlY3SVke2TN43YuIa1xk2IsnsWRgMjSlkszJ7WWquGW2NDqmhhep478c7xHGdN3jn/A5wUhP2+iHrmxFnkt7ts5vqcPYrl7lGbIyEYXd8/pzoGZKiZr9zaIVgTM+iXiN2PMWr12OdT0vzY+eSkb9eutxl/8Cv4rE7zY99X722pngU5rH3NLp5vi/9P55dxt5te3pf/66d225qe6fz4Bw==);lineShape=1;strokeColor=#3399FF;align=center;verticalAlign=top;fontFamily=Helvetica;fontSize=12;fontColor=default;fillColor=#dae8fc;" vertex="1" parent="1">
          <mxGeometry x="534.9670755595605" y="359.26175128500665" width="1.3599665279378528" height="8.558598628235092" as="geometry" />
        </mxCell>
        <mxCell id="F-WN9qBcaST1U_JZLYBf-249" value="" style="shape=stencil(lVbLUiMxDPyauXbZkp9nlv0PqghkarMJFcICf4/NlBPkmlXim2estvVotTzx3ev24WUzkXk9HQ9/Nu/z42k78a+JaN5vN8f5VFYT309893Q4bp6Ph7f94/L98lAt6+rv4V894WPBZQfPFUXmc/ljGZa+//xeALt5/xPg4SSAMgwrgIhEAuAZIfwfYI2BMQKRPGxSr+AkARlZCaJsJ3lDyYNVfIoJJkhAhFMAgcFRAjKcEoOLoCwLccnDKoItnETkhByVxEYEWboc2hHrUbecnO0JSSm1hZUxp9SysGpv+pATwyv2DkEyqZQlO8UfRpRljk7NEAV46VGkVvh1j2zj2RlgWkOtAnyCNSOAyH2/VZeUGFIA25GgS0d33VPT6hVARpQ31Lpp/ZkabW4kRuWZG2FeInBHVZ3aIcF3CqA3jyeEwf4MCDJNVySg9E/u+lMXGWtgOwXQZYx6j6pOWq1BV4RYbegx4aa2e+NocE0ebpw9ZVZJ+yvDLSB2LELW89/5E5CVcG1hhLR3jbbr6XF9oxFI0Tt2IGlvWkDr6XT9QNAZ7X0/1HT74BHzgD+xnG8G4i2ywzyQz8L2Tkv1emVu19/Gh/HH1HVAWVzebk/zbrc8/X7u92+98mt5J/L9Fw==);lineShape=1;strokeColor=#3399FF;align=center;verticalAlign=top;fontFamily=Helvetica;fontSize=12;fontColor=default;fillColor=#dae8fc;" vertex="1" parent="1">
          <mxGeometry x="536.407391646048" y="361.31324043939674" width="1.4205108255509913" height="4.785048490073223" as="geometry" />
        </mxCell>
        <mxCell id="F-WN9qBcaST1U_JZLYBf-250" value="" style="shape=stencil(lVZdcxshDPw197qD+BDwnCb/IzNx6pu6dsZx0vbfV/TGiUV8cnnjOBak1WphCnev28eXzeTd6+l4+LH5NT+dtlP4Nnk/77eb43yS0RTup3D3fDhuvh8Pb/un5fvlsa1so5+H97bD7wVXGZwayrs/y4x3YPo387AAdvP+ElDgqwLEhGoAyDk4pxA5IxfjiIxQFKBElLoOKBVFn1AJPq0DcoFjDWB4tw7ggJA1oKJ9rgFi7mm64OEqIhCiRgjV0UiCMjhoQESORtYgnbTwZrFEIJ1z8Ui8vt71Ked0Zu06R2Cv1rMkbMRPAVmXmT2iISTPSDqiVEBW1QhVh5QSigFo+7kRQA6IYSSkwgg0knRNfffcoFWUnPUJ+WOLNQsoOocmDKPQ1aPEL8ozlCT7ha4/bWlLiqlzALt5kgcP9iefffE/LUD6p3b9ySDDxsidf1/amJG17yNqPmkU7qoRG3UbNW7qhXTjahBTHbp7Yt//lMAGP+VrjVEN2cl2rmuds3Cv8x961cmEoYggza9lTeatE2PfyrZExXu6G8Fez+KPaSCeLOtpIF+RY2enNp8i987rbhSsed2QIsafO7cBMvh8XT3Pu93yOLv837/GZGp5yYX7vw==);lineShape=1;strokeColor=#3399FF;align=center;verticalAlign=top;fontFamily=Helvetica;fontSize=12;fontColor=default;fillColor=#dae8fc;" vertex="1" parent="1">
          <mxGeometry x="538.2501047400877" y="363.1202437129173" width="1.2644964021774285" height="2.841369498123774" as="geometry" />
        </mxCell>
        <mxCell id="F-WN9qBcaST1U_JZLYBf-251" value="" style="shape=stencil(rVhbbhsxDDyNfwlK1PM7Te8RIE5jNI0DJ33dvtwaspfc9SwK9G/jcCS+OdRO7t6fH972u8jvH6fj1/3Pw+PH804+7WI8vD7vT4cP/drJ/U7uno6n/ZfT8fvr4/nvt4dJcvr6dvwxnfDrjOudUp1QkX+ffwlU498fPp/lXw6vM/nWKXcjnykkIB8piJFvVMNt+arH2fODEMttQNHzigVUqgwAkUowgBgpttuArOclCyiUCwBkYmuDMHRSTpSbBQiFDAHN2iCZOlZJogW0LRuatSEFYuQlDZxNpCTUKgAIVXdDoQZSL0ditoBOHXmJibPNVRlKrgL0vGxvyIUYqKSAYgOXGyWQ3pPGNpcKUwPprTZEG7giOFvZF3TJVPENxRqtJSXABgV0a3TVO1EuBRLbA2rEyRd8k6lp1OAtQHUqFeoo+YKPQ+0UkdFxVPClj6lVSKXou0ZLWCWhZOPQGux82gTYurVfQnkrcGLd2i81uAoQzVarUm+wL0n1blUAqmlJFNwNfSi5CpjGR/MAZIM295w9oANA0JIvCwAIXPflMGmEmsbo1DP5CM7XYgjepwXIs2+TvUKD2RebykeUFaNQLvKFCqiE6vuLygfgHx340SmUR9DXAYsurIAC0lTndwiLG0BDkrAoBM0SEAMplLIHZGCDlpo3usKGlHhRORpmANCB35Z5BNqFUoq8TFR0Ay/icInMehwSle4BaKKH5nMv8CXd1xEaueivQB1JA7ewIYHsjotAq5+BzTxqfSYfgT4aZheESvk/yofF6OxxNPF1QPZkdWPsaEN1FGZjsCmgWR9tjE5l/C5oG8NZAS5TN8a/ApqjMJhghOaH8waFmVLbcR5MkhRQbOZt0DBtk06lieihwHW/i21QSQUkBxA82vqolTkdBnHQ9E7WBiXcAozW6enqTReVDmyYlkEHiGPArwNkTNfZWoKGiW7M1TaxhAeoTtBka1pXKxQHpSR+UwpwXCmgWqOn9RCopK2+2uSbFlA0TOLYHmcrLqMblBlawES0gNHKPctiTUd7TIqe6GmyoJpOl046e2oQtIuJvyFESEw0mbt1a4MLayl+s0qwGuplnR3yDH1alYOIk4dUr/uNmyGbn9p0c/IBySefRTw8vC5ffG1ittAW6znD/V9HpasbHsxyXT6PhnuVR8u8zu7k5TM6v41wXuURc75yoevrH6PdiBfLRYDvHf/6vLgtrx/Xt8ynw8vL+Sl0/n//9qk/nd9N5f4P);lineShape=1;strokeColor=#3399FF;align=center;verticalAlign=top;fontFamily=Helvetica;fontSize=12;fontColor=default;fillColor=#dae8fc;" vertex="1" parent="1">
          <mxGeometry x="526.0579831253585" y="333.81744338937983" width="3.8893422913434628" height="35.86763790153287" as="geometry" />
        </mxCell>
        <mxCell id="F-WN9qBcaST1U_JZLYBf-252" value="" style="shape=stencil(7VnbUhsxDP2avGosW749U/ofzBBKppQwQG9/X7kZL2s5e1IeO8NbCDpZ3Xx05N2Fq5f7m6f9zruX1+fj1/3Pw+3r/S582nl/eLzfPx9e9dMuXO/C1d3xef/l+fj98fb099NNs2yfvh1/tF/4dcLVSuIbyrvfp288Off3i88n+4fD49qeqaTBPpKv2/ZFqITBvlDx2/Y5WXv2VBgAHPnRIU5UASAF8nmMmCnFbUDM5MYn+ESMAJ64DoDgKJRtgGhO4giQHtV5gLrEIyBTBmWT2JPYAeIogxhEKBtA6JU/DwgTIFHOAOApj50nlSLKkidxY+t5iqCXROs6VjpGCihLmhPT3JkqeEKoPcQOSFppkKVQKI7tnaSnYQuQygio5EDhFFBHl3IgQQD9vdGlrM0C6qAAHiudC3kcg8jIAQ4WLqTu8QIIuA5CPBauJHgeAk+0VDstnAcsJ7gDqjYfBqQxhhohkSmgjKxRM0mAAJPWWmBr+KlwCkjgCcpz1bhUIfN5pS1nARGcB++oToACnsC5j5uF7p2DE4tD9+BfEZVqfI9Paao0DlqJNE9ZFRCBZaULZTvbF+D3l2ysGw+cNrUfibsGeNiY3BhvKZCGmeJY4pJhvIFCtPYO+J/seFayiCA/Wn1n7T3wRztuBsACZztG2hPQseGewHUIQIbpwTQ1azlCgGibWgEZ0Jdm1UiSVmX8BCOrlIJRm6oyrWwBCdSZdTobznaQIFU52pPgoLplpposIIAslZ70lT0jCUO52pCRXFCJNKWIwSzn6SgsAmXD3mhn7QpEjZ6SWHsP8hP7OVn1dQL+T3JK7VH+dZmwyuLC0VQpUiYAamtnR6ACBJ3l0MlkBUALTNu4pqQKcilZhadVZuTSuwG1Z301EpBLH2LnQ+z8L2LH3I9U6VNlw97Gu6ytGwzppymIxEg8w8Ae+K9D2JCFQEbVkeYN4TFc/LXlxCyceB2ce/TCwqmAZDZUvNIqwOipzHDMsnSpsmzZCQct3ePVHh/xURaz+DsoUnkRQ6u7iITkkbNpjbEL7y0RaTg4XmhV36+MVjc2SMgrQ5rxLCpTESDZOojWHs3CYrW/ODht21o+Fi5kGHRYBtkCwBdh+nsmhsaxIAbxdp438Y2uqbItXFux0IWkWFmlsgbJsHaLZQYPwwuYlO21cO48eP7WNlraUxeBfQmWlRz0R0nOTE4H+6jEvsG+2QeQ0aa4orFHWqFM1+wOTqmqOzBbezTFQ786XdkDf2q0J9PBPUGHpLf26EZbh3Cc8o/8WYbeqr6gH1aqZulQKPz1AWZTY0rgFL/7vchFe/3w9hLm7vDwcHqHs/6/fWmjX51e+ITrPw==);lineShape=1;strokeColor=#3399FF;align=center;verticalAlign=top;fontFamily=Helvetica;fontSize=12;fontColor=default;fillColor=#dae8fc;" vertex="1" parent="1">
          <mxGeometry x="520.6917028537056" y="331.76376745976427" width="5.424473098095913" height="32.32061251533223" as="geometry" />
        </mxCell>
        <mxCell id="F-WN9qBcaST1U_JZLYBf-253" value="" style="shape=stencil(lVfLctswDPwaXTEkwec5Tf8jM3FqT1074zht8/eBqqEswNJ2cpNlrIjHLgAO/PC2f3rdDcG9XS/nn7s/h+frfuBvQwiH0353OVzlaeDHgR9ezpfdj8v5/fQ8/X59Gi3Hp1/n3+MX/k64VsnlERXcx/SmkHf/Xnyf7I+H08K+NgpO2ftAMQGAp6oP8IVc2QaUREEDgqfE24DcugMzIFELAMBUWQHYEQOXUqNsAJEKCDolSkUDxMm8DYiVQlUAecMeACJxUIAUKAOXuJL3CpA9OZBWCbHptOZEFZ3gqegsFTkBAIRqTbtUMmVAvhApRQUQdhWQJS9s1TEIf3MEgERRn9AyRUANL3XQQbc5qnVAoKRdao0ccslZagigIAFRMYJzjhxIa7JJGg8A+mFyumzSRBqos6fQbIpK3bZ3d/7knuQNe+sPVqfrJJvtuTe1Df+NEJrHQujdZ7Z3VEGFJTpn7QPIT+2nL+0R5e4LICkA3cgzcbURJ+CRqKCaEwJMkegs6wYpNUMteAQYnUmTRzHEzrEF61ALlqDDHa1hc/F9ji10g7JUKXtr34B9tqNZ7CvIEXd3F/YBRUyl2YARjxwl8/0MeT13nUXJEK9dn3gLXRagy6/aJ7u6VCEV6HPSebNOUJEhijnnzQQMmKTFyiAXGILE3LRLOVAAnBhHpm4WKcP5JCw1MchiEYFLLLuObneRu5PrAFmFzDbV4Ooi3zP9i+eRtQ4oXSeLBc8DlxJbaghZ0FCWjdBrl27qWNdyskNHOloDaRXmmG4h/YbRZi5y03XIfR9bt79rRx6qXzanqhuqRAxyKiODk7H3QP0yMRobe7S1tLtl0PV+uW4v7dT6z8i+2GuF6wlYt689Hbd8wvyIDHS98EVqHBaaQQx1udj6ZmFSBAUetz5NiESMA3DmggCvLF+9av7fXh5u99qXw/E4XYuX/9t7sLya7tD8+Ak=);lineShape=1;strokeColor=#3399FF;align=center;verticalAlign=top;fontFamily=Helvetica;fontSize=12;fontColor=default;fillColor=#dae8fc;" vertex="1" parent="1">
          <mxGeometry x="510.28505237518675" y="323.3860588810129" width="9.211237969669476" height="14.780594800860506" as="geometry" />
        </mxCell>
        <mxCell id="F-WN9qBcaST1U_JZLYBf-254" value="" style="shape=stencil(rVfZbttADPwavxK75J7PafofAeLURl07cNzr70tVWEek5QkK9E2WOeI1nOVu5OFt9/S63XB4u5xPX7c/98+X3UY+bZj3x932vL/o00YeN/Lwcjpvv5xP34/P8+/Xp8lyevp2+jF94deM6516n1Acfs9vEnH5++LzbH/YH5f2hZq1j4E6A0Ck2CygUpX7gCYUxQA4UwAhVY04GoAw5XofUPR71oNoFfJ9QG4kbItUqAIPWQOwHvRNA0mnRsnmkCs1EFJKJNaDZpWRh+gBVd8AD6JJ28bVQrlBQCoG0JhSAIBO0XKpNYqgrFrDZOy7UAbMyMQ2AyVjBxl0yrYJPVAB9lGJ5BLo1CJIIFJKHpBABqwsaB5QUNeEavI5yAddY18kND1KJA8QCsBD4htAgtMzUdUBCiVMVXZJV+qgrFqlHCxAuQhUTPuQuweggdZORxtSDIECmIaYqLF3UZCyEruQGhTW7HVVi5RQzqNJV/uMU6bk7BOsqcp2tvb6BcAjbamLP1IANIoy3C9GIQAaxe71ol0VYT3j7Es0AUCJRPUn3ISEprP6o2o6T5HMq2KJr2pGBwnfDJs2BvBUp7M7QB5Z/R/AdU4WKZSO7KslUitjI1jvMzXXtUARJeDjqddRXd9gBo2vRzPWCiVqcmd5ggFpxk5ccqGARjl7Cc5hTNM9ojYbki4caEVSCe62qEpdKPKqqDYHCUNA1uUrU7GnM8sYjvU1T9cF27dYMKD5faSPpNYFKfqlTcYsrduzVzwe68C6vXiixjHc6/bFxx9gz2ofcvhun9BmrlIRnH0Ec9ayH0x8ArabfRB/v7PfpgKsp8oO39QH3XXq2HcX9Qf1nHYIa89wuVtsBAsCYQf/dln70F4f3m+GL/vDYb5YLv/3N0l9Nd9C5fEP);lineShape=1;strokeColor=#3399FF;align=center;verticalAlign=top;fontFamily=Helvetica;fontSize=12;fontColor=default;fillColor=#dae8fc;" vertex="1" parent="1">
          <mxGeometry x="513.9680506503137" y="329.59775303501624" width="4.01846430910596" height="15.25453862022553" as="geometry" />
        </mxCell>
        <mxCell id="F-WN9qBcaST1U_JZLYBf-255" value="溢写" style="text;html=1;align=center;verticalAlign=middle;whiteSpace=wrap;rounded=0;fontFamily=Helvetica;fontSize=12;fontColor=default;" vertex="1" parent="1">
          <mxGeometry x="470.91" y="260.54" width="77" height="30" as="geometry" />
        </mxCell>
        <mxCell id="F-WN9qBcaST1U_JZLYBf-260" value="" style="endArrow=classic;html=1;rounded=0;fontFamily=Helvetica;fontSize=12;fontColor=default;edgeStyle=orthogonalEdgeStyle;curved=1;fillColor=#d5e8d4;strokeColor=#82b366;strokeWidth=4;" edge="1" parent="1">
          <mxGeometry width="50" height="50" relative="1" as="geometry">
            <mxPoint x="590" y="427" as="sourcePoint" />
            <mxPoint x="650" y="387" as="targetPoint" />
          </mxGeometry>
        </mxCell>
        <mxCell id="F-WN9qBcaST1U_JZLYBf-261" value="写入&lt;span style=&quot;background-color: initial;&quot;&gt;记录&lt;/span&gt;" style="text;html=1;align=center;verticalAlign=middle;whiteSpace=wrap;rounded=0;" vertex="1" parent="1">
          <mxGeometry x="641.37" y="417" width="60" height="30" as="geometry" />
        </mxCell>
        <mxCell id="F-WN9qBcaST1U_JZLYBf-262" value="" style="endArrow=classic;html=1;rounded=0;fontFamily=Helvetica;fontSize=12;fontColor=default;edgeStyle=orthogonalEdgeStyle;curved=1;fillColor=#d5e8d4;strokeColor=#82b366;strokeWidth=4;" edge="1" parent="1">
          <mxGeometry width="50" height="50" relative="1" as="geometry">
            <mxPoint x="570" y="427" as="sourcePoint" />
            <mxPoint x="500" y="387" as="targetPoint" />
          </mxGeometry>
        </mxCell>
        <mxCell id="F-WN9qBcaST1U_JZLYBf-263" value="写入&lt;span style=&quot;background-color: initial;&quot;&gt;元数据&lt;/span&gt;" style="text;html=1;align=center;verticalAlign=middle;whiteSpace=wrap;rounded=0;" vertex="1" parent="1">
          <mxGeometry x="444.46999999999997" y="412" width="90.5" height="40" as="geometry" />
        </mxCell>
        <mxCell id="F-WN9qBcaST1U_JZLYBf-270" value="" style="rounded=0;whiteSpace=wrap;html=1;fillColor=#dae8fc;strokeColor=#6c8ebf;" vertex="1" parent="1">
          <mxGeometry x="21" y="337.71" width="139" height="60" as="geometry" />
        </mxCell>
        <mxCell id="F-WN9qBcaST1U_JZLYBf-271" value="" style="rounded=0;whiteSpace=wrap;html=1;fillColor=#dae8fc;strokeColor=#6c8ebf;" vertex="1" parent="1">
          <mxGeometry x="260" y="337.71" width="81" height="60" as="geometry" />
        </mxCell>
        <mxCell id="F-WN9qBcaST1U_JZLYBf-275" value="" style="rounded=0;whiteSpace=wrap;html=1;align=center;verticalAlign=top;fontFamily=Helvetica;fontSize=12;" vertex="1" parent="1">
          <mxGeometry x="160" y="338" width="100" height="60" as="geometry" />
        </mxCell>
        <mxCell id="F-WN9qBcaST1U_JZLYBf-276" value="溢写" style="text;html=1;align=center;verticalAlign=middle;whiteSpace=wrap;rounded=0;fontFamily=Helvetica;fontSize=12;fontColor=default;" vertex="1" parent="1">
          <mxGeometry x="20" y="353" width="140" height="30" as="geometry" />
        </mxCell>
        <mxCell id="F-WN9qBcaST1U_JZLYBf-277" value="溢写" style="text;html=1;align=center;verticalAlign=middle;whiteSpace=wrap;rounded=0;fontFamily=Helvetica;fontSize=12;fontColor=default;" vertex="1" parent="1">
          <mxGeometry x="260" y="354.26" width="81" height="30" as="geometry" />
        </mxCell>
        <mxCell id="F-WN9qBcaST1U_JZLYBf-279" value="开始" style="text;html=1;align=center;verticalAlign=middle;whiteSpace=wrap;rounded=0;" vertex="1" parent="1">
          <mxGeometry x="190" y="397.71" width="60" height="30" as="geometry" />
        </mxCell>
        <mxCell id="F-WN9qBcaST1U_JZLYBf-280" value="结束" style="text;html=1;align=center;verticalAlign=middle;whiteSpace=wrap;rounded=0;" vertex="1" parent="1">
          <mxGeometry x="150" y="397.71" width="60" height="30" as="geometry" />
        </mxCell>
        <mxCell id="F-WN9qBcaST1U_JZLYBf-281" value="写入&lt;span style=&quot;background-color: initial;&quot;&gt;记录&lt;/span&gt;" style="text;html=1;align=center;verticalAlign=middle;whiteSpace=wrap;rounded=0;" vertex="1" parent="1">
          <mxGeometry x="210" y="294.38" width="60" height="30" as="geometry" />
        </mxCell>
        <mxCell id="F-WN9qBcaST1U_JZLYBf-282" value="" style="endArrow=classic;html=1;rounded=0;fillColor=#d5e8d4;strokeColor=#82b366;strokeWidth=4;" edge="1" parent="1">
          <mxGeometry width="50" height="50" relative="1" as="geometry">
            <mxPoint x="200" y="325.02" as="sourcePoint" />
            <mxPoint x="250" y="325" as="targetPoint" />
          </mxGeometry>
        </mxCell>
        <mxCell id="F-WN9qBcaST1U_JZLYBf-283" value="写入&lt;span style=&quot;background-color: initial;&quot;&gt;元数据&lt;/span&gt;" style="text;html=1;align=center;verticalAlign=middle;whiteSpace=wrap;rounded=0;" vertex="1" parent="1">
          <mxGeometry x="110" y="289.38" width="90.5" height="40" as="geometry" />
        </mxCell>
        <mxCell id="F-WN9qBcaST1U_JZLYBf-284" value="" style="endArrow=classic;html=1;rounded=0;fillColor=#d5e8d4;strokeColor=#82b366;strokeWidth=4;" edge="1" parent="1">
          <mxGeometry width="50" height="50" relative="1" as="geometry">
            <mxPoint x="200.5" y="325.35" as="sourcePoint" />
            <mxPoint x="160" y="325" as="targetPoint" />
          </mxGeometry>
        </mxCell>
        <mxCell id="F-WN9qBcaST1U_JZLYBf-278" value="" style="endArrow=none;html=1;rounded=0;fontFamily=Helvetica;fontSize=12;fontColor=default;" edge="1" parent="1">
          <mxGeometry width="50" height="50" relative="1" as="geometry">
            <mxPoint x="200" y="417" as="sourcePoint" />
            <mxPoint x="200" y="317" as="targetPoint" />
          </mxGeometry>
        </mxCell>
      </root>
    </mxGraphModel>
  </diagram>
</mxfile>
